<svg
	xmlns="http://www.w3.org/2000/svg"
	width="217"
	height="406"
	fill="currentColor"
	viewBox="0 0 217 406"
>
	<path
		stroke="#191A1B"
		stroke-width="4"
		d="M202.222 403.062c-24.609 0-48.924-5.364-72.942-16.094-24.019-10.73-45.872-25.938-65.56-45.626-19.687-19.687-34.896-41.54-45.626-65.559C7.364 251.764 2 227.45 2 202.841c0-3.544 1.181-6.497 3.544-8.86 2.362-2.362 5.315-3.543 8.86-3.543h47.84c2.756 0 5.217.935 7.383 2.805 2.165 1.87 3.445 4.085 3.839 6.645l7.678 41.343c.393 3.15.295 5.808-.296 7.974a12.425 12.425 0 0 1-3.248 5.611l-28.645 28.94c3.937 7.285 8.613 14.323 14.027 21.115 5.414 6.792 11.37 13.338 17.866 19.638a207.563 207.563 0 0 0 19.196 16.981 186.731 186.731 0 0 0 21.262 14.322l27.76-27.759c1.771-1.772 4.085-3.101 6.939-3.987 2.855-.886 5.661-1.132 8.417-.738l40.753 8.269c2.756.787 5.02 2.215 6.792 4.282 1.772 2.067 2.658 4.38 2.658 6.94v47.84c0 3.544-1.181 6.497-3.544 8.86-2.362 2.362-5.315 3.543-8.859 3.543ZM33.563 188V0M185 329V0"
	/>
</svg>
