<svg xmlns="http://www.w3.org/2000/svg" width="2005.23" height="900" viewBox="0 0 2005.23 900"><g style="isolation:isolate"><g opacity="0.6"><path d="M2003.36,406.54c-8.53,45.59-43.78,88.48-78.72,95.8-8.74,1.83-16.63,1.27-23.42-1.32-20.37-7.77-138.06-74.49-145.79-78.82l-20.91-11.3a27.85,27.85,0,0,0-18.61-2.85s-20.65,5-22.65,5.54c-7.79,2.27-153.78,46.14-173,52.46-8.06,2.65-17.27,2.35-27.1-1.44-33.32-12.84-61.23-60.82-62.34-107.19-.83-34.76,13.64-58.75,35-63.16,7.12-1.46,174.46-52.85,174.48-52.86,1.76-.74,102.21-42.17,203.17,23.32.53.34,1.07.68,1.59,1,15.46,10.71,125.7,70.16,132,72.18C1998.66,344.79,2010,371.32,2003.36,406.54Z" fill="#fcab01"/><path d="M1914.7,504.42a38.44,38.44,0,0,1-13.84-2.47c-12.27-4.68-61.35-31.18-141.9-76.61l-4-2.26L1734,411.78A27,27,0,0,0,1716.1,409c-.16,0-20.6,5-22.56,5.52-7.51,2.19-153.75,46.13-173,52.45-8.59,2.82-17.94,2.33-27.78-1.46-33.61-13-61.87-61.44-63-108.09-.82-34.32,13.23-59.51,35.79-64.16,7.08-1.46,171.89-52.07,174.36-52.84,2.29-.95,27.51-11,64.64-13.22A229.47,229.47,0,0,1,1844,263.88c.53.34,1.07.68,1.61,1,14.83,10.27,125,69.92,131.8,72.06,22.59,7.18,33.43,35.2,27,69.75h0c-8.58,45.87-44.24,89.2-79.5,96.59A49.58,49.58,0,0,1,1914.7,504.42Zm-193.48-97.88A29,29,0,0,1,1735,410l20.92,11.3,4,2.27c79.32,44.75,129.62,71.91,141.64,76.49,6.81,2.6,14.51,3,22.85,1.28,34.54-7.24,69.5-49.85,77.94-95h0c6.27-33.5-4-60.62-25.61-67.47-6.78-2.16-117.45-62-132.31-72.32l-1.57-1a227.59,227.59,0,0,0-138.19-36.34c-37.75,2.25-63,12.66-64.06,13.1-.51.26-167.9,51.53-174.66,52.92-21.57,4.46-35,28.85-34.19,62.16,1.09,45.92,28.77,93.59,61.7,106.27,9.4,3.63,18.29,4.11,26.43,1.43,19.27-6.33,165.56-50.28,173.07-52.47,2-.58,21.86-5.35,22.7-5.56A29.62,29.62,0,0,1,1721.22,406.54Z"/></g><g opacity="0.6"><path d="M1914.72,489a23.19,23.19,0,0,1-8.36-1.45c-5.32-2-29.59-13.46-139.82-75.63l-4.25-2.39-20.92-11.31a42.44,42.44,0,0,0-20.13-5.1,43,43,0,0,0-8.08.78l-.31.06-.3.08c-6.31,1.51-21.22,5.1-23.33,5.72-7.51,2.19-154.13,46.24-173.49,52.6a21.13,21.13,0,0,1-6.55,1,30.4,30.4,0,0,1-10.87-2.22c-27.83-10.72-52.15-53.79-53.11-94.07-.63-26.1,8.81-45.66,23.49-48.69,3.91-.81,30.46-8.88,103.3-31.2,30.83-9.45,62.64-19.19,70.16-21.36,0,0,37.13-13.61,76.73-13.61a211.06,211.06,0,0,1,116.69,34.6l.11.07,1.25.8c15.12,10.39,126.29,71,135.77,74,14.82,4.7,21.45,25.69,16.48,52.21-7.4,39.6-38.32,78.22-67.5,84.34A34.59,34.59,0,0,1,1914.72,489Z" fill="#fcab01"/><path d="M1914.72,490a24.53,24.53,0,0,1-8.72-1.51c-5.34-2-29.67-13.5-140-75.7l-4.25-2.39-20.9-11.3a41.7,41.7,0,0,0-27.55-4.22l-.57.13c-6.3,1.51-21.19,5.1-23.28,5.71C1682,402.9,1535.4,446.94,1516,453.3c-5.34,1.75-11.49,1.33-18.09-1.22-28.17-10.84-52.79-54.34-53.75-95-.64-26.59,9.12-46.56,24.29-49.69,3.86-.8,30.4-8.86,103.2-31.17,30.79-9.44,62.63-19.19,70.18-21.37.31-.12,37.69-13.65,77-13.65A212.07,212.07,0,0,1,1836.12,276l.1.06,1.26.82c14.84,10.19,126.28,70.93,135.52,73.86,15.33,4.87,22.23,26.31,17.17,53.35-7.48,40-38.75,78.95-68.28,85.13A34.57,34.57,0,0,1,1914.72,490Zm-193.48-97.88a43.47,43.47,0,0,1,20.61,5.22l20.91,11.31L1767,411c110.16,62.13,134.39,73.55,139.69,75.57,4.17,1.59,9.2,1.81,14.76.64,28.82-6,59.38-44.3,66.72-83.54,4.87-26-1.49-46.53-15.81-51.08-9.77-3.11-120.38-63.37-136-74.11-.39-.27-.81-.53-1.22-.79l-.1-.07a210.19,210.19,0,0,0-116.16-34.44c-39,0-76,13.41-76.39,13.55-7.6,2.19-39.43,12-70.21,21.38-72.87,22.33-99.44,30.41-103.39,31.22-14.19,2.92-23.31,22.09-22.69,47.69,1,39.91,25,82.57,52.47,93.16,6.16,2.38,11.85,2.79,16.75,1.18,19.37-6.36,166-50.42,173.52-52.61,2.13-.62,17.06-4.22,23.37-5.74l.66-.14A43.32,43.32,0,0,1,1721.24,392.11Z" fill="#fff"/></g><g opacity="0.6"><ellipse cx="1491.11" cy="380.66" rx="55.63" ry="90.2" transform="translate(-42.08 513.48) rotate(-19.27)" fill="#fff"/><path d="M1509.24,468.81a45.74,45.74,0,0,1-16.48-3.27c-33.61-12.94-61.87-61.43-63-108.09-.64-26.6,7.52-47.85,22.39-58.32,10.63-7.49,23.53-8.65,37.29-3.35,33.62,13,61.87,61.44,63,108.09.63,26.6-7.53,47.86-22.39,58.33A35.6,35.6,0,0,1,1509.24,468.81ZM1473,294.52a33.64,33.64,0,0,0-19.68,6.24c-14.31,10.08-22.16,30.72-21.54,56.64,1.1,45.92,28.78,93.59,61.7,106.27,13.11,5.05,25.36,4,35.43-3.11,14.3-10.08,22.16-30.72,21.54-56.64-1.1-45.92-28.78-93.59-61.71-106.27A43.76,43.76,0,0,0,1473,294.52Z"/></g><g opacity="0.6"><path d="M1526.13,443.69a31.72,31.72,0,0,1-3.09,3.73,21,21,0,0,1-15.47,6.75A30.48,30.48,0,0,1,1496.7,452c-27.83-10.71-52.14-53.8-53.11-94.07-.44-18.42,4.08-33.86,12.39-42.38a21,21,0,0,1,15.46-6.74,28.32,28.32,0,0,1,7.56,1.1c1.09.31,2.19.68,3.32,1.12,27.83,10.71,52.14,53.79,53.11,94.06C1535.81,421,1532.46,434.77,1526.13,443.69Z" fill="#fcab01"/><path d="M1507.58,455.17a31.32,31.32,0,0,1-11.24-2.29c-28.16-10.84-52.77-54.33-53.75-95-.45-18.69,4.17-34.4,12.68-43.11,6.39-6.56,14.59-8.54,24-5.9,1.15.33,2.29.71,3.41,1.14,28.16,10.84,52.77,54.33,53.75,95,.39,16.14-3,30.08-9.48,39.25a32.36,32.36,0,0,1-3.2,3.85A21.94,21.94,0,0,1,1507.58,455.17Zm-36.14-145.41a20,20,0,0,0-14.74,6.44c-8.13,8.33-12.55,23.51-12.11,41.66,1,39.92,25,82.58,52.47,93.16,10,3.87,18.66,2.48,25.26-4.3a29.25,29.25,0,0,0,3-3.61h0c6.26-8.81,9.5-22.33,9.12-38-1-39.92-25-82.58-52.47-93.16-1.06-.41-2.15-.77-3.24-1.09A27.33,27.33,0,0,0,1471.44,309.76Z"/></g><g opacity="0.6"><path d="M1526.13,443.69c-1.09-.3-2.2-.68-3.32-1.11-27.83-10.72-52.14-53.79-53.11-94.07-.39-16,3-29.72,9.3-38.65,1.09.31,2.19.68,3.32,1.12,27.83,10.71,52.14,53.79,53.11,94.06C1535.81,421,1532.46,434.77,1526.13,443.69Z" fill="#fcab01"/><path d="M1526.13,444.69a.84.84,0,0,1-.27,0c-1-.29-2.16-.66-3.4-1.13-28.17-10.85-52.78-54.35-53.76-95-.39-16.14,3-30.07,9.48-39.25a1,1,0,0,1,1.09-.38c1.15.33,2.29.71,3.41,1.14,28.16,10.84,52.77,54.33,53.75,95,.39,16.14-3,30.08-9.49,39.25A1,1,0,0,1,1526.13,444.69ZM1479.41,311c-6,8.83-9.08,22.09-8.71,37.45,1,39.92,25,82.58,52.47,93.17.92.35,1.76.64,2.55.88,6-8.82,9.08-22.09,8.71-37.46-1-39.92-25-82.58-52.47-93.16C1481.12,311.59,1480.27,311.29,1479.41,311Z"/></g><g opacity="0.6"><ellipse cx="1940.08" cy="419.8" rx="90.2" ry="55.63" transform="translate(645.43 1924.47) rotate(-61.5)" fill="#fff"/><path d="M1914.62,504.43A36.22,36.22,0,0,1,1888.56,494c-13-12.72-17.64-35-12.75-61.16l1,.18-1-.18c8.59-45.87,44.25-89.21,79.51-96.59,14.43-3,27,.18,36.27,9.28,13,12.71,17.64,35,12.75,61.16-8.58,45.87-44.25,89.2-79.5,96.59A49.81,49.81,0,0,1,1914.62,504.43Zm50.89-167.24a48.13,48.13,0,0,0-9.78,1.05c-34.53,7.24-69.5,49.86-78,95-4.77,25.48-.33,47.12,12.18,59.36,8.8,8.61,20.72,11.63,34.47,8.75,34.53-7.23,69.5-49.85,77.94-95,4.77-25.48.33-47.12-12.18-59.36A34.23,34.23,0,0,0,1965.51,337.19Z"/></g><g opacity="0.6"><path d="M1990.79,404.69c-7.41,39.6-38.33,78.22-67.51,84.33a33.24,33.24,0,0,1-7,.77h0a21.15,21.15,0,0,1-17-7.77,31.77,31.77,0,0,1-5.19-9.31c27.75-8.95,55.87-45.59,62.89-83.11,2.59-13.87,2-26.64-1.53-36.18a41.6,41.6,0,0,1,4.62-1.24,34,34,0,0,1,7-.76,21.09,21.09,0,0,1,17,7.78C1991.85,368.57,1994.36,385.58,1990.79,404.69Z" fill="#fcab01"/><path d="M1916.32,490.79a22.07,22.07,0,0,1-17.8-8.14,32.47,32.47,0,0,1-5.36-9.6,1,1,0,0,1,.63-1.3c27.47-8.85,55.38-45.79,62.21-82.34,2.54-13.52,2-26.18-1.48-35.64a1,1,0,0,1,.63-1.3,43.77,43.77,0,0,1,4.73-1.27,35.2,35.2,0,0,1,7.16-.78,22.05,22.05,0,0,1,17.79,8.14c8,9.59,10.57,26.91,6.94,46.31h0c-7.48,40-38.75,78.95-68.29,85.13A34.26,34.26,0,0,1,1916.32,490.79Zm-20.91-17.47a30,30,0,0,0,4.65,8.06,20.18,20.18,0,0,0,16.25,7.41,33.11,33.11,0,0,0,6.76-.74c28.83-6,59.39-44.3,66.73-83.54h0c3.52-18.83,1.09-35.53-6.51-44.68-5.37-6.48-13.22-8.71-23-6.67-1.15.24-2.34.54-3.53.9,3.29,9.68,3.73,22.31,1.22,35.72C1951,427.16,1923.63,463.59,1895.41,473.32Zm95.38-68.63h0Z"/></g><g opacity="0.6"><path d="M1957,389.6c-7,37.52-35.14,74.16-62.89,83.11-3.51-9.55-4.13-22.32-1.52-36.19,7-37.52,35.13-74.15,62.88-83.1C1959,363,1959.58,375.73,1957,389.6Z" fill="#fcab01"/><path d="M1894.1,473.71a1,1,0,0,1-.94-.66c-3.61-9.82-4.17-22.86-1.57-36.72,7.08-37.81,35-74.65,63.56-83.86a1,1,0,0,1,1.25.6c3.61,9.8,4.17,22.84,1.57,36.71h0c-7.07,37.82-35,74.66-63.56,83.88A1.18,1.18,0,0,1,1894.1,473.71Zm60.74-119c-27.16,9.37-54.52,45.89-61.28,82-2.45,13.08-2,25.37,1.15,34.75,27.17-9.38,54.54-45.9,61.29-82h0C1958.46,376.32,1958,364,1954.84,354.68Z" fill="#fff"/></g><g opacity="0.6"><path d="M1957,389.6c-7,37.52-35.14,74.16-62.89,83.11-3.51-9.55-4.13-22.32-1.52-36.19,7-37.52,35.13-74.15,62.88-83.1C1959,363,1959.58,375.73,1957,389.6Z" fill="#fcab01"/><path d="M1894.1,473.71a1,1,0,0,1-.94-.66c-3.61-9.82-4.17-22.86-1.57-36.72,7.08-37.81,35-74.65,63.56-83.86a1,1,0,0,1,1.25.6c3.61,9.8,4.17,22.84,1.57,36.71h0c-7.07,37.82-35,74.66-63.56,83.88A1.18,1.18,0,0,1,1894.1,473.71Zm60.74-119c-27.16,9.37-54.52,45.89-61.28,82-2.45,13.08-2,25.37,1.15,34.75,27.17-9.38,54.54-45.9,61.29-82h0C1958.46,376.32,1958,364,1954.84,354.68Z"/></g><g opacity="0.6"><path d="M1679.59,291.33l-102.7,30.92A9.11,9.11,0,0,1,1566,317.3h0a9.1,9.1,0,0,1,5.66-12.48l102.7-30.92a9.11,9.11,0,0,1,10.91,4.94h0A9.11,9.11,0,0,1,1679.59,291.33Z" fill="#fff"/><path d="M1574.29,323.63a10.1,10.1,0,0,1-2.94-19.77l102.7-30.92a10.1,10.1,0,1,1,5.83,19.35l-102.7,30.91A10,10,0,0,1,1574.29,323.63Zm102.65-49.11a8,8,0,0,0-2.31.34l-102.7,30.91a8.1,8.1,0,1,0,4.67,15.52l102.7-30.92h0a8.11,8.11,0,0,0,5-11.11A8.15,8.15,0,0,0,1676.94,274.52Z"/></g><g opacity="0.6"><circle cx="1549.69" cy="321.03" r="9.09" fill="#fff"/><path d="M1549.69,331.12A10.09,10.09,0,1,1,1559.78,321,10.11,10.11,0,0,1,1549.69,331.12Zm0-18.18a8.09,8.09,0,1,0,8.09,8.09A8.1,8.1,0,0,0,1549.69,312.94Z"/></g><g opacity="0.6"><path d="M519.2,182.29c-46.2,15.3-119.67,40.2-164.46,55.42A110.1,110.1,0,0,1,278,235.52C229.54,215.9,99.12,163.06,99.12,163.06-3.77,157.81-30.23,306.78,43.41,338.48q65.27,26.44,130.41,53.2c9.31,3.82,39.1,15.5,68.61,27A213,213,0,0,0,383,423.8c24.95-7.73,49.17-15.3,58.83-18.53,35.62-11.91,139.16-50,152.68-57C652.67,318,625.38,155.27,519.2,182.29Z" fill="#bcb0ff"/><path d="M320,434.28a214.25,214.25,0,0,1-77.95-14.63c-37.7-14.73-60.79-23.83-68.63-27C135.11,376.9,89.65,358.3,43,339.41,25.7,332,12.89,317.73,6,298.28c-6.33-17.81-7.19-38.91-2.42-59.4C8.66,217,19.88,197.4,35.14,183.8c17.36-15.47,39.5-23,64-21.74a.89.89,0,0,1,.32.08S229.92,215,278.39,234.59a109.1,109.1,0,0,0,76,2.17c41.2-14,117.34-39.81,164.46-55.42l.07,0c23.6-6,44.63-3.2,62.5,8.34,15.38,9.93,27.64,26,35.44,46.49,15.6,41,10.5,96.11-22,113-13.55,7-116,44.78-152.82,57.1-8.29,2.77-28.09,9-58.85,18.53A213.94,213.94,0,0,1,320,434.28ZM94.6,164c-34,0-76.08,19.47-89.09,75.38-8.34,35.79.1,81.79,38.3,98.24,46.59,18.87,92.06,37.48,130.39,53.18,7.82,3.21,30.9,12.31,68.6,27a212.78,212.78,0,0,0,139.86,5c30.75-9.52,50.53-15.75,58.8-18.52,35.84-12,139.39-50.14,152.54-57,25.45-13.22,40-60.77,21-110.49-16.94-44.47-52.66-64.51-95.54-53.61-47.12,15.61-123.23,41.41-164.42,55.4a111.06,111.06,0,0,1-77.42-2.21C230.15,217.23,104,166.1,98.9,164.05,97.48,164,96.05,164,94.6,164Z"/></g><g opacity="0.6"><path d="M563.37,340.52c-35.68,13.79-100.33,37.9-127.53,47-8.07,2.69-28.27,9.06-58.42,18.4a194.28,194.28,0,0,1-128.18-4.64c-37.05-14.48-60.68-23.79-68.32-26.93C142.56,358.64,97.09,340,50.64,321.21c-27.72-12.06-34.17-47.52-28.41-75.42,6.1-29.59,28.51-64.15,71.62-64.15h1.31c20,8.09,131.76,53.39,175.83,71.21a128.88,128.88,0,0,0,89.77,2.57c50.14-17,119.11-40.38,163.66-55.15.35-.09.72-.18,1.07-.25-29.71,8.45-45,46.51-34.2,85.13C501.94,323.21,534,347.61,563.37,340.52Z" fill="#bcb0ff"/><path d="M320,415.61a194.56,194.56,0,0,1-71.08-13.39c-37.84-14.79-60.83-23.86-68.34-26.94-41-16.78-84.75-34.7-130.28-53.14-28.26-12.29-34.84-48.3-29-76.55,6.18-30,28.9-65,72.6-65h1.33a1.17,1.17,0,0,1,.36.08c24,9.72,133,53.9,175.83,71.21a128,128,0,0,0,89.07,2.55c50.17-17,119.29-40.44,163.67-55.16l1.19-.28a1,1,0,0,1,.46,1.95c-29.11,8.28-44.15,45.91-33.51,83.89,5.09,18.17,15.26,33.83,28.65,44.09s28.29,13.93,42.24,10.57a1,1,0,0,1,.59,1.91c-34.86,13.47-100.25,37.87-127.57,47-8.29,2.76-29,9.3-58.44,18.41A195.24,195.24,0,0,1,320,415.61Zm-226.11-233c-42.5,0-64.62,34.13-70.64,63.36-5.67,27.48.61,62.46,27.83,74.3,45.5,18.43,89.3,36.35,130.26,53.13,7.5,3.08,30.48,12.14,68.3,26.92A193.37,193.37,0,0,0,377.13,405c29.38-9.11,50.12-15.64,58.39-18.4,25.3-8.46,83.28-30,119.37-43.86-11.94.49-24.15-3.67-35.21-12.15C506,320,495.53,304,490.33,285.43c-9.14-32.63.29-65.05,21.26-79.83-44,14.68-105,35.34-150.51,50.78a129.91,129.91,0,0,1-90.46-2.59C227.91,236.52,119.29,192.51,95,182.65Z" fill="#fff"/></g><g opacity="0.6"><path d="M320.35,318a168.94,168.94,0,0,1-64.62-12.8l-34.79-14.43A15.6,15.6,0,1,1,232.89,262l34.78,14.42a137.9,137.9,0,0,0,90.07,5.27l40.63-11.53a15.6,15.6,0,0,1,8.51,30l-40.63,11.52A168.25,168.25,0,0,1,320.35,318Z" fill="#fff"/><path d="M320.35,319a168.93,168.93,0,0,1-65-12.89L220.56,291.7A16.6,16.6,0,0,1,233.27,261l34.79,14.42a136.87,136.87,0,0,0,89.4,5.22l40.64-11.52a16.6,16.6,0,1,1,9,31.94l-40.63,11.52A169.28,169.28,0,0,1,320.35,319Zm-93.44-57.25a14.65,14.65,0,0,0-5.58,1.11,14.61,14.61,0,0,0,0,27l34.79,14.42A168.12,168.12,0,0,0,366,310.69l40.64-11.52a14.6,14.6,0,0,0-8-28.1L358,282.6a138.92,138.92,0,0,1-90.72-5.3L232.5,262.88A14.49,14.49,0,0,0,226.91,261.76Z"/></g><g opacity="0.6"><circle cx="453.31" cy="268.03" r="15.35" fill="#fff"/><path d="M453.31,284.38A16.35,16.35,0,1,1,469.66,268,16.36,16.36,0,0,1,453.31,284.38Zm0-30.7A14.35,14.35,0,1,0,467.66,268,14.36,14.36,0,0,0,453.31,253.68Z"/></g><g opacity="0.6"><path d="M601.29,295.43v0c-.15.82-.33,1.64-.52,2.45-3.85,17-13.17,31-26.45,38.33-3.21,1.27-6.9,2.7-11,4.27-29.42,7.09-61.43-17.31-72.08-55.36-10.82-38.62,4.49-76.68,34.2-85.13l.27-.06.16,0a72.3,72.3,0,0,1,9.07-1.5,45.44,45.44,0,0,1,9.67.48c1.07.16,2.13.37,3.19.61a52,52,0,0,1,10.59,3.62c.51.23,1,.48,1.52.73s1.21.6,1.82.93,1.24.68,1.86,1a74.39,74.39,0,0,1,24.28,23.76l0,0a91.52,91.52,0,0,1,11.35,25.28A88.45,88.45,0,0,1,601.29,295.43Z" fill="#bcb0ff"/><path d="M553,342.75c-11.31,0-22.83-4.16-33.3-12.19C506,320,495.53,304,490.33,285.43c-10.94-39,4.71-77.78,34.89-86.36l.32-.07.19-.05a73.11,73.11,0,0,1,9.16-1.51,46,46,0,0,1,9.92.49c1,.14,2.07.35,3.26.62a53.16,53.16,0,0,1,10.79,3.69c.51.23,1,.48,1.55.74s1.22.61,1.85.94,1.26.7,1.89,1.07a75.48,75.48,0,0,1,24.6,24.07l0,0a92.09,92.09,0,0,1,11.47,25.55,89.57,89.57,0,0,1,2,40.89.36.36,0,0,1,0,.11c-.15.84-.33,1.68-.53,2.5-4,17.78-13.59,31.62-26.94,39l-.11.05c-3.21,1.27-6.91,2.71-11,4.28l-.13,0A45.28,45.28,0,0,1,553,342.75ZM537.56,199.36c-.84,0-1.68,0-2.51.07a71.31,71.31,0,0,0-8.91,1.48l-.19,0-.24.06c-29.06,8.27-44.1,45.9-33.46,83.88,5.09,18.17,15.26,33.83,28.65,44.09s28.24,13.92,42.17,10.59c4-1.55,7.64-3,10.82-4.22,12.81-7.09,22-20.46,25.9-37.65.19-.78.36-1.56.5-2.34,0,0,0-.09,0-.12a87.59,87.59,0,0,0-2-40.05,90.51,90.51,0,0,0-11.22-25l0,0h0a73.49,73.49,0,0,0-23.94-23.44c-.62-.37-1.23-.71-1.84-1s-1.17-.62-1.77-.9-1-.5-1.5-.73a51.55,51.55,0,0,0-10.4-3.55c-1.14-.26-2.16-.45-3.12-.6A45.49,45.49,0,0,0,537.56,199.36Zm63.73,96.11h0Z" fill="#fff"/></g><g opacity="0.6"><path d="M534.93,198.43H535a72.3,72.3,0,0,0-9.07,1.5l-.16,0-.27.06.18-.05.15,0A43.66,43.66,0,0,1,534.93,198.43Z" fill="#ffb0d8"/><path d="M525.49,201a1,1,0,0,1-.32-1.94l.16-.05.15,0,.13,0a43.69,43.69,0,0,1,9.26-1.53H535a1,1,0,0,1,1,.95,1,1,0,0,1-.9,1.05,70.7,70.7,0,0,0-9,1.48l-.19,0-.24.06A.82.82,0,0,1,525.49,201Z" fill="#fff"/></g><g opacity="0.6"><path d="M574.32,336.25a43.55,43.55,0,0,1-9.4,3.87c-.52.14-1,.28-1.55.4C567.42,339,571.11,337.52,574.32,336.25Z" fill="#ffb0d8"/><path d="M563.37,341.52a1,1,0,0,1-.36-1.93c4-1.57,7.73-3,10.94-4.27a1,1,0,0,1,.86,1.81,45.64,45.64,0,0,1-9.62,4l-.21.05c-.46.13-.92.25-1.39.36A.82.82,0,0,1,563.37,341.52Z" fill="#fff"/></g><g opacity="0.8"><path d="M899.37,303.32,813,390.78a16.73,16.73,0,0,1-24.84-1.15L566.67,119.37a16.73,16.73,0,0,1,.66-22h0a16.74,16.74,0,0,1,20.82-3L896,277.19A16.72,16.72,0,0,1,899.37,303.32Z" fill="#ffe789"/><path d="M801.11,396.75h-.81a17.78,17.78,0,0,1-12.89-6.47L565.9,120a17.73,17.73,0,0,1,22.76-26.48L896.52,276.33A17.72,17.72,0,0,1,900.08,304l-86.35,87.46A17.73,17.73,0,0,1,801.11,396.75ZM579.65,93.06a15.71,15.71,0,0,0-12.2,25.68L789,389a15.73,15.73,0,0,0,23.36,1.08l86.35-87.46a15.72,15.72,0,0,0-3.16-24.57L587.64,95.24A15.63,15.63,0,0,0,579.65,93.06Z"/></g><path d="M809.39,244.52l-159-97.77c-4-2.45-7.87,3.27-4.11,6.06L792.49,261.59a8,8,0,0,0,8.25.79l7.92-3.8A8,8,0,0,0,809.39,244.52Z" fill="#fff"/><path d="M797.27,263.68a8.47,8.47,0,0,1-5.08-1.69L646,153.22a4.17,4.17,0,0,1,4.67-6.9l159,97.78a8.52,8.52,0,0,1-.77,14.93l-7.92,3.8A8.47,8.47,0,0,1,797.27,263.68Zm-148.89-117a3.1,3.1,0,0,0-2.55,1.44,3,3,0,0,0,.73,4.32L792.79,261.19a7.51,7.51,0,0,0,7.74.74l7.91-3.8a7.52,7.52,0,0,0,.68-13.18h0l-159-97.78A3.28,3.28,0,0,0,648.38,146.65Z"/><g opacity="0.9"><polygon points="1431.18 585.67 1308.56 641.18 1196.34 691.97 1055.44 755.76 1055.44 156.8 1057.77 159.47 1431.18 585.67" fill="#ffdc49"/><path d="M1055.44,756.76a1,1,0,0,1-.54-.16,1,1,0,0,1-.46-.84v-599a1,1,0,0,1,1.75-.66L1431.93,585a1,1,0,0,1,.23.87,1.05,1.05,0,0,1-.57.7L1309,642.1l-112.22,50.79-140.9,63.78A1,1,0,0,1,1055.44,756.76Zm1-597.3V754.21l139.49-63.15,112.22-50.79,121.39-54.95Z"/></g><polygon points="1541.2 594.84 1055.43 755.76 1431.18 585.68 1541.2 594.84"/><g opacity="0.9"><polygon points="1055.44 156.8 1055.44 755.76 908.58 689.28 806.5 643.08 679.69 585.67 1047.36 166.02 1050.02 162.99 1053.71 158.77 1055.44 156.8" fill="#fff0d4"/><path d="M1056.44,757.31,678.05,586l.89-1,367.67-419.66,9.83-11.22Zm-375.11-172,373.11,168.89V159.46l-6.33,7.22Z"/></g><path d="M985.56,469.69,890.32,345.27,835.53,407.8s111.22,149.34,167.38,232.61a410.74,410.74,0,0,1,52.53,103.17V474.38h0A46.59,46.59,0,0,1,985.56,469.69Z" fill="#fff"/><path d="M1055.44,744.08a.53.53,0,0,1-.48-.34,410.88,410.88,0,0,0-52.46-103C947,558.38,836.24,409.59,835.13,408.1a.51.51,0,0,1,0-.63l54.79-62.53a.58.58,0,0,1,.39-.17.48.48,0,0,1,.38.2L986,469.39a46.11,46.11,0,0,0,69.14,4.64.49.49,0,0,1,.54-.11.5.5,0,0,1,.31.46v269.2a.5.5,0,0,1-.42.49ZM836.17,407.83c5.85,7.85,112.88,151.83,167.16,232.3a412.87,412.87,0,0,1,51.61,100.46v-265A47.09,47.09,0,0,1,985.16,470L890.29,346.06Z"/><g opacity="0.7" style="mix-blend-mode:multiply"><polygon points="1055.44 156.8 1055.44 160.07 908.58 689.28 806.5 643.08 1050.02 162.99 1053.71 158.77 1055.44 156.8" fill="#fff0d4"/><path d="M909.23,690.67,805.14,643.55l244.12-481.22,7.18-8.19,0,6.2ZM807.87,642.6l100,45.29,146.52-527.95v-.48l-3.59,4.09Z"/></g><g opacity="0.7" style="mix-blend-mode:multiply"><polygon points="1308.56 641.18 1196.34 691.97 1055.44 163.39 1055.44 156.8 1057.77 159.47 1308.56 641.18" fill="#ffdc49"/><path d="M1196.34,693a1.07,1.07,0,0,1-.43-.09,1,1,0,0,1-.53-.65L1054.47,163.65a1.15,1.15,0,0,1,0-.26V156.8a1,1,0,0,1,1.75-.66l2.33,2.67a.85.85,0,0,1,.14.19l250.79,481.72a1,1,0,0,1-.48,1.38l-112.22,50.79A1.15,1.15,0,0,1,1196.34,693Zm-139.9-529.71L1197,690.58l110.18-49.87L1056.94,160l-.5-.57Z"/></g><path d="M949.05,278.23,789.73,460.07,648,462.28,761.26,417l-43.93-27.25,80.55-10.41a35.81,35.81,0,0,0,27.56-51.29l-3.54-7.21,22.54,4.79a29.69,29.69,0,0,0,35.81-27.54l4.4-87.82L905,256a5,5,0,0,0,9.33-.51l20.84-65.21Z" fill="#ffaf49"/><path d="M648,463.28a1,1,0,0,1-.37-1.93l111.45-44.54-42.25-26.2a1,1,0,0,1-.45-1.06,1,1,0,0,1,.85-.78l80.55-10.41a34.82,34.82,0,0,0,26.79-49.86L821,321.29a1,1,0,0,1,.11-1.05,1,1,0,0,1,1-.37l22.54,4.79a28.68,28.68,0,0,0,34.6-26.61l4.4-87.82a1,1,0,0,1,.82-.94,1,1,0,0,1,1.1.58l20.31,45.69a4,4,0,0,0,7.46-.4l20.84-65.22a1,1,0,0,1,1-.69,1,1,0,0,1,.91.84l13.92,88a1,1,0,0,1-.24.82L790.48,460.73a1,1,0,0,1-.73.34L648,463.28Zm72.28-72.89,41.53,25.77a1,1,0,0,1,.47.93,1,1,0,0,1-.62.85L653.38,461.2l135.89-2.12L948,277.92,934.8,194.56l-19.56,61.21a6,6,0,0,1-5.38,4.16,5.87,5.87,0,0,1-5.81-3.55l-18.61-41.87-4.19,83.64a30.7,30.7,0,0,1-37,28.47l-20.53-4.36,2.64,5.36A36.82,36.82,0,0,1,798,380.35Z"/><path d="M980.89,98.36c-58.95,31.15-92.07,45.05-109.48,34.56-16.12-9.72-19.18-40.9-19.18-95h-2c0,57.34-3.33,91.54-21.52,119.35-14,21.36-35.34,40.22-108.07,78.65l.93,1.77c59-31.15,92.08-45.05,109.48-34.56,16.13,9.72,19.18,40.9,19.18,95h2c0-57.34,3.33-91.54,21.53-119.35,14-21.36,35.33-40.21,108.06-78.65ZM851.2,256.72c-1.92-29.81-7-48.05-19.12-55.34-4.15-2.5-9.09-3.71-15-3.71-12.73,0-29.81,5.68-52.5,16.13,65-38.57,82.73-66.38,86.65-134.51,1.92,29.82,7,48.05,19.11,55.34,13.15,7.93,34.31,2.85,67.47-12.42C872.86,160.78,855.12,188.59,851.2,256.72Z"/><path d="M937.85,122.21c-65,38.57-82.73,66.38-86.65,134.51-1.92-29.81-7-48.05-19.12-55.34-4.15-2.5-9.09-3.71-15-3.71-12.73,0-29.81,5.68-52.5,16.13,65-38.57,82.73-66.38,86.65-134.51,1.92,29.82,7,48.05,19.11,55.34C883.53,142.56,904.69,137.48,937.85,122.21Z" fill="#ffdc49"/><path d="M849,492.24c-17.26,9.12-27.56,13.49-32.53,10.5C811.9,500,811,490.3,811,474.51h-2c0,34.87-4,41-38.94,59.45l.93,1.77c17.26-9.13,27.56-13.5,32.53-10.51C808.1,528,809,537.67,809,553.46h2c0-34.88,4-41,38.94-59.45ZM809.92,533.8c-.91-5.24-2.54-8.59-5.37-10.29a9.32,9.32,0,0,0-4.94-1.25,26.65,26.65,0,0,0-8.57,1.81c12.38-8.47,17.26-16.2,19-29.91.91,5.24,2.54,8.59,5.37,10.29,3.11,1.88,7.38,1.6,13.51-.56C816.58,512.36,811.7,520.09,809.92,533.8Z"/><path d="M829,503.89c-12.38,8.47-17.26,16.2-19,29.91-.91-5.24-2.54-8.59-5.37-10.29a9.32,9.32,0,0,0-4.94-1.25,26.65,26.65,0,0,0-8.57,1.81c12.38-8.47,17.26-16.2,19-29.91.91,5.24,2.54,8.59,5.37,10.29C818.56,506.33,822.83,506.05,829,503.89Z" fill="#ffdc49"/><path d="M1168.09,453.39,1181.18,489s220-16.67,284.26,205.06a13.4,13.4,0,0,0,8.32,8.87l26.08,9.42c-11.73-56.7-37.54-121.28-73.17-157.13C1345.08,473.06,1239,454.94,1168.09,453.39Z" fill="#2f73c5"/><path d="M1501.18,713.84l-27.76-10a14.44,14.44,0,0,1-8.94-9.53c-14.59-50.4-38.56-92.49-71.22-125.12-26.13-26.1-57.86-46.25-94.31-59.87-62.12-23.23-117.15-19.39-117.7-19.35l-.75.06-13.86-37.65,1.47,0c73.61,1.62,178.34,20.63,259.27,102.07,38,38.26,62.87,106.51,73.44,157.63Zm-310-226.15a320.09,320.09,0,0,1,108.37,19.7c36.73,13.73,68.72,34,95.06,60.33,32.92,32.88,57.07,75.27,71.76,126a12.42,12.42,0,0,0,7.7,8.21l24.39,8.81c-10.71-50.64-35.24-117.37-72.52-154.88-79.94-80.43-183.28-99.62-256.43-101.44l12.32,33.48C1183.24,487.83,1186.46,487.69,1191.21,487.69Z"/><path d="M1416.41,594.12C1334,480.47,1181.18,489,1181.18,489c19.64-4.71,191.29,54.6,206.31,121.71Z"/><path d="M1455.42,469.51c104.18,86.42,139,214.67,150.37,281l45.69,16.5a5.58,5.58,0,0,0,7.43-6c-5.26-39.31-34.72-199.12-175.77-325.9-162.08-145.67-365-117.34-365-117.34L1134.07,361C1192.25,358.83,1331.09,366.38,1455.42,469.51Z" fill="#ed4e6d"/><path d="M1653.4,768.38a6.57,6.57,0,0,1-2.26-.4l-46.24-16.69-.1-.58c-11.65-67.92-46.64-194.68-150-280.43-53.86-44.68-116.13-76.15-185.09-93.55A488.12,488.12,0,0,0,1134.1,362l-.72,0-16.56-45,1.23-.17c17.59-2.46,65.73-4.77,122,4.05a497.43,497.43,0,0,1,118.09,33.57,453.72,453.72,0,0,1,125.68,80c60.12,54,106.91,120,139.06,196.11,25.86,61.2,34.51,111.58,37,130.4a6.59,6.59,0,0,1-6.5,7.46Zm-46.73-18.58,45.15,16.3a4.58,4.58,0,0,0,6.1-4.91c-2.51-18.75-11.13-68.92-36.89-129.9-32-75.81-78.65-141.55-138.56-195.4a451.85,451.85,0,0,0-125.08-79.59,495.74,495.74,0,0,0-117.59-33.45c-54.77-8.59-101.79-6.59-120.24-4.21l15.19,41.29a490.37,490.37,0,0,1,135.43,14.86c69.25,17.47,131.79,49.08,185.88,93.95C1559.64,554.66,1594.87,681.47,1606.67,749.8Z"/><path d="M1430.72,503.81c-90.39-79-206.35-93.9-278.78-94.3l16.15,43.88c70.87,1.55,177,19.67,258.58,101.78,35.63,35.85,61.44,100.43,73.17,157.13l52.83,19.07C1539,664.69,1511.22,574.16,1430.72,503.81Z" fill="#80ca7a"/><path d="M1554,732.91l-55-19.86-.11-.55c-16-77.54-48.17-131.75-72.89-156.63-80.47-81-184.67-99.87-257.9-101.48h-.68L1150.5,408.5h1.44c46.64.26,91.36,6.22,132.92,17.72,56.89,15.74,106.19,41.59,146.52,76.83,82.5,72.09,109.29,164.71,122.27,228.11Zm-53.31-21.36,50.63,18.27c-27.11-130.56-82.15-191.07-121.27-225.25h0c-40.1-35.05-89.13-60.75-145.73-76.41-41-11.34-85-17.27-130.95-17.64l15.41,41.89c73.57,1.71,177.9,20.86,258.59,102.05,16.67,16.77,32.49,41.34,45.75,71A427.72,427.72,0,0,1,1500.7,711.55Z"/><path d="M1455.42,469.51C1331.09,366.38,1192.25,358.83,1134.07,361l17.87,48.56c72.43.4,188.39,15.32,278.78,94.3,80.5,70.35,108.3,160.88,122,227.56l53.12,19.17C1594.4,684.18,1559.6,555.93,1455.42,469.51Z" fill="#ffdc49"/><path d="M1607.06,752.07l-55.26-20-.11-.55c-12.92-63.11-39.59-155.31-121.63-227-40.1-35.05-89.13-60.75-145.73-76.41-41.39-11.46-85.94-17.39-132.4-17.65h-.69L1132.65,360,1134,360a490.27,490.27,0,0,1,136.15,14.84c69.25,17.47,131.79,49.08,185.88,93.95,103.87,86.17,139,213.44,150.71,281.63Zm-53.52-21.45,51,18.4c-12-68.32-47.21-193.69-149.73-278.74-53.86-44.68-116.13-76.15-185.09-93.55a489.08,489.08,0,0,0-134.21-14.83l17.16,46.62c46.38.31,90.86,6.27,132.22,17.71,56.89,15.74,106.19,41.59,146.52,76.83C1513.64,574.94,1540.52,667.24,1553.54,730.62Z"/><path d="M1538.19,519.19c-20.77-28.28-57.25-60.45-78.08-75.35a19.18,19.18,0,0,0-25.29,2.65h0a19.18,19.18,0,0,0,1.74,27.66c24.87,20.94,53.08,53.38,68.15,71.45a19.2,19.2,0,0,0,26.37,3q2-1.53,4-3.19A19.28,19.28,0,0,0,1538.19,519.19Z" fill="#fff"/><path d="M1519.49,553.54a20.22,20.22,0,0,1-15.55-7.3c-14.71-17.63-43.1-50.34-68-71.32a20.2,20.2,0,0,1-1.83-29.1A20.21,20.21,0,0,1,1460.7,443c18.58,13.3,56.27,45.58,78.3,75.57h0a20.32,20.32,0,0,1-3.27,27.59c-1.27,1.06-2.63,2.14-4,3.22A20,20,0,0,1,1519.49,553.54ZM1449,441.27a18.24,18.24,0,0,0-18.21,19.4,18,18,0,0,0,6.42,12.72c25,21.08,53.53,53.89,68.28,71.57a18.16,18.16,0,0,0,25,2.86c1.39-1.06,2.73-2.12,4-3.16a18.31,18.31,0,0,0,3-24.87h0c-21.9-29.81-59.38-61.91-77.86-75.14A18.05,18.05,0,0,0,1449,441.27Z"/><path d="M1234.58,151.66c-23.31,12.32-37.24,18.21-44,14.11-6.34-3.82-7.54-16.39-7.54-38.24h-2c0,46.56-5.89,55.56-52.52,80.2l.94,1.77c23.31-12.32,37.23-18.22,44-14.11,6.33,3.82,7.53,16.38,7.53,38.24h2c0-46.57,5.89-55.56,52.52-80.2ZM1181.92,210c-1.12-8.42-3.32-13.8-7.43-16.27a12,12,0,0,0-6.37-1.59c-3.83,0-8.57,1.22-14.42,3.51,19.31-12.58,26.17-23.42,28.37-44.39,1.12,8.42,3.31,13.79,7.43,16.27,4.5,2.71,11.13,1.86,20.79-1.92C1191,178.14,1184.12,189,1181.92,210Z"/><path d="M1210.29,165.56C1191,178.14,1184.12,189,1181.92,210c-1.12-8.42-3.32-13.8-7.43-16.27a12,12,0,0,0-6.37-1.59c-3.83,0-8.57,1.22-14.42,3.51,19.31-12.58,26.17-23.42,28.37-44.39,1.12,8.42,3.31,13.79,7.43,16.27C1194,170.19,1200.63,169.34,1210.29,165.56Z" fill="#ffdc49"/><ellipse cx="1540.5" cy="219.05" rx="45.94" ry="63.13" fill="#f2f2f2"/><path d="M1540.5,283.18c-25.88,0-46.94-28.77-46.94-64.13s21.06-64.13,46.94-64.13,47,28.77,47,64.13S1566.39,283.18,1540.5,283.18Zm0-126.26c-24.78,0-44.94,27.88-44.94,62.13s20.16,62.13,44.94,62.13,45-27.87,45-62.13S1565.29,156.92,1540.5,156.92Z"/><path d="M1500.06,189.07a82.33,82.33,0,0,0-5.5,30c0,34.87,20.57,63.13,45.94,63.13,17.18,0,32.14-12.95,40-32.13C1565.88,218.75,1533.92,195.55,1500.06,189.07Z"/><path d="M1422.92,201.07l-38,12.88s-66.93-12.77-72.48,46.84,26.3,69.44,41.91,59.67,25.19-30.21,20.75-49.1Z" fill="#f2f2f2"/><path d="M1342.67,324.72a25.4,25.4,0,0,1-13.29-3.79c-8.32-5.13-21.72-19.77-18-60.24,1.54-16.55,7.92-29.16,19-37.47,20.65-15.53,51.25-10.84,54.43-10.3l37.77-12.79a1,1,0,0,1,1.15,1.51l-47.6,69.92c4.14,18.54-4.76,39.4-21.29,49.75A22.92,22.92,0,0,1,1342.67,324.72Zm27.73-110.89c-11.18,0-26.78,1.94-38.8,11-10.58,8-16.7,20.09-18.18,36.06-3.67,39.39,9.08,53.46,17,58.34,7.35,4.53,16.52,4.68,23.37.39,16-10,24.5-30.18,20.3-48a1,1,0,0,1,.15-.79L1420.41,203l-35.19,11.91a.94.94,0,0,1-.5,0A86.08,86.08,0,0,0,1370.4,213.83Z"/><path d="M1433.06,171.56l-38,12.88s-66.93-12.77-72.48,46.84,26.3,69.44,41.91,59.67,25.19-30.21,20.75-49.1Z" fill="#f2f2f2"/><path d="M1352.82,295.21a25.41,25.41,0,0,1-13.3-3.79c-8.32-5.13-21.72-19.77-18-60.24,1.54-16.55,7.92-29.16,19-37.47,20.65-15.53,51.25-10.84,54.43-10.3l37.77-12.79a1,1,0,0,1,1.15,1.51l-47.6,69.92c4.15,18.54-4.76,39.4-21.29,49.75A22.89,22.89,0,0,1,1352.82,295.21Zm27.72-110.89c-11.18,0-26.78,1.94-38.8,11-10.58,8-16.7,20.09-18.18,36.06-3.67,39.39,9.08,53.46,17,58.35,7.35,4.52,16.52,4.67,23.37.38,16-10,24.5-30.18,20.31-48a1,1,0,0,1,.14-.79l46.16-67.82-35.19,11.92a1.05,1.05,0,0,1-.5,0A86.08,86.08,0,0,0,1380.54,184.32Z"/><path d="M1536.12,115.45h0a63.55,63.55,0,0,0-55.85-7.8l-20.43,30a63.64,63.64,0,0,1,57.78,7.13h0a63.52,63.52,0,0,1,26.51,39.72L1563,156.84A63.47,63.47,0,0,0,1536.12,115.45Z" fill="#b3b3b3"/><path d="M1544.13,185.5a.71.71,0,0,1-.2,0,1,1,0,0,1-.78-.77,62.65,62.65,0,0,0-83-46.12,1,1,0,0,1-1.17-1.5l20.43-30a1,1,0,0,1,.51-.38,64.66,64.66,0,0,1,84,50,1,1,0,0,1-.16.74L1545,185.06A1,1,0,0,1,1544.13,185.5Zm-62.37-52.73A64.61,64.61,0,0,1,1544.6,182l17.3-25.43a62.67,62.67,0,0,0-81-48.12l-18.55,27.26A64.83,64.83,0,0,1,1481.76,132.77Z"/><path d="M1554.63,83.74h0a48,48,0,0,0-66.72,12.68l-7.64,11.23a63.55,63.55,0,0,1,55.85,7.8h0A63.47,63.47,0,0,1,1563,156.84l4.34-6.38A48,48,0,0,0,1554.63,83.74Z" fill="#ed4e6d"/><path d="M1562.41,159.42,1562,157a62.67,62.67,0,0,0-81.4-48.41l-2.8.92,9.3-13.66a49,49,0,0,1,68.11-12.94h0a49,49,0,0,1,12.94,68.1Zm-62-56a64.74,64.74,0,0,1,63,50.92l3-4.4a47,47,0,0,0-12.41-65.33h0A47,47,0,0,0,1488.74,97l-6,8.88A65,65,0,0,1,1500.43,103.38Z"/><path d="M1422.92,362.58l-3.93,5.76-45.33,25.91-6.31,3.61-35,20a8.14,8.14,0,0,1-12-8.7l7.93-39.07.36-1.77,11-54,6-8.73c6.75-9.92,18-8.79,27.54,3.7,6.48-7.76,19.16-7.94,28.43-.36,8.15,6.66,11,17.12,7.18,24.92C1422.92,336.41,1430,346.82,1422.92,362.58Z" fill="#fff0d4"/><path d="M1328.29,420a9.15,9.15,0,0,1-5.35-1.75,9,9,0,0,1-3.6-9.24l19.28-94.88a1.14,1.14,0,0,1,.15-.36l6-8.73c3.07-4.52,7.1-7,11.65-7.09,5.63-.16,11.54,3.32,16.77,9.8,7-7.25,19.75-7.16,29,.42,7.95,6.49,11.17,16.79,8,25,7,1.53,12.07,4.93,14.67,9.89,2.84,5.39,2.5,12.31-1,20a1.09,1.09,0,0,1-.08.15l-3.93,5.77a1,1,0,0,1-.33.3l-86.65,49.54A9.24,9.24,0,0,1,1328.29,420Zm12.25-105.27-19.24,94.68a7.14,7.14,0,0,0,10.55,7.63l86.45-49.42,3.74-5.5c3.17-7.08,3.51-13.36,1-18.17s-7.47-7.83-14.49-9.1a1,1,0,0,1-.73-1.42c3.62-7.51.71-17.48-6.92-23.72-8.79-7.19-20.91-7.08-27,.23a1,1,0,0,1-.79.36,1,1,0,0,1-.77-.39c-5-6.56-10.61-10.11-15.87-10-3.88.11-7.35,2.25-10.05,6.21Z"/><path d="M1459.84,137.65,1345.55,305.57c8.4-7.2,16.81-10.4,27.54,3.7l118.68-174.74A64,64,0,0,0,1459.84,137.65Z" fill="#ffa249"/><path d="M1340.5,311.2l118.7-174.38.3-.11a65.07,65.07,0,0,1,32.42-3.17l1.56.25L1373.13,311l-.84-1.1c-4.46-5.87-8.68-8.94-12.9-9.39-3.92-.42-8,1.38-13.19,5.84Zm17.81-12.76q.64,0,1.29.06c4.52.49,8.92,3.46,13.43,9.08l117-172.29a63.07,63.07,0,0,0-29.55,3.19L1349.73,301.2A16.47,16.47,0,0,1,1358.31,298.44Z"/><path d="M1404.64,244c17.15-17.15,25.21-39.89,26-63.45l-46.3,68C1391.61,250.67,1399.52,249.87,1404.64,244Z"/><path d="M1517.62,144.78a63.48,63.48,0,0,0-25.85-10.25L1373.09,309.27h0c6.48-7.76,19.16-7.94,28.43-.36,8.15,6.66,11,17.12,7.18,24.92l.51.06,120.87-178A63.8,63.8,0,0,0,1517.62,144.78Z" fill="#ffdc49"/><path d="M1409.21,334.89h-.1l-.24,0-.25,0a1,1,0,0,1-.78-.5,1,1,0,0,1,0-.93c3.62-7.51.71-17.48-6.92-23.72-8.79-7.19-20.91-7.08-27,.23a1,1,0,0,1-1.59-1.2L1490.94,134a1,1,0,0,1,1-.43A64,64,0,0,1,1518.18,144a65.09,65.09,0,0,1,12.66,11.31,1,1,0,0,1,.07,1.22L1410,334.45A1,1,0,0,1,1409.21,334.89Zm-22.67-32.52a24.84,24.84,0,0,1,15.61,5.77c6.75,5.51,10.09,13.77,9,21.14L1528.82,156a62.86,62.86,0,0,0-11.77-10.39h0a62.08,62.08,0,0,0-24.81-10L1377.57,304.45A19.57,19.57,0,0,1,1386.54,302.37Z"/><path d="M1544.13,184.5a63.72,63.72,0,0,0-14.05-28.58l-120.87,178c15.71,1.69,20.79,18.28,13.71,28.69Z" fill="#f2f2f2"/><path d="M1422.92,363.58a1,1,0,0,1-.56-.18,1,1,0,0,1-.27-1.38,17.72,17.72,0,0,0,1.32-17.31c-2.56-5.54-7.78-9.12-14.31-9.82a1,1,0,0,1-.8-.58,1,1,0,0,1,.08-1l120.87-178a1,1,0,0,1,.77-.43,1,1,0,0,1,.82.34,64.78,64.78,0,0,1,14.26,29,1,1,0,0,1-.15.77l-121.2,178.06h0A1,1,0,0,1,1422.92,363.58Zm-12-30.45a19,19,0,0,1,14.28,10.74,19.88,19.88,0,0,1,1.65,11.12l116.19-170.7a62.81,62.81,0,0,0-12.9-26.71Z"/><path d="M1544.13,184.5a63.72,63.72,0,0,0-14.05-28.58l-120.87,178c15.71,1.69,20.79,18.28,13.71,28.69Z" fill="#ffa249"/><path d="M1423.75,363.14l-1.66-1.12a17.72,17.72,0,0,0,1.32-17.31c-2.56-5.54-7.78-9.12-14.31-9.82l-1.65-.18.93-1.38,121.61-179,.85,1a64.78,64.78,0,0,1,14.26,29l.09.42-.24.35-121.2,178.06Zm-12.81-30a19,19,0,0,1,14.28,10.74,19.88,19.88,0,0,1,1.65,11.12l116.19-170.7a62.81,62.81,0,0,0-12.9-26.71Z"/><path d="M1442.82,274.57a37.21,37.21,0,0,0-.47,10.52l27.39-40.33C1456.78,250.08,1446.4,258.26,1442.82,274.57Z"/><path d="M1461.62,257.18l-19.27,27.91c1,10.48,5.91,21.58,14.88,27.07l45.06-67.4C1488.54,249.44,1474.38,252,1461.62,257.18Z"/><path d="M1367.35,397.86l-35,20a8.14,8.14,0,0,1-12-8.7l7.93-39.07C1343.75,364.25,1367.35,381.53,1367.35,397.86Z" fill="#333"/><path d="M1328.29,420a9.15,9.15,0,0,1-5.35-1.75,9,9,0,0,1-3.6-9.24l7.93-39.07a1,1,0,0,1,.63-.74c7.32-2.76,16.92-.81,25.67,5.24,9.12,6.3,14.78,15.29,14.78,23.45a1,1,0,0,1-.5.87l-35,20A9.24,9.24,0,0,1,1328.29,420Zm.83-49.11-7.82,38.52a7.14,7.14,0,0,0,10.55,7.63l34.49-19.72c-.26-7.37-5.54-15.45-13.9-21.23C1344.43,370.53,1335.76,368.6,1329.12,370.86Zm38.23,27h0Z"/><path d="M1494.53,257.37l35.55-52.23s32.77,40.71,9.79,86-114.43,51.31-106,12.66S1449.51,266.21,1494.53,257.37Z" fill="#f2f2f2"/><path d="M1467.12,330.35a58.09,58.09,0,0,1-19.29-2.89c-12.06-4.29-17.37-12.75-15-23.84,8-36.92,15.88-38.43,53.57-45.7l7.5-1.46,35.31-51.88a1,1,0,0,1,1.61-.07c.33.42,32.91,41.75,9.91,87.11C1527.54,317.71,1493.31,330.35,1467.12,330.35Zm63-123.49-34.76,51.07a1,1,0,0,1-.64.42l-7.9,1.53c-38.35,7.4-44.24,8.54-52,44.16-1.54,7.06-.41,16.53,13.67,21.54,12.5,4.45,31.13,3.55,48.61-2.33,19.73-6.64,34.6-18.19,41.87-32.53C1559.34,250.58,1535,213.61,1530.12,206.86Zm-35.59,50.51h0Z"/><path d="M1455.21,144.46l-36.55,12.38s-64.37-12.28-69.7,45,25.29,66.78,40.3,57.38,24.22-29.05,20-47.21Z" fill="#f2f2f2"/><path d="M1378.05,263.39a24.43,24.43,0,0,1-12.8-3.66c-8-4.93-20.9-19-17.28-58,1.48-15.93,7.62-28.06,18.26-36.06,19.84-14.92,49.24-10.44,52.35-9.91l36.31-12.3a1,1,0,0,1,1.12.34,1,1,0,0,1,0,1.17l-45.76,67.22c4,17.84-4.58,37.9-20.49,47.86A22.06,22.06,0,0,1,1378.05,263.39Zm26.66-106.63c-10.74,0-25.73,1.87-37.29,10.56-10.16,7.65-16,19.3-17.46,34.64-3.52,37.86,8.73,51.38,16.34,56.07,7,4.34,15.86,4.49,22.43.37,15.33-9.59,23.53-29,19.51-46.13a1,1,0,0,1,.14-.79l44.33-65.12L1419,157.78a1,1,0,0,1-.51,0A82.21,82.21,0,0,0,1404.71,156.76Z"/><path d="M874.6,750.39a13.83,13.83,0,0,1,.35,23.54C817.53,810.66,610,867.6,542.58,850.76c-58.18-14.53-24.57-39.09-1.26-67.69,23-28.21-167-187.69-98.46-188.67C525.82,593.22,796.8,704.11,874.6,750.39Z"/><path d="M584.36,813c-.43,14.32-6.39,24-15,26.75-4.5,1.44-21.75,9-26.75,11s-11,1.49-17.36-1.84c-16.68-8.73-29.66-33.87-29-56.17.65-21.8,14.11-32.8,30.31-25.11,4.87-12.6,16.09-17.45,28.82-10.78C572,765.58,585,790.73,584.36,813Z" fill="#333"/><path d="M536.3,852.92a25,25,0,0,1-11.54-3.11c-17-8.88-30.21-34.48-29.53-57.08.36-12.08,4.67-21.52,11.84-25.9,5.41-3.31,12.1-3.49,18.94-.53,2.59-6.1,6.67-10.34,11.83-12.28,5.42-2,11.64-1.37,18,2,16.95,8.87,30.2,34.47,29.53,57.09h0c-.43,14.31-6.31,24.66-15.72,27.67-2.78.89-10.8,4.28-17.24,7-4.06,1.72-7.57,3.21-9.46,4A18.16,18.16,0,0,1,536.3,852.92Zm-19.75-86.74a15.89,15.89,0,0,0-8.43,2.35c-6.59,4-10.55,12.87-10.89,24.25-.66,21.92,12.11,46.7,28.45,55.25,5.91,3.09,11.62,3.71,16.54,1.79,1.85-.72,5.35-2.2,9.4-3.92,6.82-2.89,14.54-6.16,17.41-7.08,8.57-2.74,13.93-12.39,14.33-25.82.65-21.93-12.12-46.71-28.46-55.25-5.83-3-11.48-3.7-16.35-1.86s-8.72,6-11.07,12.11a1,1,0,0,1-.57.57,1,1,0,0,1-.79,0A22.51,22.51,0,0,0,516.55,766.18ZM584.36,813h0Z"/><path d="M425.24,741.84c-.42,13.86-6,23.35-14.17,26.45-3.9,1.49-19.67,7.77-24.17,9.11-4.73,1.41-10.23.77-16.06-2.28-16.67-8.73-29.65-33.87-29-56.16.61-20.48,12.52-31.44,27.36-26.3,5.52-9.71,15.67-12.93,27-7C412.93,694.41,425.9,719.55,425.24,741.84Z" fill="#333"/><path d="M381.93,779.11a25,25,0,0,1-11.55-3.1c-16.95-8.88-30.19-34.48-29.52-57.08.34-11.53,4.35-20.77,11-25.35,4.84-3.34,10.68-4.07,16.92-2.13,6.08-10,16.71-12.54,28-6.66,16.95,8.88,30.19,34.48,29.52,57.08h0c-.41,13.76-5.95,24-14.81,27.36-.93.35-2.53,1-4.49,1.74-6.48,2.53-16.29,6.36-19.75,7.39A18.48,18.48,0,0,1,381.93,779.11Zm-19.79-86.72a15.83,15.83,0,0,0-9.16,2.84c-6.11,4.21-9.8,12.87-10.12,23.76-.65,21.91,12.11,46.69,28.44,55.25,5.4,2.82,10.69,3.58,15.32,2.2,3.38-1,13.53-5,19.6-7.34l4.5-1.74c8.08-3.07,13.13-12.62,13.52-25.55.65-21.91-12.11-46.69-28.45-55.25-10.44-5.46-20.29-2.94-25.7,6.59a1,1,0,0,1-1.19.45A20.87,20.87,0,0,0,362.14,692.39Zm63.1,49.45h0Z"/><polygon points="751.4 571.05 574.28 651.67 312.98 524.04 501.81 446.93 616.32 503.88 674.43 532.78 751.4 571.05" fill="#b3b3b3"/><path d="M574.28,652.67a1,1,0,0,1-.44-.11L312.54,524.93A1,1,0,0,1,312,524a1,1,0,0,1,.63-.89L501.43,446a1,1,0,0,1,.82,0L751.84,570.16a1,1,0,0,1,0,1.8L574.69,652.58A1,1,0,0,1,574.28,652.67ZM315.43,524.12,574.29,650.56,749.07,571,501.76,448Z"/><polygon points="574.28 651.67 312.98 524.04 310.33 700.04 571.64 827.67 632.98 856.73 635.33 777.92 574.28 651.67" fill="#e6e6e6"/><path d="M633,857.73a1.11,1.11,0,0,1-.43-.09l-61.34-29.06L309.9,700.94a1,1,0,0,1-.56-.92L312,524a1,1,0,0,1,.48-.84,1,1,0,0,1,1,0l261.3,127.63a1,1,0,0,1,.46.47l61.05,126.24a1.1,1.1,0,0,1,.1.47L634,856.76a1,1,0,0,1-.48.83A1.07,1.07,0,0,1,633,857.73ZM311.34,699.42,572.08,826.78,632,855.17l2.29-77L573.53,652.42,314,525.63Z"/><path d="M362.32,572.16l44.32,21.65-1.8,60.6-35.06-17.13-23.39-11.1a15.4,15.4,0,0,1-9.12-14.24l.38-25.61C337.82,574.85,351.6,566.93,362.32,572.16Z" fill="#2fbae6"/><path d="M405.79,656l-36.45-17.81L346,627.08a16.4,16.4,0,0,1-9.69-15.15l.38-25.62a16.78,16.78,0,0,1,8.38-13.9,18.35,18.35,0,0,1,17.73-1.14l44.9,21.93,0,.64ZM355.07,571.5a17.19,17.19,0,0,0-9,2.61,14.83,14.83,0,0,0-7.43,12.23L338.27,612a14.47,14.47,0,0,0,8.54,13.32l23.4,11.1,33.67,16.45,1.74-58.4-43.74-21.37A15.54,15.54,0,0,0,355.07,571.5Z"/><path d="M674.43,532.78a26.77,26.77,0,0,1-4.72,6.57C644.5,566.23,561.9,580.68,507.6,574.26c-39.22-4.63-52.57-19.5-38.67-34.24s55.37-29.74,103.53-34.66a310.16,310.16,0,0,1,43.86-1.48Z"/><polygon points="490.78 634.92 488.97 695.5 417.18 660.44 418.99 599.84 490.78 634.92" fill="#2fbae6"/><path d="M489.93,697.08l-73.77-36,0-.64L418,598.26l73.77,36,0,.65ZM418.2,659.82,488,693.92l1.74-58.39-69.82-34.11Z"/><path d="M579.14,739.54l-77.81-38L503.14,641l46.51,22.71A13.82,13.82,0,0,1,556.1,670l30.51,63.1C588.59,737.22,583.44,741.65,579.14,739.54Z" fill="#2fbae6"/><path d="M581.46,741.09a6.26,6.26,0,0,1-2.76-.65l-78.39-38.28,0-.65,1.85-62.13,47.91,23.39a14.75,14.75,0,0,1,6.91,6.82l30.51,63.1a5.49,5.49,0,0,1-1.26,6.39A7,7,0,0,1,581.46,741.09Zm-79.11-40.16,77.23,37.72a4.64,4.64,0,0,0,5.26-1,3.49,3.49,0,0,0,.87-4.1l-30.51-63.1a12.73,12.73,0,0,0-6-5.89l-45.12-22Z"/><ellipse cx="533.97" cy="548.1" rx="79.02" ry="31.29" transform="matrix(1, -0.04, 0.04, 1, -22.92, 23.31)" fill="#333"/><path d="M526.72,580.54c-30.41,0-56.5-6.92-67.43-18.1-3.7-3.79-5.47-7.88-5.25-12.17.44-8.79,9.27-17.2,24.85-23.7,15.32-6.39,35.44-10.23,56.64-10.83,32.83-.91,61.52,6.15,73.13,18,3.7,3.79,5.47,7.89,5.25,12.18-.44,8.78-9.27,17.2-24.85,23.69-15.32,6.39-35.44,10.24-56.64,10.83C530.5,580.52,528.6,580.54,526.72,580.54ZM541,517.66c-1.8,0-3.61,0-5.43.08-43,1.21-78.71,15.85-79.56,32.63-.18,3.71,1.39,7.3,4.69,10.67,11.06,11.31,39.85,18.32,71.64,17.42,43-1.2,78.71-15.84,79.55-32.62h0c.19-3.71-1.38-7.31-4.68-10.68C596.8,524.5,570.62,517.66,541,517.66Z"/><ellipse cx="534.21" cy="538.97" rx="79.02" ry="31.29" transform="translate(-22.53 23.31) rotate(-2.45)" fill="#666"/><path d="M527,571.41c-30.41,0-56.5-6.93-67.43-18.1-3.7-3.79-5.47-7.89-5.25-12.18.44-8.78,9.27-17.2,24.85-23.69,15.32-6.39,35.44-10.24,56.64-10.83,32.84-.93,61.52,6.15,73.13,18,3.7,3.79,5.47,7.88,5.25,12.17-.44,8.78-9.27,17.2-24.85,23.7-15.32,6.39-35.44,10.23-56.64,10.83C530.74,571.38,528.84,571.41,527,571.41Zm14.3-62.88c-1.8,0-3.61,0-5.43.08-43,1.2-78.71,15.84-79.56,32.62-.18,3.71,1.39,7.31,4.69,10.68,11.06,11.31,39.86,18.33,71.64,17.42,43-1.21,78.71-15.85,79.55-32.63h0c.19-3.71-1.38-7.3-4.68-10.68C597,515.36,570.86,508.53,541.26,508.53Z"/><ellipse cx="372.04" cy="734.75" rx="27.39" ry="45.18" transform="matrix(0.93, -0.35, 0.35, 0.93, -236.51, 179.82)" fill="#333"/><path d="M381.93,779.1A25.05,25.05,0,0,1,370.38,776c-17-8.88-30.2-34.48-29.53-57.08.37-12.28,4.8-21.78,12.15-26.09,5.92-3.46,13.28-3.23,20.71.66,17,8.87,30.2,34.48,29.52,57.08-.36,12.27-4.79,21.78-12.14,26.08A17.93,17.93,0,0,1,381.93,779.1Zm-19.77-86.69a16,16,0,0,0-8.15,2.16c-6.74,3.95-10.81,12.85-11.16,24.41-.65,21.92,12.11,46.7,28.45,55.25,6.8,3.56,13.47,3.81,18.78.71,6.74-4,10.81-12.85,11.15-24.42h0c.66-21.91-12.1-46.7-28.45-55.25A23.09,23.09,0,0,0,362.16,692.41Z"/><ellipse cx="526.42" cy="808.55" rx="27.39" ry="45.18" transform="matrix(0.93, -0.35, 0.35, 0.93, -252.65, 239.4)" fill="#333"/><path d="M536.31,852.9a25.12,25.12,0,0,1-11.56-3.09c-16.95-8.87-30.19-34.48-29.52-57.08.37-12.27,4.79-21.78,12.15-26.09,5.92-3.46,13.27-3.23,20.71.66,16.95,8.87,30.19,34.48,29.52,57.08-.37,12.27-4.79,21.78-12.15,26.09A18,18,0,0,1,536.31,852.9Zm-19.78-86.69a15.94,15.94,0,0,0-8.14,2.16c-6.75,4-10.82,12.85-11.16,24.42-.65,21.91,12.11,46.69,28.45,55.25,6.8,3.55,13.47,3.8,18.77.7,6.75-4,10.82-12.85,11.16-24.42.65-21.91-12.11-46.69-28.45-55.25A23.13,23.13,0,0,0,516.53,766.21Z"/><ellipse cx="526.42" cy="808.55" rx="17.7" ry="29.2" transform="translate(-252.65 239.4) rotate(-20.78)" fill="#e6e6e6"/><path d="M532.81,837.57a16.54,16.54,0,0,1-7.63-2c-11.06-5.79-19.71-22.49-19.27-37.21.24-8.06,3.17-14.31,8-17.15,3.93-2.31,8.81-2.16,13.72.41,11.06,5.79,19.71,22.48,19.27,37.21-.24,8.06-3.17,14.31-8,17.15A11.91,11.91,0,0,1,532.81,837.57Zm-12.78-56a9.89,9.89,0,0,0-5.08,1.34c-4.26,2.49-6.82,8.13-7,15.49-.42,14,7.75,29.91,18.2,35.38,4.28,2.23,8.46,2.4,11.78.46,4.26-2.49,6.82-8.13,7-15.49h0c.42-14-7.74-29.91-18.2-35.38A14.56,14.56,0,0,0,520,781.55Z"/><ellipse cx="372.04" cy="734.75" rx="18.11" ry="29.87" transform="translate(-236.51 179.82) rotate(-20.78)" fill="#e6e6e6"/><path d="M378.58,764.42a16.87,16.87,0,0,1-7.79-2.09c-11.32-5.92-20.16-23-19.71-38.05.25-8.24,3.24-14.62,8.2-17.53,4-2.35,9-2.2,14,.43,11.32,5.92,20.15,23,19.7,38.05l-1,0,1,0c-.24,8.23-3.23,14.62-8.2,17.53A12.22,12.22,0,0,1,378.58,764.42ZM365.51,707.1a10.24,10.24,0,0,0-5.22,1.38c-4.35,2.55-7,8.33-7.21,15.86-.43,14.37,7.93,30.62,18.63,36.22,4.39,2.29,8.68,2.46,12.08.47,4.36-2.55,7-8.33,7.21-15.86.43-14.37-7.92-30.62-18.62-36.22A15,15,0,0,0,365.51,707.1Z"/><polygon points="635.33 777.92 574.28 651.67 751.4 571.05 814.14 692.23 635.33 777.92" fill="#b3b3b3"/><path d="M635.33,778.92a1,1,0,0,1-.9-.57l-61-126.24a1,1,0,0,1,0-.78,1,1,0,0,1,.53-.57L751,570.14a1,1,0,0,1,1.31.45L815,691.77a1,1,0,0,1,.06.77,1,1,0,0,1-.52.59L635.76,778.82A.94.94,0,0,1,635.33,778.92Zm-59.7-126.76L635.8,776.59l177-84.82L751,572.36Z"/><path d="M757.55,608.56a9.43,9.43,0,0,0-12.23-4.28L607.56,667.64a8.92,8.92,0,0,0-4.34,11.9l28.46,60.24a8.94,8.94,0,0,0,12,4.23l138.46-66.74a8.84,8.84,0,0,0,4.06-11.95Z" fill="#2fbae6"/><path d="M639.77,745.9a10,10,0,0,1-9-5.69L602.32,680a9.92,9.92,0,0,1,4.82-13.24L744.9,603.37a10.42,10.42,0,0,1,13.54,4.74L787,664.87a9.83,9.83,0,0,1-4.51,13.3L644.07,744.91A9.84,9.84,0,0,1,639.77,745.9ZM749.16,604.44a8.12,8.12,0,0,0-3.42.75L608,668.55a7.91,7.91,0,0,0-3.84,10.56l28.46,60.24a7.93,7.93,0,0,0,10.61,3.76l138.46-66.74a7.86,7.86,0,0,0,3.6-10.6L756.65,609A8.38,8.38,0,0,0,749.16,604.44Z"/><path d="M764.47,622.3l-7.1-14.09a9,9,0,0,0-11.69-4.09l-45.74,21c-10.44,17.59-6.7,42.06-11.45,62.62-6.41,28.5-31.93,41.07-57.58,50.37l.94,2a8.54,8.54,0,0,0,11.43,4L750.4,692.54c3.5-19.67,1.91-40.43,6.94-61.19A17.6,17.6,0,0,1,764.47,622.3Z" fill="#fff"/><path d="M639.59,745.53a9.07,9.07,0,0,1-3-.52,8.94,8.94,0,0,1-5.16-4.66l-.94-2a.46.46,0,0,1,0-.41.47.47,0,0,1,.29-.28c26-9.44,51-22,57.27-50,1.76-7.65,2.36-16,2.93-24.06,1-13.56,2-27.59,8.57-38.7a.5.5,0,0,1,.23-.2l45.73-21A9.5,9.5,0,0,1,757.82,608l7.1,14.09a.51.51,0,0,1-.18.65,17,17,0,0,0-6.92,8.78c-2.81,11.6-3.55,23.34-4.27,34.71-.58,9.14-1.12,17.78-2.66,26.42a.48.48,0,0,1-.27.36L643.49,744.63A8.94,8.94,0,0,1,639.59,745.53Zm-8-7.11.71,1.5a8.06,8.06,0,0,0,10.76,3.81L750,692.2c1.5-8.5,2-17,2.6-26.06.72-11.4,1.47-23.2,4.31-34.91a18,18,0,0,1,7-9.11l-6.9-13.69a8.48,8.48,0,0,0-11-3.86l-45.6,21c-6.4,10.89-7.39,24.74-8.35,38.13-.58,8.11-1.18,16.49-3,24.21C682.62,716.14,657.7,728.91,631.59,738.42Z"/><polygon points="632.99 856.73 811.86 771.16 814.14 692.23 635.34 777.91 632.99 856.73" fill="#b3b3b3"/><path d="M633,857.73a1.1,1.1,0,0,1-.55-.16,1,1,0,0,1-.45-.87l2.35-78.82a1,1,0,0,1,.56-.87l178.81-85.69a1,1,0,0,1,1,.07,1,1,0,0,1,.45.86l-2.28,78.94a1,1,0,0,1-.57.87L633.42,857.63A1,1,0,0,1,633,857.73Zm3.33-79.18L634,855.12l176.84-84.6,2.21-76.68Z"/><path d="M781.94,727c6.25-3,11.21-.22,11,6.22l-.26,8.91c-.19,6.44-5.44,14.22-11.65,17.3L668.73,815c-6.21,3.07-11.14.32-11-6.11l.32-10.58c.19-6.44,5.46-14.17,11.71-17.19Z" fill="#e6e6e6"/><path d="M663.92,817.23a7.06,7.06,0,0,1-3.89-1.07c-2.19-1.41-3.35-4-3.25-7.32l.31-10.58c.21-6.79,5.72-14.89,12.29-18.06L781.5,726.13c3.46-1.67,6.82-1.75,9.2-.2,2.2,1.43,3.35,4,3.25,7.35l-.26,8.91c-.2,6.79-5.68,14.93-12.21,18.16l-112.3,55.53A12,12,0,0,1,663.92,817.23ZM786.7,726.82a10.1,10.1,0,0,0-4.33,1.11h0L670.24,782c-5.86,2.83-11,10.3-11.15,16.32l-.31,10.58c-.08,2.58.75,4.56,2.33,5.58,1.76,1.13,4.38,1,7.18-.4l112.3-55.52c5.84-2.89,10.92-10.41,11.1-16.42l.26-8.92c.08-2.59-.75-4.58-2.34-5.61A5.29,5.29,0,0,0,786.7,726.82Zm-4.76.21h0Z"/><path d="M536.13,748.14c-.09,3.22-2.62,4.65-5.62,3.17l-28.45-14a10.11,10.11,0,0,1-5.27-8.53l.09-3.2c.1-3.21,2.63-4.64,5.62-3.17l28.46,14a10.13,10.13,0,0,1,5.27,8.53Z" fill="#2fbae6"/><path d="M536.13,748.14c-.09,3.22-2.62,4.65-5.62,3.17l-28.45-14a10.11,10.11,0,0,1-5.27-8.53l.09-3.2c.1-3.21,2.63-4.64,5.62-3.17l28.46,14a10.13,10.13,0,0,1,5.27,8.53Z" fill="#b3b3b3"/><path d="M532.79,752.89a6.24,6.24,0,0,1-2.72-.68l-28.45-14a11.19,11.19,0,0,1-5.83-9.46l.09-3.2A4.76,4.76,0,0,1,498,721.4a5.1,5.1,0,0,1,4.92.1l28.46,14a11.21,11.21,0,0,1,5.83,9.46l-.1,3.19A4.72,4.72,0,0,1,535,752.3,4.27,4.27,0,0,1,532.79,752.89Zm-32.55-30.08a2.22,2.22,0,0,0-1.19.31,2.84,2.84,0,0,0-1.17,2.47l-.09,3.2a9.14,9.14,0,0,0,4.71,7.6l28.46,14a3.14,3.14,0,0,0,3,.18,2.84,2.84,0,0,0,1.16-2.48h0l.1-3.19a9.18,9.18,0,0,0-4.71-7.61l-28.46-14A4.19,4.19,0,0,0,500.24,722.81Z"/><g opacity="0.8"><circle cx="527.32" cy="418.28" r="143.07" fill="#2fbae6"/><path d="M527.3,562.35a144.08,144.08,0,0,1-.73-288.15h.77a144.08,144.08,0,0,1,.72,288.15Zm-.72-286.15a142.08,142.08,0,0,0,.72,284.15h.75a142.08,142.08,0,0,0-.71-284.15Z"/></g><path d="M639.48,418.86c1.13,45.31-49.57,98.55-101.42,100.18-44.82,1.41-92.76-14.52-103-50.93-1.61-5.72,7.23-22,7.08-28.17-1.14-45.32,40-83.38,91.84-85,38.89-1.22,72.77,18.39,87.76,47.39C626.71,412,639.19,407.53,639.48,418.86Z" fill="#fff"/><path d="M532.63,520.13c-42.65,0-88.39-15.68-98.56-51.75-1-3.48,1.38-10,3.67-16.35,1.69-4.67,3.43-9.51,3.37-12.06-1.15-45.8,40.48-84.39,92.8-86,38.2-1.22,73,17.61,88.69,47.93,2.09,4.05,5.63,5.43,9.06,6.75,4.25,1.66,8.64,3.36,8.82,10.22h0c.54,21.87-11.09,47-31.13,67.2-20.66,20.84-46.64,33.23-71.26,34Q535.38,520.13,532.63,520.13Zm4.74-164.25c-1.13,0-2.26,0-3.39.05-51.23,1.61-92,39.29-90.87,84,.07,2.93-1.66,7.72-3.49,12.79-2.08,5.75-4.43,12.27-3.63,15.13,7.44,26.35,41.87,52.07,102,50.2,24.12-.76,49.6-12.94,69.91-33.41,19.66-19.83,31.08-44.41,30.55-65.75h0c-.14-5.53-3.41-6.79-7.55-8.4-3.59-1.4-7.67-3-10.11-7.7C606,374,573.46,355.88,537.37,355.88Z"/><path d="M523.25,365c4,17.85,6,48.58,30.73,41.64,17.48-4.51,30.79-20.24,45.4-31-17.21-13.56-40.27-21.5-65.43-20.71a108.57,108.57,0,0,0-15.68,1.64A12.81,12.81,0,0,1,523.25,365Z" fill="#ffdc49"/><path d="M547.31,408.6a16.52,16.52,0,0,1-8.88-2.42c-9.39-5.82-12.32-21.22-14.67-33.6-.5-2.63-1-5.11-1.48-7.4a.09.09,0,0,1,0-.05,11.85,11.85,0,0,0-4.61-7.76,1,1,0,0,1,.43-1.78,110.66,110.66,0,0,1,15.82-1.66c24.52-.78,48,6.66,66.09,20.92a1,1,0,0,1,0,1.59c-4.24,3.12-8.47,6.74-12.57,10.25-10.12,8.67-20.58,17.63-33.17,20.88A25.86,25.86,0,0,1,547.31,408.6Zm-23.08-43.83c.52,2.31,1,4.8,1.49,7.44,2.28,12,5.12,26.92,13.76,32.27,3.84,2.39,8.5,2.76,14.23,1.16,12.16-3.14,22.45-11.95,32.39-20.47,3.78-3.24,7.69-6.58,11.63-9.55-17.59-13.45-40.18-20.42-63.75-19.69a106.9,106.9,0,0,0-13.49,1.28A14,14,0,0,1,524.23,364.77Z"/><path d="M497.48,463.11a19.2,19.2,0,0,0-13.88-15.86c-12.76-3.33-28.94.17-43-.45-2.41,7.38-6.77,17.15-5.6,21.31,5.39,19.1,21.15,32.56,41.39,40.84C490.84,499.26,500.12,481.63,497.48,463.11Z" fill="#ffdc49"/><path d="M476.42,510a1,1,0,0,1-.38-.07c-22.38-9.16-36.9-23.51-42-41.5-1-3.48,1.38-10,3.66-16.35.71-1.95,1.38-3.79,1.94-5.54a1,1,0,0,1,1-.69,158.09,158.09,0,0,0,16.33-.46c9.21-.58,18.73-1.18,26.85.94A20.09,20.09,0,0,1,498.47,463c2.56,17.95-5.88,36.32-21.49,46.81A1,1,0,0,1,476.42,510Zm-35.08-62.12c-.52,1.56-1.11,3.18-1.72,4.88-2.08,5.75-4.43,12.27-3.63,15.13,4.87,17.24,18.8,31.05,40.31,40,14.71-10.11,22.62-27.55,20.19-44.57v0a18.1,18.1,0,0,0-13.17-15c-7.79-2-17.15-1.45-26.2-.88C451.87,447.66,446.45,448,441.34,447.83Z"/><path d="M548.58,444.07c-.9,1.85-11.65-.51-21-.22s-16.46,8.22-17.91-.18c-1.34-7.71,8.94-8.18,18.27-8.48S549.61,442,548.58,444.07Z" fill="#ffaf49"/><path d="M513.06,448.52a4,4,0,0,1-2-.51c-1.19-.68-1.94-2.05-2.31-4.16a6.38,6.38,0,0,1,1.19-5.35c3.13-3.84,11.4-4.1,18-4.31,8.51-.3,19.36,5.37,21.29,8.36a1.89,1.89,0,0,1,.26,2h0c-.78,1.61-3.65,1.43-10.05.88a105.31,105.31,0,0,0-11.8-.54,28.64,28.64,0,0,0-9,2.2A17.85,17.85,0,0,1,513.06,448.52Zm15.48-12.34H528c-6.23.2-14,.44-16.55,3.58a4.42,4.42,0,0,0-.77,3.73c.26,1.48.71,2.41,1.34,2.78,1.14.66,3.36-.16,5.92-1.1a30.51,30.51,0,0,1,9.64-2.33,104.1,104.1,0,0,1,12,.55c3.09.27,6.88.59,8,.23C546.5,441.73,536.69,436.18,528.54,436.18Z"/><path d="M570.44,438.78c1.69,1.07,9.66-6.9,17.74-11.82s18.1-2.14,15.16-10.08c-2.7-7.31-11.69-2-19.77,2.91S568.52,437.56,570.44,438.78Z" fill="#ffaf49"/><path d="M570.82,439.89a1.65,1.65,0,0,1-.92-.27,1.84,1.84,0,0,1-.78-1.71c0-3.57,6.36-14.37,13.93-19,7.36-4.48,13.32-7.78,17.58-6.3a6.06,6.06,0,0,1,3.65,3.9c.74,2,.78,3.56.12,4.78-1.09,2-3.79,2.65-6.93,3.38a28.77,28.77,0,0,0-8.77,3.12,108.77,108.77,0,0,0-9.77,7C574.6,438.18,572.32,439.89,570.82,439.89Zm27.61-25.61c-3.89,0-9.84,3.62-14.34,6.36-7.29,4.44-13,14.79-13,17.19,1.16-.37,4.15-2.69,6.61-4.59a108.77,108.77,0,0,1,9.95-7.14,31.26,31.26,0,0,1,9.36-3.36c2.66-.62,5-1.16,5.62-2.37.37-.69.29-1.72-.24-3.15a4.07,4.07,0,0,0-2.43-2.7A4.69,4.69,0,0,0,598.43,414.28Z"/><path d="M595.78,339.8c8.72,3.55,22.81,23.74,16.65,44.15s-13.32,3.21-28.15-3.26-36.52-2.14-25.54-20.19C569.41,343,585.32,335.56,595.78,339.8Z" fill="#ffaf49"/><path d="M605.29,394.63c-2.91,0-6-2.44-9.75-5.41-3.34-2.64-7.13-5.64-11.66-7.62-4.3-1.87-9.34-2.85-13.79-3.71-7-1.35-13-2.51-14.8-6.64-1.22-2.76-.4-6.34,2.6-11.27,10.19-16.75,26.65-25.82,38.27-21.1,9.46,3.84,23.53,24.49,17.23,45.36-1.86,6.18-3.9,9.32-6.6,10.16A4.79,4.79,0,0,1,605.29,394.63Zm-15.95-55.06c-10.89,0-22.82,10.08-29.74,21.45-2.59,4.26-3.4,7.34-2.48,9.42,1.4,3.18,6.94,4.25,13.35,5.49,4.55.88,9.71,1.87,14.21,3.84,4.77,2.08,8.66,5.16,12.1,7.88,3.94,3.12,7.06,5.59,9.41,4.84,1.95-.61,3.68-3.5,5.29-8.83,6.09-20.18-8.17-39.72-16.07-42.93h0A16.13,16.13,0,0,0,589.34,339.57Z"/><g style="mix-blend-mode:multiply"><path d="M592.83,374.88c-5.41-2.36-11.07-3.46-16.06-4.42l-1.83-.36a1.82,1.82,0,0,1-1.05-2.83c7-9.81,15.61-14.42,21.06-13.87a6,6,0,0,1,1.73.41c3.3,1.34,12.77,13.16,11.58,26.24a2.53,2.53,0,0,1-4,1.93A70.84,70.84,0,0,0,592.83,374.88Z" fill="#ffdc49"/><path d="M605.72,383.46a3.45,3.45,0,0,1-2-.67,69.13,69.13,0,0,0-11.26-7h0c-5.3-2.31-10.9-3.39-15.84-4.35l-1.84-.36a2.73,2.73,0,0,1-2-1.68,2.85,2.85,0,0,1,.31-2.71c7.55-10.64,16.49-14.83,22-14.29a7.69,7.69,0,0,1,2,.48c4.08,1.66,13.37,14.32,12.19,27.26a3.6,3.6,0,0,1-2.11,3A3.4,3.4,0,0,1,605.72,383.46ZM593.23,374a71,71,0,0,1,11.64,7.22,1.43,1.43,0,0,0,1.45.15,1.63,1.63,0,0,0,.94-1.37c1.16-12.74-8.22-24.11-11-25.23a5.69,5.69,0,0,0-1.46-.34c-4.78-.49-13.11,3.53-20.14,13.45a.86.86,0,0,0-.09.82.74.74,0,0,0,.52.46l1.82.36c5,1,10.77,2.08,16.27,4.48Z"/></g><path d="M564.4,471.7c-3.28.92-9.12-.22-9.75-8s5.14-4.48,10.78-5.92,10.87-7.44,9.63.73C573.86,466.44,568.34,470.59,564.4,471.7Z" fill="#333"/><path d="M562.36,473a8.54,8.54,0,0,1-4.85-1.47c-1.56-1.09-3.5-3.31-3.86-7.71-.2-2.41.17-4,1.14-5.09,1.34-1.45,3.46-1.46,5.72-1.47a18.58,18.58,0,0,0,4.67-.41,23.08,23.08,0,0,0,4.68-2c2.26-1.16,4-2.08,5.36-1.14,1,.73,1.25,2.21.83,5-1.18,7.79-6.56,12.64-11.38,14h0A8.55,8.55,0,0,1,562.36,473Zm2-1.27h0Zm9.51-16.4a12.51,12.51,0,0,0-3.14,1.32,25.19,25.19,0,0,1-5.1,2.14,20.44,20.44,0,0,1-5.15.47c-1.89,0-3.51,0-4.26.83-.55.6-.76,1.8-.62,3.57.24,2.91,1.25,5,3,6.22a6.69,6.69,0,0,0,5.48.89h0c3.13-.89,8.75-4.49,9.94-12.37.4-2.63,0-3,0-3A.29.29,0,0,0,573.91,455.3Z"/><path d="M449.39,366.45c7.5-7.39,30.95-3,46.53,15.41s-6.12,20.91-19.29,33.22S462.6,450,447,431.58,440.39,375.32,449.39,366.45Z" fill="#ffaf49"/><path d="M457,439.52c-3.07,0-6.49-2.33-10.7-7.29C436.76,421,437,404.31,438,395.34c1.39-12.58,5.79-24.76,10.7-29.6h0c2.65-2.61,7.13-3.91,12.63-3.66,9.18.41,23.95,5.67,35.37,19.13,4.32,5.1,6.13,9.4,5.54,13.16-.88,5.49-6.52,9-13.05,13a72.78,72.78,0,0,0-11.87,8.46c-4.12,3.85-7,8.76-9.58,13.09-3.25,5.5-6.05,10.24-10.27,10.6Zm-6.86-72.35c-8.41,8.29-17.82,45.48-2.31,63.77,3.93,4.62,7,6.77,9.51,6.57,3.19-.28,5.75-4.61,8.71-9.62,2.64-4.45,5.62-9.5,9.95-13.54a75.2,75.2,0,0,1,12.18-8.7c6.11-3.76,11.39-7,12.12-11.59.5-3.15-1.16-6.93-5.09-11.56-11-13-25.15-18-33.93-18.42-4.93-.23-8.89.87-11.14,3.09Z"/><g style="mix-blend-mode:multiply"><path d="M461.78,423a1.58,1.58,0,0,1-2.58.24h0c-9-10.63-5.47-32.65-1.1-42.71a7.89,7.89,0,0,1,7.91-4.88h.1c6.39.64,16.7,4.75,24.73,14.22.6.71,1.07,1.31,1.43,1.83a1.72,1.72,0,0,1-.36,2.38c-1.61,1.19-3.86,2.58-5.56,3.62a78.31,78.31,0,0,0-12.83,9.23c-5,4.68-8.3,10.25-10.95,14.73C462.32,422.08,462.06,422.53,461.78,423Z" fill="#ffdc49"/><path d="M460.39,424.8a2.56,2.56,0,0,1-2-.92c-9.46-11.16-5.48-34-1.25-43.76a8.87,8.87,0,0,1,8.93-5.48c6.67.67,17.27,4.88,25.5,14.59.56.67,1.06,1.3,1.48,1.89a2.74,2.74,0,0,1-.59,3.77c-1.64,1.21-3.94,2.62-5.62,3.66a76.75,76.75,0,0,0-12.67,9.11c-4.91,4.58-8.16,10.08-10.78,14.51l-.79,1.34h0a2.62,2.62,0,0,1-2,1.28Zm5-48.19a7,7,0,0,0-6.35,4.3c-4.06,9.36-8,31.19.94,41.67a.53.53,0,0,0,.48.21.6.6,0,0,0,.48-.31h0c.28-.46.54-.91.79-1.33,2.68-4.53,6-10.17,11.13-15a79.22,79.22,0,0,1,13-9.34c1.66-1,3.92-2.41,5.5-3.57a.73.73,0,0,0,.13-1,22,22,0,0,0-1.37-1.76c-7.84-9.25-17.87-13.26-24.07-13.88Z"/></g><path d="M548.68,494.08c-6.46,0-11.15-4.5-11.37-4.72a1,1,0,0,1,1.39-1.43c.06.05,5.41,5.17,12,4,5.55-1,10.5-6,14.71-14.76a1,1,0,0,1,1.8.86c-4.51,9.43-10,14.77-16.17,15.87A13.5,13.5,0,0,1,548.68,494.08Z"/><path d="M575.88,484c-5.91,0-9.79-5.45-10-5.69a1,1,0,0,1,.24-1.39,1,1,0,0,1,1.4.24c0,.05,3.77,5.28,9,4.81,4.69-.39,9.44-5.34,13.73-14.29a1,1,0,1,1,1.8.86c-4.68,9.78-9.85,15-15.38,15.43Z"/><path d="M527.53,469h-.14c-16.43-2.3-33.42-4.68-50.17-2.67a1,1,0,1,1-.23-2c17-2.05,34.12.35,50.68,2.67a1,1,0,0,1-.14,2Z"/><path d="M476.34,490.69a1,1,0,0,1-.42-1.9c15.69-7.23,32.74-10.26,49.23-13.18a1,1,0,0,1,.35,2c-16.37,2.9-33.29,5.9-48.74,13A1.06,1.06,0,0,1,476.34,490.69Z"/><path d="M499.47,498.58a1,1,0,0,1-.5-1.87c9.66-5.58,19.89-10.13,29.79-14.53a1,1,0,1,1,.81,1.82c-9.85,4.38-20,8.91-29.6,14.44A1,1,0,0,1,499.47,498.58Z"/><path d="M592.57,448.38a1,1,0,0,1-.58-1.82c13.84-9.87,28.15-20.08,44.24-26.26a1,1,0,1,1,.71,1.87c-15.84,6.08-30.05,16.22-43.79,26A1,1,0,0,1,592.57,448.38Z"/><path d="M598.18,455.05a1,1,0,0,1-.31-1.95c16-5.15,32.54-10.48,49.62-11.39a1,1,0,0,1,.11,2c-16.83.9-33.24,6.18-49.12,11.29A1,1,0,0,1,598.18,455.05Z"/><path d="M597.47,462.67a1,1,0,0,1-1-.93,1,1,0,0,1,.93-1.07c10.71-.72,21.79-1.46,32.8-1a1,1,0,0,1,.95,1,1,1,0,0,1-1,.95c-10.89-.44-21.92.3-32.58,1Z"/><path d="M437.17,403c5.36,2.2,8.78-3.25,8.94-7.24-1.21-28.78,12.46-50.57,30.84-70.56,4.59-5-7.2-9.48-12.52-6.1-23.1,18.2-40.63,46.61-35.43,75.71C430.72,398.77,433.63,401.91,437.17,403Z" fill="#fff"/><path d="M439.57,404a6.76,6.76,0,0,1-2.57-.53c-3.52-1.06-6.6-4.14-8.46-8.47l0-.11c-5.56-31.09,14.75-59.74,35.61-76.19,3.94-2.49,11-1,13.46,1.92a3.47,3.47,0,0,1-.26,4.92c-15.92,17.31-32,39.19-30.71,70.2a9.58,9.58,0,0,1-3.9,7.33A5.75,5.75,0,0,1,439.57,404Zm-10.08-9.34c1.74,4,4.59,6.9,7.82,7.86l.05,0a5,5,0,0,0,4.81-.31,8.51,8.51,0,0,0,3.44-6.49c-1.33-31.51,15.85-54.44,31-70.88a2.45,2.45,0,0,0,.24-3.59c-2.16-2.58-8.67-3.94-12.12-1.75C444.12,335.7,424,364,429.49,394.62Z"/><ellipse cx="494.16" cy="309.45" rx="8.36" ry="5.3" transform="translate(-81.3 215.64) rotate(-22.8)" fill="#fff"/><path d="M491.58,315.81a8.46,8.46,0,0,1-2.33-.31,4.61,4.61,0,0,1-3.4-3,5.66,5.66,0,0,1,1.53-5.2c2.74-3.2,8-5,11.68-3.91a4.62,4.62,0,0,1,3.41,3,5.68,5.68,0,0,1-1.53,5.2A13,13,0,0,1,491.58,315.81Zm5.12-11.73a11.94,11.94,0,0,0-8.56,3.87,4.67,4.67,0,0,0-1.33,4.26,3.66,3.66,0,0,0,2.72,2.33c3.36,1,8.14-.67,10.65-3.6h0a4.7,4.7,0,0,0,1.33-4.26,3.68,3.68,0,0,0-2.72-2.33A7.87,7.87,0,0,0,496.7,304.08Z"/><g opacity="0.8" style="mix-blend-mode:multiply"><path d="M528.06,561.35a142.32,142.32,0,0,0,83.74-27.61c-76.74-2.33-157-34.43-186.09-112.27-14-37.76-10.15-80.09,10.58-113.55a143.06,143.06,0,0,0,91.77,253.43Z" fill="#2fbae6"/><path d="M527.3,562.35a144.05,144.05,0,0,1-91.64-255.2l4.69-3.87-3.21,5.17c-20.45,33-24.38,75.13-10.5,112.68,13.5,36.12,38.64,64.36,74.72,83.91,31.13,16.88,69.33,26.46,110.47,27.7l2.91.09-2.35,1.72a143,143,0,0,1-84.33,27.8v0ZM432.39,312.6A142.06,142.06,0,0,0,527.3,560.35h.75a141,141,0,0,0,80.79-25.71C568.5,533,531.06,523.42,500.4,506.8c-36.51-19.79-62-48.38-75.63-85C411.39,385.65,414.3,345.28,432.39,312.6Z"/></g><path d="M1504.28,804.33c-26.65,26.28-117.79,39.86-181.77,32.3-48.51-5.73-65.48-22.44-47.81-38.25,17.43-15.6,68.09-29.9,124.28-32.67C1472.48,762.1,1530.33,778.64,1504.28,804.33Z"/><g opacity="0.8"><circle cx="1320.81" cy="713.49" r="119.97" fill="#2fbae6"/><path d="M1320.81,834.47a121,121,0,1,1,121-121A121.11,121.11,0,0,1,1320.81,834.47Zm0-240a119,119,0,1,0,119,119A119.11,119.11,0,0,0,1320.81,594.52Z"/></g><path d="M1369.35,776.06c-12.27,18.77-44.74,27.1-72.52,18.61s-40.37-30.57-28.1-49.33,29.16-47.66,56.94-39.17S1381.61,757.3,1369.35,776.06Z"/><path d="M1319.4,799a78.64,78.64,0,0,1-22.87-3.34c-16-4.89-27.62-14.37-31.84-26-3-8.38-1.93-17,3.2-24.81l2-3c12.27-18.92,29.06-44.82,56.11-36.56,19.69,6,38.12,28,44.57,45.8,3.82,10.54,3.7,19.4-.36,25.6C1361,790.65,1340.7,799,1319.4,799ZM1316,705.66c-20.31,0-34,21.18-44.43,37.19l-2,3c-4.78,7.31-5.82,15.27-3,23,4,11.05,15.14,20.08,30.55,24.79,27.34,8.34,59.37.18,71.39-18.2h0c3.64-5.58,3.7-14,.15-23.83-6.28-17.33-24.19-38.74-43.28-44.57A32.22,32.22,0,0,0,1316,705.66Z"/><path d="M1343.5,716c-8.55,16.58-27.9,26.34-44.69,19.81a65.67,65.67,0,0,1-17.45-9c-4.75,6.23-8.91,12.86-12.63,18.55-12.27,18.76.31,40.85,28.1,49.33s60.25.16,72.52-18.61C1378.93,761.4,1363.82,732.14,1343.5,716Z" fill="#2f73c5"/><path d="M1319.4,799a78.64,78.64,0,0,1-22.87-3.34c-16-4.89-27.62-14.37-31.84-26-3-8.38-1.93-17,3.2-24.81l1.95-3c3.17-4.89,6.76-10.43,10.72-15.62l.59-.78.79.57a64.2,64.2,0,0,0,17.18,8.89c15.68,6.09,34.76-2.4,43.49-19.32l.56-1.08.95.75c20.58,16.33,36.09,46,26.06,61.39C1361,790.65,1340.7,799,1319.4,799Zm-37.83-70.8c-3.69,4.91-7.06,10.11-10,14.72l-2,3c-4.78,7.31-5.82,15.27-3,23,4,11.05,15.14,20.08,30.55,24.79,27.34,8.34,59.37.18,71.39-18.2,9.16-14-5.65-42.33-24.7-58-9.43,17.09-29.13,25.51-45.36,19.2A65.76,65.76,0,0,1,1281.57,728.17Z"/><circle cx="1320.93" cy="690.03" r="36.33" fill="#2f73c5"/><path d="M1320.91,727.36a37.47,37.47,0,1,1,1.69,0C1322,727.34,1321.47,727.36,1320.91,727.36Zm0-72.66-1.59,0a35.45,35.45,0,1,0,1.59,0Z"/><path d="M1234.41,718c5.45,1.79,8.45-3.82,8.33-7.76-3.17-28.34,8.83-50.79,25.6-71.8,4.19-5.25-7.75-8.86-12.78-5.17-21.55,19.57-36.91,48.83-29.77,77.2C1227.76,714.3,1230.85,717.2,1234.41,718Z" fill="#fff"/><path d="M1236.44,718.84a7,7,0,0,1-2.16-.36c-3.55-.81-6.81-3.64-8.94-7.79a1,1,0,0,1,0-.1c-7.63-30.33,10.46-60,29.92-77.69,3.73-2.74,10.83-1.74,13.44,1a3.43,3.43,0,0,1,.07,4.88c-14.52,18.19-28.91,40.9-25.49,71.43a9.48,9.48,0,0,1-3.35,7.51A5.72,5.72,0,0,1,1236.44,718.84Zm-10.18-8.55c2,3.86,5,6.49,8.26,7.22h0a4.91,4.91,0,0,0,4.72-.64,8.41,8.41,0,0,0,3-6.63c-3.48-31,11.9-54.85,25.7-72.12a2.43,2.43,0,0,0,0-3.56c-2.3-2.4-8.82-3.29-12.08-.89C1236.65,651.11,1218.77,680.41,1226.26,710.29Z"/><ellipse cx="1284.26" cy="621.74" rx="8.28" ry="5.25" transform="translate(-142.39 645.33) rotate(-26.78)" fill="#fff"/><path d="M1281.48,628.23a8.1,8.1,0,0,1-1.65-.17,4.55,4.55,0,0,1-3.57-2.73,5.59,5.59,0,0,1,1.15-5.24c2.49-3.36,7.54-5.45,11.27-4.67a4.55,4.55,0,0,1,3.57,2.73,5.59,5.59,0,0,1-1.15,5.24h0A12.82,12.82,0,0,1,1281.48,628.23Zm5.51-12a11.68,11.68,0,0,0-8.78,4.44,4.65,4.65,0,0,0-1,4.29,3.63,3.63,0,0,0,2.84,2.1c3.39.71,8-1.21,10.27-4.29a4.65,4.65,0,0,0,1-4.29,3.63,3.63,0,0,0-2.84-2.1A7.31,7.31,0,0,0,1287,616.25Zm3.71,6.84h0Z"/><g opacity="0.8" style="mix-blend-mode:multiply"><path d="M1433.87,691.19c-16.25,36.56-43.67,73.12-85.3,82.26-59.92,13.2-123.89-15.24-136.08-79.21-2.64-11.11-1.43-21.94.19-32.79a120,120,0,1,0,224.41,22.38C1436,686.33,1435,688.79,1433.87,691.19Z" fill="#2fbae6"/><path d="M1320.81,834.47a121,121,0,0,1-109-173.45l2.87-5.95-1,6.53c-1.55,10.34-2.84,21.35-.21,32.41,5.09,26.7,19.51,48.52,41.7,63.15,25.9,17.07,59.86,22.65,93.19,15.31,24.42-5.36,58.91-23.88,84.61-81.69h0c1.09-2.43,2.17-4.89,3.2-7.34l1.16-2.74.73,2.89a121.06,121.06,0,0,1-117.24,150.88ZM1210.75,668.24a117.77,117.77,0,0,0-8.91,45.25,119,119,0,1,0,235-26.49c-.67,1.54-1.35,3.08-2,4.6-26,58.56-61.13,77.36-86,82.82-33.86,7.46-68.38,1.78-94.72-15.59-22.66-14.93-37.37-37.21-42.55-64.41C1209.39,685.53,1209.74,676.71,1210.75,668.24Z"/></g></g></svg>