<svg xmlns="http://www.w3.org/2000/svg" width="156" height="65" fill="none" viewBox="0 0 156 65">
  <path fill="#191A1B" d="M37.856 24.615c-.047.633-.175 1.113-.387 1.441a5.66 5.66 0 01-.632.844c-.211.258-.434.55-.668.879-.211.328-.375.82-.492 1.477-.774.304-1.336.668-1.688 1.09a16.15 16.15 0 00-.914 1.124 2.413 2.413 0 01-.879.809c-.328.188-.879.223-1.652.105a3.007 3.007 0 00-.387-.386 3.36 3.36 0 00-.422-.352c-.187.492-.433.82-.738.985a3.062 3.062 0 01-.95.351 9.879 9.879 0 00-1.09.211c-.374.094-.738.328-1.089.703-.89-.117-1.605-.316-2.145-.598-.515-.28-.925-.585-1.23-.913a5.261 5.261 0 01-.738-1.09c-.164-.399-.34-.774-.528-1.125a3.99 3.99 0 00-.703-.95c-.258-.304-.644-.539-1.16-.703-.234-.07-.434-.082-.598-.035a.987.987 0 00-.386.246 3.346 3.346 0 00-.352.422c-.094.14-.21.27-.351.387l-.387-.387c-.211.563-.527 1.008-.95 1.336-.398.305-.867.54-1.406.703a8.996 8.996 0 01-1.652.281c-.563.024-1.101.036-1.617.036-.258.562-.574.984-.95 1.265a4.011 4.011 0 01-1.265.633c-.445.14-.914.246-1.406.316-.492.07-.996.176-1.512.317a1.456 1.456 0 00-.703.035c-.234.07-.48.14-.738.21-.235.095-.48.165-.739.212-.234.047-.433.023-.597-.07-.211-.118-.317-.258-.317-.422a.7.7 0 00-.175-.457h-.07c-.493-.047-.891-.2-1.196-.457a3.994 3.994 0 01-.774-.985 7.114 7.114 0 01-.597-1.195 19.26 19.26 0 00-.492-1.16c0-.516-.024-1.078-.07-1.688a9.938 9.938 0 01-.036-1.863 6.017 6.017 0 01.387-1.758c.21-.539.562-.973 1.055-1.3l.105-.07-.387-.317c.305-.258.492-.504.563-.739.047-.257.058-.562.035-.914.164-.258.352-.48.562-.668.188-.21.387-.41.598-.597a16.977 16.977 0 001.582-1.899c.469-.656.703-1.43.703-2.32 0-.117-.011-.223-.035-.316v-.317a2.79 2.79 0 00.914-.457c.305-.234.598-.457.88-.668.28-.234.573-.422.878-.562.305-.141.621-.176.95-.106a7.047 7.047 0 00-.141-.387 1.032 1.032 0 01-.07-.386c0-.399.14-.75.421-1.055l.809-.809c.187-.187.398-.41.633-.668.234-.28.41-.48.527-.597l-.211-.211c.351-.024.61-.129.773-.317.164-.21.317-.421.457-.632.165-.211.34-.399.528-.563.187-.187.468-.281.843-.281h.106a2.79 2.79 0 01.844-.984c.375-.305.761-.598 1.16-.88.422-.28.832-.574 1.23-.878.399-.305.703-.68.914-1.125.352-.117.657-.27.915-.457.257-.211.503-.399.738-.563a5.73 5.73 0 01.808-.492c.305-.14.668-.223 1.09-.246l.457-.457c.188-.188.34-.281.457-.281.117 0 .188.046.211.14l.14.211c.141-.117.329-.152.563-.105.258.023.516.093.774.21.258.118.504.247.738.387.234.141.422.246.563.317.585 1.453.656 2.941.21 4.465-.117 0-.246.011-.386.035h-.422c0-.094.058-.2.176-.317l.246-.246a1.49 1.49 0 01-.633-.562c-.14-.258-.27-.504-.387-.739a2.252 2.252 0 00-.457-.667c-.164-.211-.433-.34-.808-.387a2.206 2.206 0 00-1.442.281 7.44 7.44 0 00-1.23.809c-.375.28-.727.55-1.055.808-.328.235-.645.328-.95.281-.14.282-.304.516-.491.704l-.493.562a2.75 2.75 0 00-.351.633c-.07.234-.059.539.035.914-.844.797-1.71 1.57-2.601 2.32a18.549 18.549 0 00-2.426 2.461l-.387-.386a.7.7 0 01-.176.457 5.488 5.488 0 00-.281.386c-.094.14-.176.305-.246.492a.946.946 0 00.035.563 2.13 2.13 0 00-.492.422 4.48 4.48 0 00-.352.492c-.14.211-.293.41-.457.598-.14.164-.328.328-.562.492l-.035.035c.023.234.035.457.035.668v.703a6.045 6.045 0 01-.95 1.125c-.374.352-.738.715-1.09 1.09a7.583 7.583 0 00-.949 1.16c-.257.422-.41.89-.457 1.406-.398.141-.68.375-.843.703a5.366 5.366 0 00-.387 1.02 21.21 21.21 0 00-.246 1.02c-.07.328-.211.574-.422.738l.316.316c-.609.352-1.054.785-1.336 1.301-.28.516-.328 1.125-.14 1.828l.035.035v.035c.68.586 1.371.903 2.074.95.703.047 1.465.011 2.285-.106.375-.047.727-.07 1.055-.07.352-.024.691-.035 1.02-.035h.07c.328-.328.68-.528 1.055-.598.375-.094.785-.14 1.23-.14.375 0 .738-.024 1.09-.07.351-.048.656-.224.914-.528.094-.094.164-.188.21-.281.048-.094.106-.188.177-.282l.14-.14.14-.14c.517.116.997.058 1.442-.177a7.869 7.869 0 001.266-.914c.422-.351.832-.703 1.23-1.055.422-.374.844-.632 1.266-.773.54-.539.89-1.125 1.055-1.758.187-.633.304-1.3.351-2.004.024-.351.047-.68.07-.984.047-.305.106-.586.176-.844.094-.281.223-.539.387-.773.164-.258.398-.516.703-.774l.07-.07a6.703 6.703 0 00-.14-.492 1.689 1.689 0 01-.07-.527c0-.446.082-.868.246-1.266.164-.399.34-.797.527-1.195.211-.422.398-.868.563-1.336.164-.47.246-.996.246-1.582a29.53 29.53 0 011.09-1.723c.398-.586.831-1.148 1.3-1.688.469-.539.973-1.02 1.512-1.441a6.5 6.5 0 011.758-.984c.304.023.61.058.914.105.328.024.633.059.914.106-.14.328-.211.714-.211 1.16 0 .422-.023.844-.07 1.265a2.775 2.775 0 01-.282 1.09c-.164.328-.468.563-.914.703.047.07.07.211.07.422.024.188.036.328.036.422 0 .703-.152 1.371-.457 2.004a19.217 19.217 0 01-1.055 1.898c-.375.61-.75 1.23-1.125 1.864a6.987 6.987 0 00-.738 1.933c-.07.305-.235.586-.492.844-.235.258-.48.516-.739.774-.234.257-.433.539-.597.843-.14.282-.153.598-.035.95a3.06 3.06 0 01-.668.773 5.132 5.132 0 00-.633.598 1.479 1.479 0 00-.387.703c-.07.281-.023.644.14 1.09h.036v.035c.258.398.457.808.598 1.23.14.422.292.832.456 1.23.188.4.422.762.704 1.09.304.329.726.575 1.265.739.047-.258.153-.387.317-.387.164-.023.34-.035.527-.035l.352.351c.117.094.234.2.351.317 1.031 0 1.852-.035 2.461-.106.61-.07 1.125-.199 1.547-.386a5.178 5.178 0 001.3-.809c.423-.375.973-.855 1.653-1.441.633-.54 1.266-1.067 1.899-1.582a24.395 24.395 0 011.968-1.512zm-11.672-10.02a.61.61 0 00-.597-.386c-.282 0-.54.011-.774.035.188.187.352.398.492.633.165.234.317.457.457.668.118-.118.235-.258.352-.422.14-.164.164-.34.07-.528z"/>
  <path fill="#191A1B" d="M59.09 2.818c-.023.89-.105 1.758-.246 2.602a8.215 8.215 0 01-.808 2.425l.035.036c.258.398.375.796.352 1.195a3.643 3.643 0 01-.282 1.16c-.14.375-.316.762-.527 1.16-.187.375-.316.75-.387 1.125-.445.188-.703.445-.773.774-.07.304-.117.632-.14.984 0 .328-.06.656-.176.984-.118.305-.434.54-.95.704l-.21.07c.398.398.574.75.527 1.055-.024.28-.164.55-.422.808a5.76 5.76 0 01-.88.703c-.35.211-.644.434-.878.668.07.047.14.106.21.176.071.047.13.094.177.14-.258.235-.54.47-.844.704-.281.21-.55.445-.809.703-.257.234-.48.504-.668.808-.187.282-.293.622-.316 1.02a.74.74 0 01-.387.246c-.14.047-.293.094-.457.14-.14.024-.281.071-.422.141a.547.547 0 00-.28.282l-.036.035c0 .164.023.363.07.597a2.931 2.931 0 00-1.16.352 3.99 3.99 0 00-.914.633c-.258.258-.527.539-.808.843-.258.305-.54.586-.844.844h-.035v-.07a.552.552 0 00-.141-.105.554.554 0 01-.14-.106c-.118-.023-.294.047-.528.21-.234.165-.387.294-.457.388a3.546 3.546 0 01-.492.773c-.188.235-.352.48-.492.738a1.705 1.705 0 00-.176.774c.023.281.199.586.527.914-.164.328-.21.68-.14 1.055.093.375.187.738.28 1.09.118.328.2.644.247.949.047.28-.047.515-.281.703.023.187.047.351.07.492.047.164.176.293.387.387h.351c-.047.398-.07.902-.07 1.511.023.61.023 1.23 0 1.864-.024.633-.07 1.23-.14 1.793-.071.562-.2.996-.388 1.3.188.188.375.352.563.493.188.164.293.386.316.668 0 .257-.07.515-.21.773a7.336 7.336 0 01-.387.738 5.86 5.86 0 00-.282.739c-.046.234.024.468.212.703-.422.234-.704.515-.844.843-.14.352-.211.75-.211 1.196 0 .304.012.703.035 1.195.023.516-.023.902-.14 1.16-.141.282-.294.563-.458.844l-.422.844c-.28.586-.539 1.172-.773 1.758-.211.609-.434 1.218-.668 1.828a2.645 2.645 0 01-.176.457c-.047.14-.093.293-.14.457-.352-.07-.598-.047-.739.07-.14.117-.258.246-.351.387a2.168 2.168 0 01-.352.457c-.14.164-.398.246-.773.246v.105c-.094.54-.375 1.02-.844 1.442a11.12 11.12 0 01-1.617 1.195c-.61.399-1.219.774-1.828 1.125-.61.375-1.102.75-1.477 1.125h-.035a1.719 1.719 0 00-1.195.317c-.375.257-.75.492-1.125.703a2.82 2.82 0 01-1.196.422c-.445.07-.925-.106-1.441-.528v-.035c-.117.023-.2.035-.246.035h-.106l-.07.07-.21.211v-.035a3.685 3.685 0 01-1.02-.879 2.881 2.881 0 01-.598-1.16 254.36 254.36 0 00.316-.316 1.423 1.423 0 01-.668-.809 3.227 3.227 0 01-.246-1.09c-.047-.398-.07-.797-.07-1.195a3.049 3.049 0 00-.211-.984 1.34 1.34 0 00.879-.493c.21-.257.433-.492.668-.703-.047-.047-.082-.164-.106-.351a2.121 2.121 0 01-.07-.352 3.498 3.498 0 01.176-1.3c.14-.422.316-.833.527-1.231.211-.375.422-.762.633-1.16.211-.375.387-.774.527-1.195.493-.399.88-.82 1.16-1.266.258-.422.516-.914.774-1.477a7.84 7.84 0 01.316-.633c.118-.257.258-.515.422-.773.164-.258.34-.492.528-.703.187-.188.375-.316.562-.387-.023-.047-.035-.152-.035-.316 0-.399.14-.738.422-1.02l.773-.773c.258-.258.457-.54.598-.844.117-.305.035-.703-.246-1.195a7.408 7.408 0 001.582-1.969c.398-.703.75-1.418 1.055-2.145.328-.726.656-1.44.984-2.144a7.264 7.264 0 011.371-1.898l.07-.07c-.093-.446-.21-.762-.351-.95a.733.733 0 00-.492-.387 1.903 1.903 0 00-.668-.105 15.658 15.658 0 01-.809-.106 4.26 4.26 0 01-.95-.386c-.35-.211-.726-.54-1.124-.985-.328-.187-.551-.363-.668-.527a2.277 2.277 0 01-.317-.563 5.89 5.89 0 01-.246-.562c-.07-.211-.199-.445-.386-.703.422-.258.62-.54.597-.844a2.5 2.5 0 00-.316-.914 65.665 65.665 0 00-.527-.844c-.165-.258-.188-.457-.07-.598.093-.21.269-.351.527-.421.257-.07.48-.141.667-.211a.875.875 0 01.07-.598c.071-.187.188-.352.352-.492.141-.164.305-.293.493-.387.187-.117.375-.21.562-.281.211.047.375.047.492 0 .14-.047.258-.106.352-.176.117-.07.2-.14.246-.21a.469.469 0 01.21-.177l-.034-.28c.398-.118.75-.083 1.054.105.305.164.598.363.88.597.327.258.62.469.878.633.258.14.598.176 1.02.106h.035c.117.117.234.222.352.316.14.07.269.152.386.246.117-.07.211-.14.281-.21.07-.095.188-.106.352-.036l-.281.281 1.476 1.16.88-1.195-.177-.035-.246-.246c0-.188.059-.34.176-.457a.567.567 0 00.211-.457c-.047-.094-.094-.153-.14-.176l.07-.07c.492.047.785-.024.879-.211.117-.188.175-.41.175-.668a5.34 5.34 0 01.141-.809c.07-.305.328-.539.774-.703-.375-.352-.528-.61-.457-.773.07-.165.21-.293.421-.387.235-.117.48-.246.739-.387.257-.14.386-.363.386-.668a.916.916 0 00-.035-.281 1.308 1.308 0 01-.035-.316c0-.516.129-.985.387-1.407.281-.422.574-.832.879-1.23.328-.399.609-.809.843-1.23a2.28 2.28 0 00.282-1.477c0-.07-.024-.176-.07-.317A8.859 8.859 0 0149 9.287c.305-.469.597-.938.879-1.406.28-.47.539-.95.773-1.442a6.123 6.123 0 00.563-1.547c.093-.023.21-.047.351-.07a.338.338 0 00.281-.246 1.632 1.632 0 01-.035-.317c0-.093-.011-.187-.035-.28h.035c.188.023.317.01.387-.036l.281-.281.14-.14a.339.339 0 00.142-.177c.046-.75.257-1.336.632-1.757.375-.446.809-.914 1.301-1.407 1.125-.328 2.04-.21 2.742.352.703.539 1.254 1.3 1.653 2.285zm-2.109 3.059c-.117-.07-.199-.235-.246-.493-.047-.257-.105-.539-.176-.843a2.773 2.773 0 00-.316-.809.747.747 0 00-.563-.422l-.07.07c-.328.399-.644.856-.95 1.372-.304.492-.608 1.007-.913 1.547l-.844 1.617c-.258.539-.492 1.031-.703 1.476-.047.117-.176.375-.387.774-.21.398-.433.832-.668 1.3-.234.446-.457.856-.668 1.231-.21.352-.328.539-.351.563v.035a8.8 8.8 0 01-.352 1.406 8.34 8.34 0 01-.562 1.441c-.211.469-.457.914-.739 1.336a4.945 4.945 0 01-.949 1.02c-.023.023-.047.035-.07.035l-.035.035.07.07c.375.516.504.938.387 1.266a2.24 2.24 0 01-.598.844c-.258.258-.527.539-.809.843-.28.305-.398.704-.351 1.196 0 .258.07.504.21.738h.634a3.41 3.41 0 00.773-1.055c.211-.421.434-.808.668-1.16.235-.351.516-.644.844-.879.328-.258.785-.386 1.371-.386l-.07-.598a9.484 9.484 0 001.828-2.566 8.058 8.058 0 00.808-3.024c.375-.14.622-.328.739-.562a2.56 2.56 0 00.28-.844c.071-.305.153-.61.247-.914.117-.305.34-.586.668-.844l.07-.07c0-.117-.011-.223-.035-.317a1.79 1.79 0 01-.035-.351c0-.399.059-.774.176-1.125.14-.352.304-.68.492-.985.21-.328.422-.644.633-.949.21-.328.398-.668.562-1.02zM40.141 27.18c-.234-.234-.375-.48-.422-.738a9.346 9.346 0 01-.105-.738 1.806 1.806 0 00-.176-.633c-.07-.211-.258-.375-.562-.492l-.035-.035c-.164.07-.375.117-.633.14a4.242 4.242 0 01-.774 0 9.165 9.165 0 01-.773-.175 2.127 2.127 0 01-.563-.247l-.035.035c-.61.399-1.008.868-1.195 1.407-.164.515-.2 1.125-.105 1.828v.176c.023.07.046.164.07.28.023.118.047.247.07.388.352.375.68.562.985.562.304 0 .597-.082.878-.246.282-.187.563-.398.844-.633.281-.258.574-.445.88-.562h.034c.657.398 1.195.293 1.617-.317zm2.004 14.871a1.91 1.91 0 01-.07-.527.433.433 0 01.281-.352c-.187-.163-.304-.316-.351-.456a1.327 1.327 0 01-.07-.422v-.422c0-.117-.036-.27-.106-.457.094-.446.129-.89.105-1.336 0-.445-.035-.89-.105-1.336a28.65 28.65 0 00-.176-1.3 8.556 8.556 0 01-.105-1.337c-.375-.14-.61-.176-.704-.105a.63.63 0 00-.175.351c0 .164-.035.317-.106.457-.047.14-.234.211-.562.211v.14c.117.212.093.434-.07.669-.165.234-.364.48-.598.738-.235.258-.457.516-.668.774-.211.28-.317.574-.317.878-.351.235-.597.516-.738.844-.117.352-.222.692-.316 1.02-.07.351-.188.668-.352.949-.14.305-.41.527-.808.668-.047.047-.07.082-.07.105a8.351 8.351 0 01-.352.95c-.118.257-.235.504-.352.738a5.59 5.59 0 01-.422.703c-.164.234-.363.504-.597.809-.47.609-.856 1.195-1.16 1.757-.329.586-.528 1.266-.598 2.04-.586.093-.985.316-1.195.667-.235.352-.399.75-.493 1.196-.093.445-.175.89-.246 1.336a2.575 2.575 0 01-.562 1.195h-.035c-.329.492-.668.984-1.02 1.476a18.357 18.357 0 00-.95 1.547 9.045 9.045 0 00-.667 1.653 5.633 5.633 0 00-.281 1.793c.28.328.609.562.984.703l1.125.492.035-.035c.469-.07.879-.2 1.23-.387a7.76 7.76 0 00.95-.562c.281-.211.574-.446.879-.704a6.55 6.55 0 01.984-.667c.492.023.926-.036 1.3-.176.352-.117.669-.305.95-.563a3.96 3.96 0 00.809-.844c.234-.328.468-.68.703-1.054.21-.399.492-.832.844-1.3.351-.47.726-.81 1.125-1.02.023 0 .035-.012.035-.036h.07a1.687 1.687 0 01-.21-.457 1.377 1.377 0 01-.106-.457c-.024-.562.117-1.043.422-1.441.328-.398.644-.785.949-1.16.304-.375.515-.774.632-1.196.118-.398-.023-.89-.421-1.476.421-.305.691-.668.808-1.09.117-.398.2-.82.246-1.266.047-.422.106-.855.176-1.3.094-.422.34-.832.738-1.23l.106-.106-.352-.282zM74.77 32.385c.024.28-.023.492-.14.632-.117.14-.282.246-.492.317-.188.07-.399.129-.633.175a1.494 1.494 0 00-.598.176 24.85 24.85 0 01-1.969-.281 8.163 8.163 0 01-1.758-.598 6.015 6.015 0 01-1.476-1.09c-.422-.445-.785-1.007-1.09-1.687a2.29 2.29 0 00.316-1.617 142.48 142.48 0 00-.28-1.758 4.824 4.824 0 01.034-1.547c.118-.469.528-.844 1.23-1.125a2.548 2.548 0 010-.844.749.749 0 00-.245-.773c-.82.281-1.535.68-2.145 1.195a19.808 19.808 0 00-1.758 1.688c-.539.61-1.09 1.23-1.652 1.863a10.66 10.66 0 01-1.793 1.617 4.729 4.729 0 01-.984-.035c-.328-.07-.61.023-.844.281a.854.854 0 00.176.422c.094.117.164.235.21.352.071.117.106.246.106.386 0 .118-.082.258-.246.422a3.794 3.794 0 01-.773.598c-.258.14-.516.305-.774.492a2.414 2.414 0 00-.598.598c-.163.234-.246.55-.246.95-.14-.071-.27-.083-.386-.036a.612.612 0 00-.317.176c-.117.093-.222.199-.316.316a1.59 1.59 0 01-.281.281c-.047.117-.035.211.035.282.07.093.152.187.246.28-.094.259-.211.411-.352.458a.716.716 0 01-.492.035 1.548 1.548 0 01-.527-.246l-.492-.246a6.396 6.396 0 01-.141-1.055 6.338 6.338 0 01.035-1.16c.047-.398.14-.773.281-1.125.141-.352.352-.645.633-.879.094-.07.153-.105.176-.105l.035-.036h.035l.14-.14c.188-.211.317-.434.388-.668.07-.258.129-.516.175-.774.047-.257.118-.503.211-.738.07-.258.211-.48.422-.668-.093-.375-.093-.703 0-.984.117-.305.258-.586.422-.844.188-.281.363-.55.528-.809.187-.28.304-.585.351-.914a.717.717 0 000-.316v-.352c-.047-.375-.012-.656.106-.843a1.64 1.64 0 01.492-.492l.633-.422c.234-.141.433-.352.597-.633.68.328 1.078.773 1.196 1.336.14.539.187 1.148.14 1.828a2.468 2.468 0 00-.914 1.09c-.21.445-.351.879-.422 1.3.047.141.106.223.176.247.094 0 .187-.012.281-.036.117-.046.223-.093.317-.14a.624.624 0 01.28-.07 26.962 26.962 0 002.497-1.97 8.003 8.003 0 001.969-2.495 14.35 14.35 0 001.933-1.125 6.39 6.39 0 012.004-.985l.809-.808c.117.187.258.234.422.14.164-.117.328-.246.492-.386.164-.141.316-.223.457-.247.164-.023.316.141.457.493.234.61.293 1.207.176 1.793a7.93 7.93 0 01-.563 1.687c-.234.54-.48 1.09-.738 1.652a5.081 5.081 0 00-.457 1.723v.457c0 .14-.012.293-.035.457a25.809 25.809 0 01-.211 1.617c-.07.563-.035 1.079.105 1.547.117.422.364.797.739 1.125.374.328.703.657.984.985a1.17 1.17 0 01.492.035c.164.047.317.094.457.14.164.047.316.07.457.07.14-.023.281-.105.422-.245a.455.455 0 01.457.035c.164.07.316.164.457.281.14.117.281.223.422.317.164.07.34.07.527 0zM86.196 11.713c-.422.164-.656.41-.703.738-.047.328-.07.668-.07 1.02.023.351.011.68-.035.984-.047.304-.282.504-.704.597a3.277 3.277 0 00-.632-.773 21.472 21.472 0 00-.704-.738 3.598 3.598 0 01-.562-.809c-.14-.281-.188-.621-.14-1.02l1.757-2.038c.281.093.504.21.668.351.164.14.305.305.422.492.117.188.223.387.316.598.118.187.246.387.387.598zm6.82 15.75c.024.515-.023.878-.14 1.09a1.73 1.73 0 01-.352.527c-.14.117-.27.258-.386.422-.094.14-.141.398-.141.773-.54.586-.973 1.02-1.3 1.3-.329.259-.645.481-.95.669-.305.164-.645.351-1.02.562-.375.211-.89.54-1.547.985l-.246.035c-.07.351-.199.55-.386.597-.164.07-.364.106-.598.106-.21 0-.422.023-.633.07-.21.047-.386.246-.527.598-.399.117-.738.164-1.02.14a13.6 13.6 0 00-1.09-.035c-.14 0-.328-.011-.562-.035a1.248 1.248 0 00-.527.035.873.873 0 00-.317.176c-.094.117-.199.211-.316.282-.117.07-.235.093-.352.07-.117 0-.222-.094-.316-.282-.281.07-.54.07-.774 0a2.041 2.041 0 01-.668-.351 3.603 3.603 0 01-.597-.598c-.164-.21-.328-.41-.492-.597a3.019 3.019 0 00-.387-.387 5.734 5.734 0 01-.387-.352 2.265 2.265 0 01-.562-.984 5.412 5.412 0 01-.211-1.23 7.617 7.617 0 01.035-1.266c.047-.422.117-.797.21-1.125.212-.211.364-.445.458-.703.07-.281.129-.563.176-.844.07-.281.14-.55.21-.809.094-.28.247-.527.458-.738 0-.305.046-.586.14-.844.117-.257.258-.503.422-.738a5.14 5.14 0 01.598-.633c.234-.21.445-.41.633-.597h.562a1.31 1.31 0 01.527.035.727.727 0 01.422.21c.117.095.211.259.281.493.165.633.118 1.148-.14 1.547a8.724 8.724 0 01-.809 1.09c-.304.351-.55.715-.738 1.09-.188.375-.14.855.14 1.44-.257 0-.433.071-.527.212a2.41 2.41 0 00-.175.492c-.024.164-.07.328-.141.492-.07.164-.211.281-.422.352.14.14.211.387.211.738.023.352.059.691.105 1.02.07.304.176.55.317.738.164.187.457.2.879.035.304.258.668.363 1.09.316a7.398 7.398 0 011.23-.035c.328-.21.61-.316.844-.316.234-.024.457 0 .668.07.21.047.433.094.668.14.234.048.515.012.844-.105.093-.398.257-.633.492-.703.234-.07.468-.105.703-.105a2.51 2.51 0 00.633-.14c.21-.071.351-.306.422-.704.187-.234.41-.363.667-.387l.774-.14c.281-.047.527-.141.738-.282.235-.164.399-.468.492-.914.399-.304.68-.527.844-.668.188-.164.34-.293.457-.386.117-.094.27-.2.457-.317l.95-.597z"/>
  <path fill="#191A1B" d="M103.423 18.568c-.094.398-.223.68-.387.844-.141.14-.293.375-.457.703l-.141-.07a67.66 67.66 0 00-.527.668c-.141.21-.293.445-.457.703a6.11 6.11 0 00-.387.668c-.094.21-.211.422-.351.633.117.257.199.539.246.843.047.305.105.586.175.844.071.328.129.645.176.95.071.304.117.62.141.948.023.329.012.645-.035.95a10.717 10.717 0 00-.071 2.848 7.315 7.315 0 01-.035 1.898c-.07.539-.246 1.101-.527 1.687-.281.61-.539 1.149-.774 1.617.188.141.411.223.668.246.258.047.493.153.704.317.14.117.257.246.351.387.094.164.199.304.317.421.117.118.281.212.492.282.234.093.328.27.281.527-.023.117-.07.164-.141.14a.568.568 0 01-.246-.07 4.847 4.847 0 01-.316-.175.631.631 0 00-.317-.106c-.117 0-.222.012-.316.035l-.211.141a.554.554 0 01-.211.14.574.574 0 01-.316.07c-.281 0-.551-.046-.809-.14a3.108 3.108 0 00-.808-.175 2.47 2.47 0 00-.141.562 4.751 4.751 0 01-.105.563 1.546 1.546 0 01-.247.527c-.117.164-.199.34-.246.527h.07a34.61 34.61 0 00-.667 1.652 17.93 17.93 0 01-.633 1.688l-.106-.035a3.149 3.149 0 00-.28.562l-.212.633a.782.782 0 00-.105.246.49.49 0 01-.035.211c-.165.258-.317.516-.458.774l-.421.773c-.141.281-.282.55-.422.809a13.3 13.3 0 01-.457.773 2.755 2.755 0 01-.387.492 7.099 7.099 0 01-.387.493.629.629 0 01-.175.175c-.07.07-.13.14-.176.211-.164.211-.305.469-.422.774-.117.304-.234.586-.352.843h-.035c0 .024-.012.036-.035.036-.234.187-.434.41-.598.667-.14.258-.328.481-.562.669a5.391 5.391 0 01-.738.597 6.182 6.182 0 00-.633.528 7.2 7.2 0 01-.598.597l-.633.633a4.02 4.02 0 00-.633.633 2.482 2.482 0 01-.668.633 2 2 0 01-.843.28 2.79 2.79 0 00-.844.212l-.035-.035c-.281.047-.55.07-.809.07-.281.023-.562.058-.843.105-.188.024-.34.07-.458.141-.14.07-.27.129-.386.176-.14.07-.281.117-.422.14a.874.874 0 01-.492 0c-.399-.07-.68-.175-.844-.316-.164-.14-.41-.328-.738-.563a5.463 5.463 0 01-1.301-1.44 6.19 6.19 0 01-.844-1.723c-.117-.446-.176-.774-.176-.985 0-.187.024-.504.07-.95 0-.21.047-.515.141-.913.094-.399.211-.68.352-.844 0-.07.023-.2.07-.387.047-.164.106-.34.176-.527.07-.188.14-.363.21-.527.071-.141.13-.235.177-.282.046-.023.117-.023.21 0 .07.047.118.082.141.106.094-.188.164-.387.211-.598l.14-.633a.78.78 0 00.036-.246c0-.07.012-.129.035-.175.211-.563.48-1.09.809-1.582.328-.493.75-.903 1.265-1.231.188-.305.282-.586.282-.844s.117-.527.351-.808c.188-.235.399-.422.633-.563.234-.14.445-.328.633-.562.21-.258.398-.516.562-.774.14-.234.34-.468.598-.703a3.71 3.71 0 011.3-.703 3.537 3.537 0 001.301-.633c.188-.117.305-.258.352-.422.023-.14.152-.257.387-.351.14-.07.293-.117.457-.14.14-.024.293-.06.457-.106a9.747 9.747 0 001.09-.387c.351-.117.726-.223 1.125-.317.234-.046.457-.105.668-.175a4.33 4.33 0 00.668-.211l.21-.14.282-.071c.328-.07.644-.129.949-.176.305-.047.621-.082.95-.105.304-.047.585-.035.843.035s.504.093.738.07c.117-.305.246-.61.387-.914.14-.281.258-.563.352-.844.07-.258.117-.515.14-.773.047-.281.117-.55.211-.809 0-.281.023-.562.07-.843.047-.305.094-.598.141-.88.023-.163.059-.328.106-.492l.14-.492.211-.633a4.26 4.26 0 000-.773 2.767 2.767 0 01.035-.773c-.094-.141-.199-.27-.316-.387l-.281-.422c-.188.094-.41.164-.668.21a2 2 0 00-.633.212c-.047 0-.153.047-.317.14-.14.094-.304.2-.492.317-.187.117-.363.234-.527.351a8.95 8.95 0 01-.317.176c-.14.117-.257.235-.351.352a1.336 1.336 0 01-.387.316c-.164.094-.375.2-.633.317-.234.093-.492.187-.773.28-.281.095-.55.188-.809.282-.257.07-.468.117-.632.14-.211.048-.41.071-.598.071a2.262 2.262 0 00-.563 0 .678.678 0 00-.351.105l-.282.141a1.632 1.632 0 01-.316.035.544.544 0 01-.316-.21c-.07-.118-.082-.223-.035-.317a.622.622 0 01.175-.281c.07-.094.153-.176.246-.246.07-.094.13-.2.176-.317.094-.258.117-.469.07-.633-.046-.164.024-.375.212-.633.117-.187.246-.28.386-.28.164-.024.328-.095.492-.212.188-.14.282-.304.282-.492 0-.187.129-.34.386-.457.235-.094.47-.152.703-.176a7 7 0 01.739-.105c.07 0 .14.012.21.035a.78.78 0 00.247-.035 3.9 3.9 0 00.527-.703c.117-.235.387-.469.809-.703.398-.211.726-.282.984-.211.258.07.492.082.703.035.188-.188.375-.363.563-.527l.632-.563.563-.563c.188-.21.398-.386.633-.527.094-.258.2-.504.316-.738.14-.235.27-.469.387-.703.117-.211.246-.399.387-.563.164-.164.304-.34.422-.527a3.831 3.831 0 00-.739-.211 2.599 2.599 0 01-.633-.281c-.304.047-.597.082-.878.105-.282 0-.575.012-.88.035-.421.047-.843.117-1.265.211a2.45 2.45 0 01-.281.07 1.035 1.035 0 01-.246.036c-.305.047-.61.082-.914.105-.282.024-.575.047-.88.07a3.77 3.77 0 01-.913-.035 64.764 64.764 0 01-.844-.175c-.398-.094-.715-.13-.95-.106-.234 0-.527-.129-.878-.387-.235-.187-.352-.34-.352-.457a1.405 1.405 0 00-.422-.738 2.656 2.656 0 01-.246-.281.793.793 0 01-.14-.281c-.024-.094 0-.188.07-.282.164-.164.328-.257.492-.28a1.17 1.17 0 01.492-.036c.164 0 .328.012.493.035.187 0 .374-.035.562-.105.281.093.586.246.914.457.328.187.55.304.668.351.047.024.223.047.527.07h2.848c.211-.093.469-.128.773-.105.329 0 .622-.012.88-.035a3.268 3.268 0 011.617-.633c.421-.047.714-.035.878.035.188.07.481.153.879.246.211.047.399.07.563.07.164 0 .316.012.457.036.141 0 .269.047.387.14.14.07.269.211.386.422.235.399.328.727.282.985-.047.234-.118.562-.211.984zm-6.645 18.457c-1.219 0-2.426.27-3.621.809a4.75 4.75 0 00-.563.105c-.163.047-.34.094-.527.14l-1.863.388c-.258.187-.504.351-.738.492-.188.117-.364.222-.528.316a3.206 3.206 0 00-.316.211c-.024 0-.082.059-.176.176l-.352.422-.351.422c-.117.14-.188.234-.211.28-.305.141-.598.27-.879.387-.281.141-.574.282-.879.422l-.21.317-.352.422c-.14.164-.258.304-.352.422-.117.14-.187.222-.21.246a1.744 1.744 0 01-.177.246l-.351.422-.352.422-.28.28a6.006 6.006 0 01-.212 1.02c-.117.328-.187.68-.21 1.055-.329.234-.54.504-.634.809a3.255 3.255 0 00-.105 1.09 6.771 6.771 0 01-.563.949c-.21.28-.48.562-.808.843-.047.329-.082.645-.106.95-.023.328-.035.656-.035.984a6.2 6.2 0 00.633.738c.21.235.422.457.633.668.234.047.492.094.773.14.258.048.492.118.703.212.047-.024.141-.047.282-.07.14-.024.304-.06.492-.106l.492-.07c.14-.024.234-.036.281-.036.211-.07.446-.117.703-.14.258-.023.493-.059.704-.106.468-.398.914-.832 1.335-1.3l1.266-1.407c.211-.234.434-.468.668-.703.211-.234.422-.48.633-.738.187-.258.363-.516.527-.773l.563-.774c.187-.258.363-.527.527-.809a24.2 24.2 0 01.563-.808c.046-.047.128-.14.246-.281.14-.14.28-.293.422-.457.14-.164.269-.317.386-.457.117-.118.188-.2.211-.247.14-.28.27-.562.387-.843.14-.282.281-.574.422-.88.047-.07.105-.198.175-.386.07-.164.141-.351.212-.562a3.09 3.09 0 00.21-.528c.07-.14.13-.234.176-.28.094-.235.235-.54.422-.915.211-.352.34-.621.387-.809.047-.234.058-.433.035-.597v-.492c0-.141.023-.317.07-.528.07-.187.211-.422.422-.703zM131.302 29.959c-.329.562-.586 1.02-.774 1.37-.164.329-.34.61-.527.844-.164.212-.364.41-.598.598-.211.164-.516.375-.914.633a5.78 5.78 0 01-.773.598 4.947 4.947 0 01-.633.421c-.188.118-.34.176-.457.176a.313.313 0 01-.141-.035h-.562c-.118.024-.223-.058-.317-.246a.95.95 0 00-.176.246 2.136 2.136 0 01-.14.246.46.46 0 01-.211.211c-.07.047-.176.047-.317 0l-.175-.21-.528.456a21.582 21.582 0 00-1.898-.844 7.64 7.64 0 01-1.582-.773 4.322 4.322 0 01-1.195-1.16c-.329-.492-.563-1.16-.704-2.004a1.82 1.82 0 00-.386-.352.528.528 0 00-.492-.105 4.015 4.015 0 01-.844 1.02c-.328.28-.656.585-.985.914a1.48 1.48 0 00-.281.386c-.07.14-.164.27-.281.387-.188.211-.41.363-.668.457l-.773.211c-.258.07-.504.188-.739.352-.211.164-.363.445-.457.843-.281-.164-.562-.21-.844-.14-.21.047-.433.093-.668.14a2.43 2.43 0 01-.703.106c-.211.023-.422 0-.632-.07-.211-.07-.399-.223-.563-.458-.328.141-.633.13-.914-.035a3.143 3.143 0 01-.809-.597 30.378 30.378 0 01-.703-.88c-.234-.304-.457-.527-.668-.667-.14-.375-.129-.692.035-.95a4.34 4.34 0 01.493-.773 2.98 2.98 0 00.351-.738c.071-.258-.035-.563-.316-.914.234-.352.445-.715.633-1.09.187-.399.375-.785.562-1.16.211-.399.422-.774.633-1.125.234-.375.516-.692.844-.95-.141-.163-.211-.316-.211-.456 0-.165.035-.317.105-.457.071-.165.153-.317.246-.458.094-.164.164-.316.211-.457l1.02-.492-.246-.844c.257.047.445.036.562-.035a.529.529 0 00.281-.316c.071-.14.118-.293.141-.457.047-.188.106-.352.176-.492.117-.211.293-.364.527-.457.492-.375.973-.774 1.442-1.196.492-.422.972-.832 1.441-1.23.492-.399.996-.774 1.512-1.125a8.458 8.458 0 011.687-.95c.422.071.75.2.985.387.257.188.445.41.562.668.141.258.246.551.316.88l.211.913c.118.399.258.739.422 1.02.164.281.446.515.844.703-.328.563-.457 1.125-.387 1.688.071.538.141 1.113.211 1.722a5.534 5.534 0 01-.035 1.652c-.07.54-.41 1.02-1.019 1.442-.047.164-.059.34-.036.527.024.188.036.375.036.563 0 .187-.036.363-.106.527a.773.773 0 01-.387.387c.211.258.317.515.317.773.023.258.035.504.035.738.023.235.082.446.176.633.117.188.375.328.773.422.07.305.129.54.176.703.07.14.141.258.211.352.094.094.211.187.351.281.141.07.329.188.563.352.187.047.398.047.633 0a.523.523 0 01.562.21.575.575 0 01.422-.175c.164-.024.317-.024.457 0l.457.773c.258-.187.551-.351.879-.492.328-.14.645-.258.949-.352a17.17 17.17 0 011.055-.246l3.27-1.968zm-13.5-12.024a5.513 5.513 0 01-.774.563c-.305.187-.609.386-.914.597-.281.211-.527.446-.738.704-.211.234-.34.515-.387.843-.539.094-.914.317-1.125.668a5.79 5.79 0 00-.527 1.16c-.141.422-.293.844-.457 1.266-.164.398-.457.715-.879.95a.715.715 0 01-.387.14c.023 0-.047.047-.211.14a2.74 2.74 0 00-.668.704 5.741 5.741 0 00-.492.914c-.117.328-.234.668-.352 1.02-.093.327-.187.632-.281.913-.328.047-.574.117-.738.211-.164.094-.27.2-.317.317a.646.646 0 00.036.351 2.5 2.5 0 00.211.457c.093.14.187.305.281.492.117.188.211.375.281.563a1.6 1.6 0 01.106.562.729.729 0 01-.141.528c.328.258.644.316.949.175.305-.163.586-.34.844-.527l.281-.21c.117-.095.234-.165.352-.212.539.117 1.031.082 1.476-.105a4.521 4.521 0 001.231-.774c.375-.328.738-.68 1.09-1.054.351-.375.703-.703 1.054-.985l-.281-.28c.422-.118.715-.27.879-.458.187-.21.305-.445.351-.703a2.335 2.335 0 000-.809 11.954 11.954 0 01-.105-.949 4.35 4.35 0 01-.035-.527c.023-.188.07-.375.14-.563-.187-.539-.222-1.054-.105-1.547.141-.492.316-.96.527-1.406.235-.469.457-.937.668-1.406.211-.469.317-.961.317-1.477l-1.16-.246z"/>
  <path fill="#191A1B" d="M155.243 26.69c-.539.257-.902.573-1.09.948-.187.375-.34.762-.457 1.16a6.767 6.767 0 01-.387 1.16c-.14.352-.457.645-.949.88-.117.421-.351.714-.703.878-.328.165-.68.317-1.055.457a3.725 3.725 0 00-1.019.493c-.281.21-.422.574-.422 1.09-.469.257-.984.492-1.547.703a8.078 8.078 0 01-1.723.457 7.41 7.41 0 01-1.757.14 4.845 4.845 0 01-1.653-.351 5.244 5.244 0 01-1.019-.633 3.195 3.195 0 00-.352-.246 1.285 1.285 0 01-.316-.246 3.726 3.726 0 01-.703-.985 6.586 6.586 0 01-.457-1.195 12.23 12.23 0 01-.282-1.265c-.07-.422-.129-.82-.175-1.196l1.3-3.515a6.917 6.917 0 01-1.652-1.864 9.77 9.77 0 00-1.547-2.004 1.575 1.575 0 01-.457.422c-.187.117-.258.305-.211.563l.352.316a35.386 35.386 0 00-2.356 2.883c-.773 1.055-1.383 2.121-1.828 3.2-.516-.024-.879.105-1.09.386a3.47 3.47 0 00-.527.914 4.43 4.43 0 01-.527.914c-.211.281-.563.398-1.055.352a16.24 16.24 0 00-.352.843 5.2 5.2 0 01-.422.809 2.21 2.21 0 01-.597.633c-.235.187-.528.281-.879.281-.188-.188-.293-.387-.317-.598-.023-.21 0-.422.071-.632a3.35 3.35 0 01.281-.669c.117-.234.199-.457.246-.667.188-.68.527-1.29 1.02-1.829.492-.562.984-1.113 1.476-1.652.492-.562.914-1.148 1.266-1.758.351-.61.492-1.324.422-2.144.304-.024.609-.082.914-.176a4.38 4.38 0 00.879-.422c.281-.187.492-.41.633-.668.164-.281.222-.61.175-.984-.187-.094-.293-.223-.316-.387a2.206 2.206 0 010-.563 2.425 2.425 0 001.23-.843c.328-.422.621-.867.879-1.336.258-.469.504-.938.739-1.406.257-.493.585-.915.984-1.266.328.188.656.352.984.492.328.117.645.281.95.492-.211.282-.34.551-.387.809a4.502 4.502 0 00-.071.809v.773c0 .258-.07.527-.21.809.375.328.691.714.949 1.16.258.445.586.82.984 1.125.281-.211.598-.317.949-.317a7.936 7.936 0 011.055 0c.375 0 .727-.023 1.055-.07.328-.07.597-.27.808-.598.094.094.235.141.422.141h.563c.187 0 .351.035.492.105.141.047.223.153.246.317.023.187.012.316-.035.387-.024.07-.059.187-.106.351-.047.188-.058.281-.035.281.024 0 0 .082-.07.246a1.738 1.738 0 01-.598.774c-.258.21-.527.422-.808.633-.258.187-.504.41-.739.668-.211.234-.316.539-.316.914-.516.187-.879.468-1.09.843a3.337 3.337 0 00-.422 1.231c-.07.445-.117.914-.14 1.406a4.618 4.618 0 01-.246 1.301l.316.352.281-.352c.328.469.715.762 1.16.879.469.117.95.152 1.442.105.234-.351.504-.632.808-.843.328-.211.668-.387 1.02-.528.375-.14.75-.27 1.125-.386a8.033 8.033 0 001.125-.422c.281-.14.515-.293.703-.457.211-.164.434-.352.668-.563l2.074-1.933a165.45 165.45 0 002.11-1.934c.14 0 .234.07.281.21.047.142.07.306.07.493 0 .164-.012.34-.035.527v.387z"/>
</svg>
