<svg
    class="icon"
    xmlns="http://www.w3.org/2000/svg"
    width="24"
    height="24"
    viewBox="0 0 24 24"
>
    <path
        d="M11.944 2C6.438 2 2 6.463 2 12s4.438 10 9.944 10a1.695 1.695 0 001.685-1.695 1.58 1.58 0 00-.45-1.13c-.28-.283-.392-.678-.392-1.13 0-.904.73-1.695 1.685-1.695h1.966c3.034 0 5.562-2.486 5.562-5.593C21.944 6.012 17.45 2 11.944 2zM5.877 12a1.695 1.695 0 01-1.686-1.695c0-.904.73-1.695 1.686-1.695a1.695 1.695 0 010 3.39zM9.19 7.593a1.695 1.695 0 01-1.685-1.695c0-.904.73-1.695 1.685-1.695.955 0 1.686.734 1.686 1.695 0 .905-.731 1.695-1.686 1.695zm5.561 0a1.695 1.695 0 01-1.684-1.695c0-.904.73-1.695 1.684-1.695.9 0 1.686.734 1.686 1.695-.056.905-.786 1.695-1.685 1.695zM18.067 12a1.695 1.695 0 01-1.685-1.695c0-.904.73-1.695 1.685-1.695.9 0 1.686.735 1.686 1.695-.056.962-.786 1.695-1.686 1.695z"
    />
</svg>
