<svg xmlns="http://www.w3.org/2000/svg" width="24" height="24" fill="currentColor" viewBox="0 0 24 24">
  <path d="M11.75 22.505c-2.65 0-5.15-.96-7.11-2.71a10.686 10.686 0 0 1-2.8-3.93c-.25-.59-.44-1.21-.58-1.85-.23-.99-.31-2.01-.23-3.03.17-2.37 1.1-4.58 2.68-6.36a10.633 10.633 0 0 1 5.91-3.4c.69-.14 1.39-.22 2.09-.22.48-.02.92.03 1.38.08 1.94.24 3.77 1 5.31 2.22.52.41 1.01.87 1.45 1.38a10.801 10.801 0 0 1 2.4 4.77l.12.63c.08.53.13 1.07.13 1.61v.1a10.764 10.764 0 0 1-.66 3.68l-.15.39s-.01.03-.02.04a10.715 10.715 0 0 1-5.31 5.55c-.74.35-1.51.61-2.3.79-.33.07-.67.13-1.01.17-.4.05-.8.07-1.21.08h-.03l-.06.01Zm.75-6.06v4.53c.27-.02.54-.06.81-.1a9.23 9.23 0 0 0 4.43-2.08l-3.2-3.2c-.6.44-1.3.73-2.04.84v.01Zm-2.8 4.33c.43.1.86.16 1.3.2v-4.53c-.74-.12-1.43-.4-2.04-.84l-3.2 3.2c1.11.95 2.46 1.64 3.93 1.97h.01Zm5.9-6.23 3.2 3.2a9.23 9.23 0 0 0 1.62-2.74c.26-.69.43-1.41.52-2.13.01-.12.03-.24.04-.36h-4.53c-.12.74-.4 1.43-.84 2.04l-.01-.01Zm-12.4.74c.37.9.88 1.73 1.5 2.46l3.2-3.2c-.44-.6-.73-1.3-.84-2.04H2.53c.03.41.09.81.18 1.21.12.54.28 1.06.49 1.57Zm6.25-1.23c1.23 1.23 3.37 1.23 4.6 0 .61-.61.95-1.43.95-2.3 0-.87-.34-1.68-.95-2.3-.61-.61-1.43-.95-2.3-.95-.87 0-1.68.34-2.3.95-.61.61-.95 1.43-.95 2.3 0 .87.34 1.68.95 2.3Zm6.99-3.05h4.53a9.15 9.15 0 0 0-.15-1.05 8.11 8.11 0 0 0-.33-1.22c-.04-.1-.07-.21-.11-.31-.38-.97-.92-1.87-1.58-2.65l-3.2 3.2c.44.6.73 1.3.84 2.04v-.01Zm-13.91 0h4.53c.12-.74.4-1.43.84-2.04l-3.2-3.2a9.282 9.282 0 0 0-2.03 4.19c-.06.32-.11.64-.14.96v.1-.01Zm3.23-6.3 3.2 3.2c.6-.44 1.3-.73 2.04-.84v-4.53h-.08c-.33.03-.65.08-.97.14-.34.07-.67.15-.99.25-.25.08-.5.17-.75.27-.03.01-.07.03-.1.04-.85.37-1.64.86-2.34 1.46l-.01.01Zm6.74 2.36c.74.12 1.43.4 2.04.84l3.2-3.2a9.22 9.22 0 0 0-2.46-1.5c-.25-.1-.51-.2-.76-.28-.31-.1-.63-.18-.96-.24-.32-.06-.65-.11-.98-.14h-.08v4.53-.01Z"/>
</svg>
