<svg
    class="icon"
    xmlns="http://www.w3.org/2000/svg"
    width="20"
    height="20"
    viewBox="0 0 20 20"
>
    <path
        d="M10 14.166c-1.014 0-1.899-.316-2.656-.948a4.083 4.083 0 0 1-1.427-2.385h-4.25V9.166h4.25a4.083 4.083 0 0 1 1.427-2.385c.757-.632 1.642-.948 2.656-.948 1.014 0 1.9.316 2.657.948a4.083 4.083 0 0 1 1.427 2.385h4.25v1.667h-4.25a4.083 4.083 0 0 1-1.427 2.385c-.757.632-1.643.948-2.657.948Zm0-1.666c.695 0 1.285-.243 1.771-.73a2.41 2.41 0 0 0 .73-1.77 2.41 2.41 0 0 0-.73-1.771 2.411 2.411 0 0 0-1.77-.73 2.41 2.41 0 0 0-1.772.73 2.41 2.41 0 0 0-.729 1.77c0 .695.243 1.285.73 1.771.486.487 1.076.73 1.77.73Z"
    />
</svg>
