<svg
    class="icon"
    xmlns="http://www.w3.org/2000/svg"
    width="19"
    height="19"
    viewBox="0 0 19 19"
>
    <path
        fill-rule="evenodd"
        d="M2.955 2.136a.818.818 0 0 0-.819.819v7.363a.818.818 0 0 0 .819.818h.818a.818.818 0 1 1 0 1.637h-.818A2.455 2.455 0 0 1 .5 10.318V2.955A2.455 2.455 0 0 1 2.955.5h7.363a2.454 2.454 0 0 1 2.455 2.455v.818a.818.818 0 1 1-1.637 0v-.818a.818.818 0 0 0-.818-.819H2.955Zm5.727 5.727a.818.818 0 0 0-.818.818v7.364c0 .452.366.818.818.818h7.364a.818.818 0 0 0 .818-.818V8.68a.818.818 0 0 0-.819-.818H8.683Zm-2.455.818a2.455 2.455 0 0 1 2.455-2.454h7.364A2.455 2.455 0 0 1 18.5 8.68v7.364a2.454 2.454 0 0 1-2.454 2.454H8.681a2.455 2.455 0 0 1-2.455-2.454V8.68Z"
        clip-rule="evenodd"
    />
</svg>
