<svg
    xmlns="http://www.w3.org/2000/svg"
    width="20"
    height="20"
    fill="currentColor"
    viewBox="0 0 20 20"
>
    <path
        fill-rule="evenodd"
        d="M1.25 3c0-.966.784-1.75 1.75-1.75h10c.966 0 1.75.784 1.75 1.75v2.25H17c.966 0 1.75.784 1.75 1.75v10A1.75 1.75 0 0 1 17 18.75H7A1.75 1.75 0 0 1 5.25 17v-2.25H3A1.75 1.75 0 0 1 1.25 13V3Zm5.5 11.75V17c0 .138.112.25.25.25h10a.25.25 0 0 0 .25-.25V7a.25.25 0 0 0-.25-.25h-2.25V13A1.75 1.75 0 0 1 13 14.75H6.75ZM3 2.75a.25.25 0 0 0-.25.25v10c0 .138.112.25.25.25h10a.25.25 0 0 0 .25-.25V3a.25.25 0 0 0-.25-.25H3Z"
        clip-rule="evenodd"
    />
</svg>
