<svg
	xmlns="http://www.w3.org/2000/svg"
	width="24"
	height="24"
	fill="none"
	viewBox="0 0 24 24"
>
	<path
		fill="#000"
		d="M12 21c-2.5 0-4.625-.875-6.375-2.625S3 14.5 3 12c0-2.25.663-4.158 1.987-5.725C6.313 4.708 8.05 3.7 10.2 3.25c.333-.083.617-.092.85-.025a.995.995 0 0 1 .55.375.917.917 0 0 1 .188.625c-.009.25-.08.542-.213.875-.15.383-.267.775-.35 1.175-.083.4-.125.808-.125 1.225 0 1.5.525 2.775 1.575 3.825C13.725 12.375 15 12.9 16.5 12.9c.417 0 .82-.037 1.212-.112.392-.075.771-.18 1.138-.313.367-.133.683-.191.95-.175.267.017.483.092.65.225.167.133.275.325.325.575.05.25.033.55-.05.9-.45 2.017-1.458 3.688-3.025 5.013C16.133 20.338 14.233 21 12 21Zm0-1.5c1.817 0 3.4-.562 4.75-1.687s2.192-2.446 2.525-3.963c-.417.183-.862.32-1.337.413a7.574 7.574 0 0 1-1.438.137c-1.917 0-3.546-.67-4.887-2.012C10.27 11.046 9.6 9.417 9.6 7.5c0-.4.042-.829.125-1.287.083-.459.233-.98.45-1.563-1.633.45-2.988 1.363-4.063 2.738C5.037 8.763 4.5 10.3 4.5 12c0 2.084.73 3.854 2.188 5.313C8.146 18.77 9.916 19.5 12 19.5Z"
	/>
</svg>
