<svg xmlns="http://www.w3.org/2000/svg" width="20" height="20" fill="currentColor" viewBox="0 0 20 20">
  <path fill-rule="evenodd" d="M2.803 10a10.044 10.044 0 0 0 1.524 2.52C5.48 13.904 7.285 15.25 10 15.25s4.52-1.346 5.674-2.73A10.048 10.048 0 0 0 17.198 10a10.048 10.048 0 0 0-1.524-2.52C14.52 6.096 12.714 4.75 10 4.75c-2.714 0-4.52 1.346-5.674 2.73A10.044 10.044 0 0 0 2.803 10ZM18 10c.712-.237.711-.238.711-.238V9.76l-.003-.006-.006-.018a4.289 4.289 0 0 0-.104-.274 11.541 11.541 0 0 0-1.771-2.94C15.48 4.903 13.285 3.249 10 3.249S4.52 4.904 3.174 6.52a11.545 11.545 0 0 0-1.772 2.94 6.938 6.938 0 0 0-.104.275l-.006.018-.002.006-.001.002s0 .002.711.239l-.711-.237-.08.237.08.237L2 10l-.711.237v.004l.003.006.006.018a4.298 4.298 0 0 0 .104.274 11.545 11.545 0 0 0 1.771 2.94C4.52 15.097 6.715 16.751 10 16.751s5.48-1.654 6.826-3.27a11.542 11.542 0 0 0 1.772-2.94 6.868 6.868 0 0 0 .104-.275l.006-.018.002-.006.001-.002s0-.002-.711-.239Zm0 0 .712.237.079-.237-.08-.238L18 10Z" clip-rule="evenodd"/>
  <path fill-rule="evenodd" d="M10 8.25a1.75 1.75 0 1 0 0 3.5 1.75 1.75 0 0 0 0-3.5ZM6.75 10a3.25 3.25 0 1 1 6.5 0 3.25 3.25 0 0 1-6.5 0Z" clip-rule="evenodd"/>
</svg>
