<svg
    xmlns="http://www.w3.org/2000/svg"
    width="20"
    height="20"
    viewBox="0 0 20 20"
    class="icon"
>
    <path
        d="M7.344 2.031v-.75.75zM4.687 4.687h.75-.75zm2.657 2.657v.75-.75zM4.687 10h-.75.75zm2.657 2.656v.75-.75zm5.312-10.625v-.75.75zM10 15.312h-.75.75zM14.563 10a1.906 1.906 0 01-1.907 1.906v1.5A3.406 3.406 0 0016.062 10h-1.5zm-1.907 1.906A1.906 1.906 0 0110.75 10h-1.5a3.406 3.406 0 003.406 3.406v-1.5zM10.75 10c0-1.053.854-1.906 1.906-1.906v-1.5A3.406 3.406 0 009.25 10h1.5zm1.906-1.906c1.053 0 1.906.853 1.906 1.906h1.5a3.406 3.406 0 00-3.406-3.406v1.5zm-1.906-.75V2.03h-1.5v5.313h1.5zM10 1.28H7.344v1.5H10v-1.5zm-2.656 0c-.904 0-1.77.36-2.409.998l1.06 1.06a1.906 1.906 0 011.349-.558v-1.5zm-2.409.998a3.406 3.406 0 00-.997 2.409h1.5c0-.506.2-.99.558-1.348l-1.06-1.061zm-.997 2.409c0 .903.358 1.77.997 2.408l1.06-1.06a1.906 1.906 0 01-.558-1.348h-1.5zm.997 2.408a3.406 3.406 0 002.409.998v-1.5c-.506 0-.99-.201-1.348-.559l-1.06 1.061zm2.409.998H10v-1.5H7.344v1.5zm3.406 4.562V7.344h-1.5v5.312h1.5zM7.344 6.594c-.904 0-1.77.359-2.409.997l1.06 1.061a1.906 1.906 0 011.349-.558v-1.5zm-2.409.997A3.406 3.406 0 003.938 10h1.5c0-.506.2-.99.558-1.348l-1.06-1.06zM3.938 10c0 .903.358 1.77.997 2.409l1.06-1.061A1.906 1.906 0 015.438 10h-1.5zm.997 2.409a3.406 3.406 0 002.409.997v-1.5c-.506 0-.99-.2-1.348-.558l-1.06 1.06zm2.409.997H10v-1.5H7.344v1.5zM10 2.781h2.656v-1.5H10v1.5zm2.656 0c.506 0 .99.201 1.348.559l1.06-1.061a3.406 3.406 0 00-2.408-.998v1.5zm1.348.559c.358.357.559.842.559 1.348h1.5c0-.904-.36-1.77-.998-2.41l-1.06 1.062zm.559 1.348c0 .505-.201.99-.559 1.347l1.06 1.061a3.406 3.406 0 00.998-2.409h-1.5zm-.559 1.347a1.906 1.906 0 01-1.348.559v1.5c.904 0 1.77-.36 2.409-.998l-1.06-1.06zm-1.348.559H10v1.5h2.656v-1.5zM9.25 12.656v2.656h1.5v-2.656h-1.5zm0 2.656c0 .378-.112.746-.321 1.06l1.247.833c.374-.56.574-1.219.574-1.892h-1.5zm-.321 1.06c-.21.313-.507.557-.856.702l.574 1.385a3.406 3.406 0 001.529-1.254l-1.247-.833zm-.856.702a1.907 1.907 0 01-1.101.108l-.293 1.471c.661.132 1.346.064 1.968-.194l-.574-1.385zm-1.101.108a1.907 1.907 0 01-.976-.521l-1.06 1.06c.476.477 1.083.8 1.743.932l.293-1.47zm-.976-.521a1.907 1.907 0 01-.522-.977l-1.471.293c.131.66.456 1.268.932 1.744l1.06-1.06zm-.522-.977a1.906 1.906 0 01.109-1.1l-1.386-.575a3.406 3.406 0 00-.194 1.968l1.471-.293zm.109-1.1c.144-.35.388-.647.702-.856L5.45 12.48c-.56.375-.996.907-1.254 1.53l1.386.573zm.702-.856c.313-.21.682-.322 1.059-.322v-1.5c-.674 0-1.333.2-1.893.574l.834 1.248z"
    />
</svg>
