<svg xmlns="http://www.w3.org/2000/svg" width="24" height="24" fill="none" viewBox="0 0 24 24">
  <path fill="#191A1B" d="M17.665 7.189a.75.75 0 0 1 1.5 0v7.812l2.996-2.997a.75.75 0 1 1 1.06 1.06l-4.276 4.277a.75.75 0 0 1-1.06 0l-4.277-4.276-.052-.058a.75.75 0 0 1 1.056-1.054l.056.051 2.997 2.997V7.189ZM6.12 6.439a.75.75 0 0 1 .67.415l4.812 9.621.03.07a.75.75 0 0 1-1.335.668l-.037-.067-1.396-2.793H3.376L1.98 17.146l-.038.067a.75.75 0 0 1-1.304-.738l4.81-9.621.054-.09a.75.75 0 0 1 .618-.325Zm-1.994 6.414h3.988L6.12 8.866l-1.994 3.987Z"/>
</svg>
