<svg
	xmlns="http://www.w3.org/2000/svg"
	width="24"
	height="24"
	fill="currentColor"
	viewBox="0 0 24 24"
>
	<path
		d="M11.995 4.75A.73.73 0 0 1 11.25 4V1.75c0-.212.072-.39.217-.534A.732.732 0 0 1 12.004 1a.732.732 0 0 1 .745.75V4a.716.716 0 0 1-.216.534.732.732 0 0 1-.537.216Zm5.13 2.125a.722.722 0 0 1 0-1.05l1.575-1.6A.738.738 0 0 1 19.238 4c.208 0 .387.075.537.225A.72.72 0 0 1 20 4.75a.72.72 0 0 1-.225.525l-1.6 1.6a.72.72 0 0 1-.525.225.72.72 0 0 1-.525-.225ZM20 12.75a.723.723 0 0 1-.534-.217.732.732 0 0 1-.216-.537.73.73 0 0 1 .75-.745h2.25a.722.722 0 0 1 .535.216.732.732 0 0 1 .215.537.731.731 0 0 1-.75.745H20ZM11.995 23a.73.73 0 0 1-.745-.75V20c0-.212.072-.39.217-.535a.732.732 0 0 1 .537-.215.731.731 0 0 1 .745.75v2.25a.718.718 0 0 1-.216.534.732.732 0 0 1-.537.216ZM5.825 6.875 4.225 5.3A.725.725 0 0 1 4 4.764c0-.21.078-.389.235-.539A.688.688 0 0 1 4.75 4c.2 0 .375.075.525.225l1.6 1.6a.72.72 0 0 1 .225.525.72.72 0 0 1-.225.525.802.802 0 0 1-.541.2.69.69 0 0 1-.509-.2Zm12.9 12.9-1.6-1.6a.722.722 0 0 1 .516-1.25c.206 0 .384.067.534.2L19.8 18.7c.15.15.222.33.216.54a.803.803 0 0 1-.213.538.732.732 0 0 1-.538.222.736.736 0 0 1-.54-.225ZM1.75 12.75a.723.723 0 0 1-.534-.217.732.732 0 0 1-.216-.537.73.73 0 0 1 .75-.745H4a.72.72 0 0 1 .535.216.732.732 0 0 1 .215.537.732.732 0 0 1-.75.745H1.75Zm2.475 7.015A.688.688 0 0 1 4 19.25c0-.2.075-.375.225-.525l1.6-1.6c.138-.133.31-.2.516-.2.206 0 .384.069.534.206a.73.73 0 0 1 .225.535.73.73 0 0 1-.225.534L5.3 19.775a.725.725 0 0 1-.536.225.72.72 0 0 1-.539-.235ZM12 18c-1.667 0-3.083-.583-4.25-1.75C6.583 15.083 6 13.667 6 12c0-1.667.583-3.083 1.75-4.25C8.917 6.583 10.333 6 12 6c1.667 0 3.083.583 4.25 1.75C17.417 8.917 18 10.333 18 12c0 1.667-.583 3.083-1.75 4.25C15.083 17.417 13.667 18 12 18Zm0-1.5c1.25 0 2.313-.438 3.188-1.313.874-.874 1.312-1.937 1.312-3.187 0-1.25-.438-2.313-1.313-3.188C14.313 7.939 13.25 7.5 12 7.5c-1.25 0-2.313.438-3.188 1.313C7.939 9.687 7.5 10.75 7.5 12c0 1.25.438 2.313 1.313 3.188.874.874 1.937 1.312 3.187 1.312Z"
	/>
</svg>
