<svg
	xmlns="http://www.w3.org/2000/svg"
	width="90"
	height="90"
	fill="currentColor"
	viewBox="0 0 90 90"
>
	<mask
		id="a"
		width="90"
		height="90"
		x="0"
		y="0"
		maskUnits="userSpaceOnUse"
		style="mask-type: alpha"
	>
		<path d="M0 0h90v90H0z" />
	</mask>
	<g mask="url(#a)">
		<path
			d="M22.5 82.5V66.375c-3.563-3.25-6.328-7.047-8.297-11.39-1.969-4.344-2.953-8.922-2.953-13.735 0-9.375 3.281-17.344 9.844-23.906C27.656 10.78 35.625 7.5 45 7.5c7.813 0 14.734 2.297 20.766 6.89 6.03 4.594 9.953 10.579 11.765 17.954l5.063 20.031c.27.98.094 1.87-.531 2.672-.626.802-1.459 1.203-2.5 1.203H71.25v12.5c0 1.719-.612 3.19-1.836 4.414C68.19 74.388 66.72 75 65 75h-8.75v7.5H50V68.75h15V50h10.5l-4-16.094c-1.48-5.937-4.688-10.781-9.625-14.531C56.937 15.625 51.312 13.75 45 13.75c-7.625 0-14.115 2.646-19.469 7.938-5.354 5.291-8.031 11.74-8.031 19.346 0 3.934.804 7.671 2.41 11.212 1.608 3.54 3.888 6.688 6.84 9.441l2 1.876V82.5H22.5Zm19.313-27.125h6.25l.374-4.313a5.926 5.926 0 0 0 1.858-.747 8.246 8.246 0 0 0 1.517-1.19l4.063 1.5 3-5.125-3.125-2.438c.25-.75.375-1.52.375-2.312 0-.792-.125-1.563-.375-2.313L58.875 36l-3-5.125-4.063 1.5a8.41 8.41 0 0 0-1.557-1.147 8.492 8.492 0 0 0-1.818-.79l-.375-4.313h-6.25l-.374 4.313a8.49 8.49 0 0 0-1.818.79 8.41 8.41 0 0 0-1.557 1.147L34 30.875 31 36l3.125 2.438c-.25.75-.375 1.52-.375 2.312 0 .792.125 1.563.375 2.313L31 45.5l3 5.125 4.063-1.5c.44.44.945.837 1.517 1.19a5.926 5.926 0 0 0 1.858.748l.374 4.312ZM44.944 47c-1.734 0-3.21-.607-4.43-1.82-1.218-1.215-1.828-2.689-1.828-4.423s.607-3.21 1.821-4.429c1.214-1.219 2.688-1.828 4.422-1.828 1.734 0 3.21.607 4.43 1.82 1.218 1.215 1.828 2.689 1.828 4.423s-.607 3.21-1.821 4.429C48.153 46.39 46.679 47 44.945 47Z"
		/>
	</g>
</svg>
