<svg
	xmlns="http://www.w3.org/2000/svg"
	width="90"
	height="90"
	fill="currentColor"
	viewBox="0 0 90 90"
>
	<mask
		id="a"
		width="90"
		height="90"
		x="0"
		y="0"
		maskUnits="userSpaceOnUse"
		style="mask-type: alpha"
	>
		<path fill="#D9D9D9" d="M0 0h90v90H0z" />
	</mask>
	<g mask="url(#a)">
		<path
			d="M11.25 78.75V72.5h8.25V11.25h36.875v4.063h14.187v23.812h-6.25V21.562h-7.937v24.5h-6.25V17.5H25.75v55h19.125v6.25H11.25Zm53.438 3.75L64 77.625a18.924 18.924 0 0 1-3.266-1.438c-1.093-.604-2.015-1.28-2.765-2.03L53.53 76.03l-3.436-5.53 3.781-3.125c-.25-1.27-.375-2.401-.375-3.39 0-.99.125-2.12.375-3.391l-3.781-3.125 3.437-5.594 4.438 1.875c.75-.667 1.672-1.318 2.765-1.953A17.077 17.077 0 0 1 64 50.313l.688-4.938h6.25l.75 4.938a17.64 17.64 0 0 1 3.265 1.468c1.094.625 2.016 1.271 2.766 1.938l4.437-1.875 3.438 5.593-3.781 3.126c.25 1.27.374 2.4.374 3.39 0 .99-.124 2.12-.374 3.39l3.78 3.126L82.157 76l-4.437-1.844c-.75.75-1.672 1.427-2.766 2.031a18.914 18.914 0 0 1-3.266 1.438l-.75 4.875h-6.25Zm3.124-9.688c2.521 0 4.63-.848 6.329-2.546 1.698-1.698 2.547-3.808 2.547-6.329 0-2.52-.85-4.63-2.547-6.328-1.698-1.698-3.808-2.547-6.329-2.547-2.52 0-4.63.85-6.328 2.547-1.698 1.698-2.547 3.808-2.547 6.328 0 2.521.85 4.63 2.547 6.329 1.698 1.698 3.808 2.546 6.328 2.546ZM41.939 48.75c-1.063 0-1.954-.36-2.672-1.078-.72-.719-1.078-1.61-1.078-2.672 0-1.063.359-1.953 1.078-2.672.718-.719 1.61-1.078 2.672-1.078s1.953.36 2.671 1.078c.72.719 1.079 1.61 1.079 2.672 0 1.063-.36 1.953-1.079 2.672-.718.719-1.609 1.078-2.671 1.078Z"
		/>
	</g>
</svg>
