<svg
    class="icon"
    xmlns="http://www.w3.org/2000/svg"
    width="20"
    height="20"
    viewBox="0 0 20 20"
>
    <path
        d="m12.75 13.917 1.167-1.167-3.083-3.083V5.834H9.167v4.5l3.583 3.583ZM10 18.334a8.115 8.115 0 0 1-3.25-.657 8.415 8.415 0 0 1-2.646-1.78 8.416 8.416 0 0 1-1.78-2.647A8.115 8.115 0 0 1 1.666 10c0-1.152.219-2.236.656-3.25a8.415 8.415 0 0 1 1.781-2.646 8.415 8.415 0 0 1 2.646-1.78A8.115 8.115 0 0 1 10 1.666c1.153 0 2.236.219 3.25.656a8.416 8.416 0 0 1 2.646 1.781 8.415 8.415 0 0 1 1.781 2.646 8.115 8.115 0 0 1 .657 3.25 8.115 8.115 0 0 1-.657 3.25 8.416 8.416 0 0 1-1.78 2.646 8.416 8.416 0 0 1-2.647 1.781 8.115 8.115 0 0 1-3.25.657Zm0-1.667c1.848 0 3.42-.65 4.72-1.948 1.298-1.298 1.947-2.871 1.947-4.719 0-1.847-.65-3.42-1.948-4.718C13.421 3.983 11.848 3.334 10 3.334c-1.847 0-3.42.649-4.718 1.948C3.983 6.58 3.334 8.153 3.334 10c0 1.848.649 3.42 1.948 4.72C6.58 16.017 8.153 16.666 10 16.666Z"
    />
</svg>
