<svg
    xmlns="http://www.w3.org/2000/svg"
    width="22"
    height="20"
    viewBox="0 0 22 20"
    class="icon"
>
    <path
        d="M6 2v-.75a.75.75 0 00-.564.256L6 2zm10 0l.564-.494A.75.75 0 0016 1.25V2zm5 5.714l.548.512a.75.75 0 00.016-1.006L21 7.714zM11 18.43l-.548.511a.75.75 0 001.096 0L11 18.43zM1 7.714L.436 7.22a.75.75 0 00.016 1.006L1 7.714zm14.383 0l.694.284a.75.75 0 00-.099-.74l-.595.456zm-8.766 0l-.595-.456a.75.75 0 00-.1.74l.695-.284zM11 2l.595-.456a.75.75 0 00-1.19 0L11 2zm-5 .75h10v-1.5H6v1.5zm9.436-.256l5 5.714 1.128-.988-5-5.714-1.128.988zm5.016 4.709l-10 10.714 1.096 1.023 10-10.714-1.096-1.023zm-8.904 10.714l-10-10.714L.452 8.226l10 10.714 1.096-1.023zM1.564 8.208l5-5.714-1.128-.988-5 5.714 1.128.988zM14.69 7.43l-4.383 10.715 1.388.567 4.383-10.714-1.388-.568zm-2.995 10.715L7.311 7.43l-1.389.568 4.384 10.715 1.388-.568zM7.212 8.17l4.383-5.715-1.19-.912-4.383 5.714 1.19.913zm3.193-5.715l4.383 5.715 1.19-.913-4.383-5.714-1.19.912zM1 8.464h20v-1.5H1v1.5z"
    />
</svg>
