<svg
    xmlns="http://www.w3.org/2000/svg"
    width="20"
    height="20"
    viewBox="0 0 20 20"
    class="icon"
>
    <path
        d="M16.75 10A6.75 6.75 0 0110 16.75v1.5A8.25 8.25 0 0018.25 10h-1.5zM10 16.75A6.75 6.75 0 013.25 10h-1.5A8.25 8.25 0 0010 18.25v-1.5zM3.25 10A6.75 6.75 0 0110 3.25v-1.5A8.25 8.25 0 001.75 10h1.5zM10 3.25A6.75 6.75 0 0116.75 10h1.5A8.25 8.25 0 0010 1.75v1.5zm-7.5 7.5h15v-1.5h-15v1.5zm9.875-.75c0 1.94-.338 3.659-.855 4.866-.259.605-.548 1.046-.83 1.326-.28.276-.512.357-.69.357v1.5c.685 0 1.275-.328 1.743-.79.465-.46.85-1.087 1.156-1.803.614-1.434.976-3.364.976-5.456h-1.5zM10 16.55c-.178 0-.41-.081-.69-.357-.282-.28-.571-.721-.83-1.326-.517-1.207-.855-2.927-.855-4.866h-1.5c0 2.092.362 4.022.976 5.456.306.716.69 1.343 1.156 1.803.468.462 1.058.79 1.743.79v-1.5zM7.625 10c0-1.939.338-3.659.855-4.866.259-.604.548-1.046.83-1.325.28-.277.512-.358.69-.358v-1.5c-.685 0-1.275.328-1.743.79-.465.46-.85 1.087-1.156 1.803-.614 1.435-.976 3.364-.976 5.456h1.5zM10 3.451c.178 0 .41.081.69.358.282.279.571.72.83 1.325.517 1.207.855 2.927.855 4.866h1.5c0-2.092-.362-4.021-.976-5.456-.306-.716-.69-1.343-1.155-1.803-.469-.462-1.059-.79-1.744-.79v1.5z"
    />
</svg>
