<svg width="500" height="500" viewBox="0 0 500 500" fill="none" xmlns="http://www.w3.org/2000/svg">
<g clip-path="url(#clip0_387_293)">
<path d="M199.266 21.0148C227.286 -7.00493 272.715 -7.00494 300.735 21.0148L478.986 199.266C507.005 227.286 507.005 272.715 478.986 300.735L300.735 478.986C272.715 507.005 227.286 507.005 199.266 478.986L21.0148 300.735C-7.00494 272.715 -7.00494 227.286 21.0148 199.266L199.266 21.0148ZM259.354 91.9601C256.155 83.2557 243.845 83.2557 240.647 91.9601L202.284 196.366C201.276 199.111 199.113 201.274 196.368 202.282L91.9621 240.645C83.2577 243.843 83.2577 256.153 91.9621 259.352L196.368 297.714C199.113 298.723 201.276 300.886 202.284 303.631L240.647 408.037C243.845 416.742 256.155 416.741 259.354 408.037L297.716 303.631C298.725 300.886 300.888 298.723 303.633 297.714L408.039 259.352C416.743 256.153 416.743 243.843 408.039 240.645L303.633 202.282C300.888 201.274 298.725 199.111 297.716 196.366L259.354 91.9601Z" fill="#282828"/>
</g>
<defs>
<clipPath id="clip0_387_293">
<rect width="500" height="500" fill="white"/>
</clipPath>
</defs>
</svg>
