<svg xmlns="http://www.w3.org/2000/svg" width="677" height="416" fill="none" viewBox="0 0 677 416">
  <g opacity=".6">
    <path fill="#FCAB01" d="M622.076 118.404c3.159 30.258-10.988 63.821-31.592 74.958-5.152 2.791-10.22 3.908-14.974 3.549-14.263-1.077-100.749-21.028-106.412-22.301l-15.277-3.198a18.366 18.366 0 00-12.229 1.686s-12.057 7.007-13.212 7.727c-4.445 2.868-88.055 57.757-98.99 65.362-4.577 3.181-10.427 4.709-17.317 4.163-23.353-1.837-49.878-26.797-59.245-55.743-7.024-21.711-2.408-39.496 10.2-46.264 4.209-2.257 99.826-65.863 99.836-65.873.957-.812 56.408-45.664 132.112-23.35.397.115.8.228 1.193.33 11.717 3.84 92.16 20.618 96.506 20.708 14.899.293 26.957 14.859 29.401 38.246z" opacity=".6"/>
    <path fill="#000" d="M584.618 196.529a25.305 25.305 0 01-9.157 1.039c-8.599-.653-44.41-8.136-103.568-21.648l-2.938-.673-15.262-3.196a17.71 17.71 0 00-11.79 1.624c-.107.031-12.035 6.966-13.159 7.697-4.305 2.766-87.993 57.712-98.986 65.327-4.873 3.386-10.845 4.826-17.743 4.276-23.556-1.852-50.394-27.061-59.83-56.192-6.933-21.429-2.806-39.891 10.51-47.04 4.132-2.214 97.85-64.544 99.756-65.822.876-.713 14.922-11.967 38.194-20.413a150.536 150.536 0 0194.518-3.012c.388.11.8.227 1.193.33 11.252 3.683 91.717 20.578 96.346 20.632 15.555.289 27.613 15.889 30.022 38.814 3.182 30.45-11.139 64.372-31.926 75.605a32.23 32.23 0 01-6.18 2.652zm-139.965-25.37a18.899 18.899 0 019.304-.384l15.268 3.194 2.94.68c58.247 13.303 94.965 20.981 103.374 21.615 4.775.36 9.686-.826 14.609-3.467 20.367-11.012 34.382-44.351 31.249-74.316-2.315-22.24-13.849-37.367-28.721-37.64-4.666-.084-85.447-17.029-96.726-20.732l-1.168-.337a149.28 149.28 0 00-93.681 2.97c-23.3 8.468-37.253 19.735-37.835 20.216-1.775 1.213-40.544 26.943-48.389 32.143-32.44 21.488-49.777 32.858-51.548 33.809-12.732 6.831-16.615 24.687-9.885 45.478 9.278 28.672 35.6 53.479 58.673 55.298 6.588.518 12.269-.842 16.887-4.05 11.004-7.625 94.724-62.58 99.026-65.352 1.147-.745 12.745-7.458 13.235-7.741a19.005 19.005 0 013.388-1.384z" opacity=".6"/>
  </g>
  <g opacity=".6">
    <path fill="#FCAB01" d="M581.751 186.833a15.344 15.344 0 01-5.528.652c-3.72-.263-21.125-2.932-102.071-21.422l-3.119-.708-15.269-3.194a27.73 27.73 0 00-18.548 2.558l-.184.096-.175.1c-3.684 2.135-12.389 7.181-13.602 7.959-4.313 2.782-88.277 57.906-99.264 65.519a13.692 13.692 0 01-3.932 1.854 19.971 19.971 0 01-7.249.643c-19.483-1.531-42.851-24.069-50.985-49.213-5.277-16.296-3-30.368 5.665-35.018 2.309-1.234 17.503-11.276 59.129-38.93 17.62-11.708 35.801-23.787 40.124-26.558 0 0 20.811-15.504 45.708-22.907a138.47 138.47 0 0179.851-.061l.082.023c.313.085.627.177.937.276 11.45 3.7 92.701 21.032 99.217 21.148 10.201.19 18.293 12.144 20.127 29.751 2.751 26.286-9.463 56.359-26.677 65.659a22.188 22.188 0 01-4.237 1.773z" opacity=".6"/>
    <path fill="#fff" d="M581.938 187.463a15.892 15.892 0 01-5.762.673c-3.732-.26-21.18-2.936-102.193-21.42l-3.121-.714-15.231-3.206a27.34 27.34 0 00-18.114 2.498l-.336.182c-3.657 2.135-12.385 7.173-13.564 7.948-4.32 2.784-88.278 57.906-99.248 65.507-3.023 2.124-7.008 2.994-11.608 2.624-19.744-1.556-43.352-24.303-51.565-49.691-5.377-16.608-2.973-30.991 5.981-35.796 2.29-1.229 17.467-11.258 59.069-38.899l.624-.411c17.324-11.51 35.237-23.407 39.521-26.125.174-.127 21.149-15.632 45.87-22.982a139.163 139.163 0 0180.226-.064l.076.025.944.274c11.248 3.644 92.678 20.977 99.038 21.098 10.549.19 18.898 12.382 20.774 30.339 2.766 26.521-9.601 56.886-27.02 66.302a23.135 23.135 0 01-4.361 1.838zm-139.98-25.393a28.427 28.427 0 0113.937-.571l15.269 3.194 3.128.713c80.902 18.483 98.265 21.123 101.975 21.402 2.92.22 6.118-.58 9.402-2.358 17.008-9.164 29.058-38.961 26.336-65.01-1.799-17.261-9.631-28.984-19.487-29.168-6.73-.12-87.556-17.332-99.383-21.174l-.915-.268-.074-.02a137.852 137.852 0 00-79.509.084c-24.525 7.292-45.284 22.65-45.505 22.805-4.304 2.765-22.211 14.661-39.546 26.133l-.617.409c-41.643 27.667-56.841 37.716-59.18 38.966-8.375 4.496-10.528 18.25-5.351 34.233 8.06 24.92 31.163 47.256 50.416 48.773 4.325.343 7.974-.462 10.754-2.39 10.975-7.61 94.962-62.748 99.282-65.531 1.147-.745 9.04-5.323 13.631-7.975l.383-.21a28.461 28.461 0 015.054-2.037z" opacity=".6"/>
  </g>
  <g opacity=".6">
    <path fill="#fff" d="M329.746 245.909c16.342-11.8 14.081-42.846-5.051-69.343-19.132-26.498-47.889-38.414-64.232-26.614-16.342 11.799-14.081 42.845 5.051 69.343 19.132 26.498 47.89 38.413 64.232 26.614z" opacity=".6"/>
    <path fill="#000" d="M322.992 249.959a30.19 30.19 0 01-10.975 1.026c-23.557-1.859-50.39-27.07-59.831-56.199-5.375-16.602-4.219-31.497 3.174-40.862 5.285-6.698 13.182-9.833 22.832-9.075 23.556 1.852 50.388 27.063 59.83 56.192 5.37 16.61 4.212 31.499-3.175 40.862a23.344 23.344 0 01-11.855 8.056zm-55.376-102.835a22.038 22.038 0 00-11.213 7.613c-7.116 9.008-8.191 23.462-2.955 39.646 9.279 28.671 35.599 53.473 58.672 55.291 9.189.724 16.696-2.227 21.699-8.581 7.114-9.015 8.189-23.468 2.954-39.646-9.278-28.671-35.6-53.479-58.673-55.298a28.789 28.789 0 00-10.484.975z" opacity=".6"/>
  </g>
  <g opacity=".6">
    <path fill="#FCAB01" d="M328.901 231.007a19.7 19.7 0 01-1.244 2.929 13.766 13.766 0 01-8.462 7.13 19.797 19.797 0 01-7.25.636c-19.51-1.529-42.853-24.074-50.994-49.217-3.721-11.501-3.767-22.062-.133-28.968a13.785 13.785 0 018.467-7.137 18.295 18.295 0 014.955-.714c.743-.009 1.511.016 2.295.077 19.504 1.531 42.88 24.074 50.997 49.251 3.225 9.951 3.715 19.217 1.369 26.013z" opacity=".6"/>
    <path fill="#000" d="M319.387 241.692a20.612 20.612 0 01-7.488.666c-19.736-1.551-43.35-24.296-51.572-49.689-3.769-11.664-3.801-22.408-.085-29.474 2.792-5.321 7.564-8.102 13.988-8.205.778-.005 1.574.025 2.359.086 19.736 1.551 43.344 24.298 51.565 49.69 3.265 10.083 3.74 19.484 1.378 26.456a21.199 21.199 0 01-1.286 3.017 14.426 14.426 0 01-8.859 7.453zm-49.911-84.686a13.127 13.127 0 00-8.069 6.814c-3.557 6.752-3.492 17.123.173 28.456 8.093 24.917 31.163 47.257 50.422 48.771 7.014.57 12.192-1.927 15.076-7.419.478-.91.883-1.857 1.212-2.831 2.283-6.709 1.794-15.811-1.377-25.6-8.093-24.917-31.163-47.256-50.416-48.773a26.694 26.694 0 00-2.233-.075c-1.618 0-3.229.221-4.788.657z" opacity=".6"/>
  </g>
  <g opacity=".6">
    <path fill="#FCAB01" d="M328.916 231.006a26.002 26.002 0 01-2.293-.071c-19.506-1.537-42.849-24.082-50.991-49.231-3.231-9.991-3.671-19.251-1.377-26.038.744-.009 1.511.016 2.296.077 19.503 1.531 42.88 24.073 50.996 49.251 3.226 9.951 3.715 19.216 1.369 26.012z" opacity=".6"/>
    <path fill="#000" d="M329.101 231.634l-.169.051a28.02 28.02 0 01-2.352-.081c-19.735-1.551-43.352-24.303-51.571-49.689-3.263-10.077-3.738-19.477-1.372-26.457a.662.662 0 01.615-.443c.77-.01 1.566.02 2.351.081 19.736 1.551 43.344 24.298 51.565 49.691 3.265 10.083 3.74 19.483 1.378 26.455a.652.652 0 01-.445.392zm-54.373-75.316c-2.122 6.674-1.579 15.589 1.527 25.185 8.094 24.917 31.164 47.256 50.417 48.773.644.048 1.226.073 1.768.077 2.124-6.669 1.581-15.583-1.528-25.186-8.093-24.917-31.163-47.256-50.416-48.773a26.27 26.27 0 00-1.768-.076z" opacity=".6"/>
  </g>
  <g opacity=".6">
    <path fill="#fff" d="M620.467 146.132c6.761-31.976-3.744-61.278-23.465-65.448-19.72-4.17-41.189 18.37-47.95 50.346-6.762 31.975 3.743 61.277 23.464 65.448 19.721 4.17 41.189-18.371 47.951-50.346z" opacity=".6"/>
    <path fill="#000" d="M584.572 196.557a23.699 23.699 0 01-18.315-1.631c-10.552-5.562-17.644-18.709-19.454-36.077-3.182-30.45 11.141-64.366 31.932-75.606 8.514-4.585 17.015-4.93 24.551-.949 10.553 5.569 17.637 18.712 19.448 36.079 3.183 30.456-11.14 64.373-31.933 75.607a32.7 32.7 0 01-6.229 2.577zm-37.123-37.79l.663-.074c1.766 16.922 8.603 29.693 18.759 35.051 7.144 3.769 15.206 3.446 23.314-.936 20.361-11.01 34.383-44.351 31.287-74.327-1.771-16.913-8.603-29.693-18.759-35.051-7.144-3.77-15.205-3.44-23.313.943-20.362 11.003-34.384 44.344-31.287 74.326l-.664.068z" opacity=".6"/>
  </g>
  <g opacity=".6">
    <path fill="#FCAB01" d="M613.816 119.598c2.743 26.282-9.478 56.357-26.685 65.655a22.231 22.231 0 01-4.258 1.793 13.883 13.883 0 01-12.146-1.713 20.69 20.69 0 01-5.004-4.884c15.777-10.818 26.611-39.111 24.008-64.024-.963-9.201-3.722-17.12-7.728-22.466a29.254 29.254 0 012.674-1.644 22.728 22.728 0 014.26-1.787 13.855 13.855 0 0112.145 1.714c6.645 4.437 11.404 14.665 12.734 27.356z" opacity=".6"/>
    <path fill="#000" d="M583.092 187.667a14.509 14.509 0 01-12.716-1.79 21.668 21.668 0 01-5.166-5.035.66.66 0 01.153-.935c15.618-10.709 26.262-39.157 23.731-63.415-.937-8.975-3.638-16.837-7.603-22.14a.664.664 0 01-.03-.746.665.665 0 01.183-.19 29.398 29.398 0 012.737-1.682 22.98 22.98 0 014.356-1.83 14.494 14.494 0 0112.716 1.79c6.824 4.536 11.673 14.949 13.02 27.834 2.775 26.552-9.608 56.887-27.027 66.304a22.904 22.904 0 01-4.354 1.835zm-16.416-7.076a19.596 19.596 0 004.429 4.193 13.25 13.25 0 0011.613 1.626 21.302 21.302 0 004.104-1.734c17.008-9.164 29.066-38.958 26.349-65.015-1.308-12.499-5.965-22.545-12.447-26.873a13.224 13.224 0 00-11.613-1.626 21.807 21.807 0 00-4.106 1.728c-.685.367-1.371.777-2.056 1.234 3.879 5.472 6.517 13.332 7.447 22.234 2.594 24.814-7.795 52.831-23.72 64.233z" opacity=".6"/>
  </g>
  <g opacity=".6">
    <path fill="#FCAB01" d="M589.747 116.418c2.616 24.91-8.231 53.207-24.008 64.024-3.991-5.343-6.762-13.259-7.723-22.474-2.612-24.897 8.227-53.198 24.004-64.015 3.999 5.347 6.764 13.265 7.727 22.465z" opacity=".6"/>
    <path fill="#000" d="M565.923 181.071a.658.658 0 01-.713-.233c-4.107-5.5-6.891-13.598-7.847-22.8-2.626-25.105 8.049-53.495 24.28-64.625a.659.659 0 01.901.15c4.102 5.488 6.891 13.577 7.851 22.792 2.626 25.105-8.049 53.495-24.287 64.627a.751.751 0 01-.185.089zm15.944-86.192c-15.325 10.978-25.704 39.053-23.203 63.026.905 8.683 3.487 16.328 7.226 21.629 15.334-10.973 25.71-39.055 23.209-63.027-.881-8.718-3.465-16.327-7.237-21.646l.005.018z" opacity=".6"/>
  </g>
  <g opacity=".6">
    <path fill="#FCAB01" d="M589.747 116.418c2.616 24.91-8.231 53.207-24.008 64.024-3.991-5.343-6.762-13.259-7.723-22.474-2.612-24.897 8.227-53.198 24.004-64.015 3.999 5.347 6.764 13.265 7.727 22.465z" opacity=".6"/>
    <path fill="#000" d="M565.923 181.071a.658.658 0 01-.713-.233c-4.107-5.5-6.891-13.598-7.847-22.8-2.626-25.105 8.049-53.495 24.28-64.625a.659.659 0 01.901.15c4.102 5.488 6.891 13.577 7.851 22.792 2.626 25.105-8.049 53.495-24.287 64.627a.751.751 0 01-.185.089zm15.944-86.192c-15.325 10.978-25.704 39.053-23.203 63.026.905 8.683 3.487 16.328 7.226 21.629 15.334-10.973 25.71-39.055 23.209-63.027-.881-8.718-3.465-16.327-7.237-21.646l.005.018z" opacity=".6"/>
  </g>
  <g opacity=".6">
    <path fill="#fff" d="M396.925 106.49l-58.804 38.642a5.976 5.976 0 01-7.785-1.066 5.97 5.97 0 01-1.41-4.734 5.98 5.98 0 012.634-4.179l58.804-38.642a5.964 5.964 0 017.784 1.067 5.982 5.982 0 01-1.223 8.912z" opacity=".6"/>
    <path fill="#000" d="M336.743 146.49a6.621 6.621 0 01-7.903-3.549 6.628 6.628 0 012.364-8.335l58.797-38.64a6.632 6.632 0 017.388.025 6.62 6.62 0 012.773 6.848 6.626 6.626 0 01-2.878 4.199l-58.802 38.648a6.53 6.53 0 01-1.739.804zm55.375-50.08a5.301 5.301 0 00-1.395.648l-58.802 38.649a5.312 5.312 0 00-1.595 7.407 5.314 5.314 0 007.432 1.473l58.804-38.642a5.313 5.313 0 00-4.444-9.534z" opacity=".6"/>
  </g>
  <g opacity=".6">
    <path fill="#fff" d="M322.485 155.183a5.963 5.963 0 10-3.4-11.433 5.963 5.963 0 00-4.016 7.416 5.963 5.963 0 007.416 4.017z" opacity=".6"/>
    <path fill="#000" d="M322.665 155.787a6.619 6.619 0 01-4.942-12.218 6.62 6.62 0 019.418 4.043 6.628 6.628 0 01-4.476 8.175zm-3.397-11.426a5.306 5.306 0 00-1.015 9.754 5.307 5.307 0 007.615-6.18 5.316 5.316 0 00-6.595-3.555l-.005-.019z" opacity=".6"/>
  </g>
  <g opacity=".6">
    <path fill="#6AC5D9" d="M305.141 226.776c3.18 9.82 3.818 18.892 2.404 26.499-1.439 7.799-5.033 14.056-10.245 18.029-26.184 17.183-152.671 106.266-160.747 111.863-4.579 3.176-10.427 4.709-17.317 4.164-23.347-1.84-49.872-26.8-59.257-55.74-6.998-21.691-2.386-39.489 10.2-46.263 2.957-1.564 129.155-90.697 157.557-109.56l.038-.011 2.344-1.553.063-.019c4.313-2.46 9.619-3.606 15.71-3.124 1.641.131 3.271.369 4.88.712 22.062 4.562 45.65 28.047 54.37 55.003z" opacity=".6"/>
    <path fill="#000" d="M130.136 386.946a30.065 30.065 0 01-10.955 1.047c-23.55-1.861-50.381-27.065-59.83-56.193-6.934-21.435-2.81-39.903 10.508-47.046 1.183-.625 23.578-16.326 49.539-34.511 40.591-28.421 91.08-63.79 107.981-75.017l.05-.015 1.788-1.216.543-.36.107-.032c4.575-2.613 9.991-3.689 16.082-3.207 1.67.134 3.328.377 4.966.727 22.562 4.701 46.136 28.553 54.828 55.483 3.079 9.502 3.919 18.773 2.437 26.818-1.482 8.045-5.059 14.269-10.469 18.403l-.088.027c-21.126 13.865-107.26 74.33-144.067 100.168-9.059 6.363-15.063 10.571-16.641 11.663a23.685 23.685 0 01-6.779 3.261zm98-210.645c-16.884 11.215-67.374 46.578-107.944 74.999-28.126 19.698-48.445 33.933-49.659 34.616-12.763 6.82-16.641 24.667-9.933 45.479 9.297 28.666 35.618 53.467 58.695 55.298 6.581.521 12.268-.842 16.892-4.051 1.578-1.092 7.569-5.297 16.635-11.661 36.805-25.845 123.049-86.376 144.131-100.208 5.112-3.916 8.553-9.997 9.956-17.594 1.444-7.829.613-16.883-2.396-26.173-8.568-26.515-31.735-49.988-53.88-54.601a37.527 37.527 0 00-4.8-.695c-5.826-.465-10.992.531-15.331 3.039l-.057.017-.507.343-1.797 1.184-.005.008z" opacity=".6"/>
  </g>
  <g opacity=".6">
    <path fill="#6AC5D9" d="M297.676 233.829c.06.571.102 1.148.141 1.718.809 11.929-2.606 22.978-9.915 30.395l-.605.611a1170.784 1170.784 0 00-8.438 5.712c-40.565 27.702-140.594 98.198-147.693 103.122a13.653 13.653 0 01-3.932 1.854 19.803 19.803 0 01-7.251.636c-19.503-1.531-42.853-24.074-50.989-49.225-5.274-16.289-2.997-30.361 5.668-35.012 2.309-1.234 17.496-11.273 59.128-38.93 6.169-4.093 66.325-47.716 90.589-65.095 3.035-2.175 5.503-3.936 7.239-5.164a30.907 30.907 0 013.426-1.484l.031-.009a31.69 31.69 0 016.458-1.578 35.765 35.765 0 012.222-.216 35.63 35.63 0 017.674.305c.378.052.76.116 1.144.187.384.071.917.159 1.382.274 7.618 1.588 15.266 5.44 22.067 11.234a62.938 62.938 0 0112.411 14.414 60.774 60.774 0 019.243 26.251z" opacity=".6"/>
    <path fill="#fff" d="M127.418 377.888a20.424 20.424 0 01-7.49.659c-19.735-1.551-43.35-24.296-51.565-49.69-5.374-16.602-2.971-30.985 5.983-35.79 2.257-1.205 17.444-11.244 59.076-38.901 3.852-2.514 28.717-20.496 52.769-37.853 14.748-10.641 28.679-20.691 37.804-27.223 3.034-2.182 5.502-3.943 7.238-5.171l.094-.028a30.44 30.44 0 013.498-1.519l.063-.019a32.457 32.457 0 016.56-1.601 36.532 36.532 0 0111.247.283c.398.073.917.158 1.395.27 7.787 1.627 15.517 5.55 22.348 11.349a63.527 63.527 0 0112.544 14.565 61.587 61.587 0 019.337 26.498l.021.069c.057.585.101 1.168.142 1.744.837 12.483-2.746 23.452-10.112 30.906l-.599.609a.648.648 0 01-.153.107 1462.864 1462.864 0 00-8.392 5.685c-31.523 21.509-98.56 68.602-130.784 91.229-9.236 6.484-15.334 10.768-16.92 11.876a14.365 14.365 0 01-4.104 1.946zm104.536-192.856c-1.737 1.201-4.18 2.975-7.193 5.137-9.119 6.531-23.05 16.58-37.767 27.212-24.062 17.367-48.949 35.322-52.807 37.886-42.37 28.143-56.86 37.721-59.187 38.961-8.376 4.496-10.56 18.26-5.383 34.242 8.06 24.92 31.163 47.257 50.416 48.773 4.292.346 7.98-.463 10.754-2.39 1.583-1.1 7.682-5.378 16.914-11.874 32.218-22.626 99.267-69.722 130.797-91.233 3.198-2.183 6.017-4.095 8.398-5.686l.554-.555c7.066-7.173 10.521-17.79 9.728-29.895a66.644 66.644 0 00-.135-1.65l-.021-.069a60.093 60.093 0 00-9.148-25.979 62.018 62.018 0 00-12.25-14.264c-6.666-5.663-14.185-9.471-21.771-11.068a35.334 35.334 0 00-1.341-.252c-.446-.073-.766-.135-1.136-.182a34.99 34.99 0 00-7.536-.299 30.795 30.795 0 00-8.506 1.756l-.069.02c-1.13.404-2.236.874-3.311 1.409z" opacity=".6"/>
  </g>
  <g opacity=".6">
    <path fill="#6AC5D9" d="M297.681 233.832c.061.57.102 1.147.141 1.717.81 11.929-2.606 22.978-9.914 30.395l-.606.611a29.783 29.783 0 01-4.812 3.772l-.941.567c-.87.504-1.767.962-2.685 1.373-17.788 8.061-41.828-1.867-55.573-23.694-13.261-21.046-12.395-45.965 1.083-58.966a30.188 30.188 0 014.76-3.743l.119-.035.092-.062c.75-.469 1.505-.899 2.278-1.293a30.907 30.907 0 013.426-1.484l.031-.01a31.744 31.744 0 016.457-1.577 35.087 35.087 0 012.222-.216 35.638 35.638 0 017.675.305c.378.052.76.116 1.144.187.384.071.916.159 1.382.273 7.618 1.589 15.265 5.441 22.067 11.235a62.95 62.95 0 0112.41 14.413 60.768 60.768 0 019.244 26.232z" opacity=".6"/>
    <path fill="#fff" d="M275.117 274.391c-17.721 5.27-39.54-5.06-52.378-25.445-6.458-10.208-9.841-21.885-9.587-32.864.253-10.979 4.078-20.467 10.768-26.925a31.288 31.288 0 014.866-3.822l.082-.025.174-.106a27.47 27.47 0 012.284-1.295 30.795 30.795 0 013.504-1.521l.063-.019a32.46 32.46 0 016.56-1.602c.719-.09 1.456-.166 2.261-.22a36.542 36.542 0 018.987.504c.398.073.916.158 1.394.269 7.787 1.627 15.517 5.551 22.348 11.35a63.506 63.506 0 0112.544 14.565 61.574 61.574 0 019.337 26.498l.021.069c.058.585.101 1.168.142 1.744.831 12.464-2.751 23.433-10.117 30.887l-.6.609-.059.052a30.207 30.207 0 01-4.883 3.813c-.322.206-.636.395-.957.579a28.15 28.15 0 01-2.751 1.407 31.228 31.228 0 01-4.003 1.498zm-38.173-91.318c-.554.165-1.107.33-1.641.536l-.069.021a31.21 31.21 0 00-3.317 1.438c-.747.386-1.479.802-2.225 1.264l-.101.03-.069.02a29.71 29.71 0 00-4.7 3.691c-6.441 6.213-10.123 15.446-10.364 26.004-.235 10.72 3.078 22.137 9.379 32.118 13.475 21.401 37.01 31.473 54.739 23.422.898-.402 1.775-.85 2.627-1.342l.923-.555a29.222 29.222 0 004.668-3.661l.075-.07.553-.555c7.067-7.172 10.522-17.789 9.729-29.894-.041-.549-.081-1.099-.135-1.651l-.021-.069a60.102 60.102 0 00-9.148-25.979 61.998 61.998 0 00-12.223-14.195c-6.667-5.664-14.185-9.472-21.772-11.069a34.966 34.966 0 00-1.341-.252c-.446-.073-.765-.135-1.135-.182a34.993 34.993 0 00-7.536-.299c-.786.049-1.496.123-2.189.213-1.594.208-3.17.542-4.713.998l.006.018z" opacity=".6"/>
  </g>
  <g opacity=".6">
    <path fill="#fff" d="M136.926 382.902c16.342-11.799 14.08-42.845-5.051-69.343-19.132-26.498-47.89-38.413-64.232-26.614-16.342 11.799-14.08 42.845 5.051 69.343 19.132 26.498 47.889 38.413 64.232 26.614z" opacity=".6"/>
    <path fill="#000" d="M130.166 386.968a30.096 30.096 0 01-10.982 1.027c-23.55-1.86-50.383-27.071-59.83-56.192-5.37-16.61-4.213-31.505 3.174-40.868 5.29-6.7 13.181-9.833 22.831-9.075 23.556 1.852 50.388 27.063 59.83 56.192 5.377 16.608 4.221 31.504-3.175 40.862a23.302 23.302 0 01-11.848 8.054zM74.79 284.133a22.038 22.038 0 00-11.214 7.613c-7.116 9.008-8.19 23.462-2.973 39.651 9.297 28.666 35.618 53.468 58.695 55.299 9.185.691 16.702-2.229 21.698-8.581 7.114-9.015 8.19-23.469 2.955-39.646-9.282-28.684-35.603-53.486-58.668-55.279a28.785 28.785 0 00-10.493.943z" opacity=".6"/>
  </g>
  <g opacity=".6">
    <path fill="#6AC5D9" d="M136.079 368.012a20.165 20.165 0 01-1.246 2.923 13.763 13.763 0 01-3.484 4.451 13.757 13.757 0 01-4.978 2.678 19.915 19.915 0 01-7.223.636c-19.506-1.538-42.855-24.081-50.995-49.224-3.722-11.501-3.768-22.062-.127-28.969a13.775 13.775 0 018.46-7.136 18.302 18.302 0 014.955-.714c.743-.009 1.51.016 2.296.077 19.503 1.531 42.854 24.081 50.988 49.226 3.208 9.983 3.667 19.259 1.354 26.052z" opacity=".6"/>
    <path fill="#000" d="M126.561 378.702a20.49 20.49 0 01-7.49.66c-19.735-1.551-43.35-24.297-51.571-49.689-3.77-11.665-3.802-22.408-.086-29.475 2.798-5.322 7.585-8.1 13.99-8.198.776-.012 1.573.019 2.357.079 19.736 1.552 43.35 24.297 51.565 49.691 3.264 10.077 3.738 19.477 1.376 26.449a21.211 21.211 0 01-1.29 3.026 14.435 14.435 0 01-8.851 7.457zM76.649 294.01a13.116 13.116 0 00-8.038 6.805c-3.557 6.752-3.49 17.129.172 28.456 8.094 24.917 31.165 47.262 50.423 48.771 7.014.57 12.192-1.928 15.076-7.42.477-.91.882-1.857 1.212-2.831 2.287-6.717 1.792-15.817-1.38-25.633-8.094-24.917-31.163-47.256-50.42-48.765a24.457 24.457 0 00-2.236-.081c-1.627.01-3.246.245-4.81.698z" opacity=".6"/>
  </g>
  <g opacity=".6">
    <path fill="#6AC5D9" d="M136.084 368.01a25.53 25.53 0 01-2.289-.079c-19.506-1.537-42.853-24.074-50.966-49.239-3.23-9.991-3.67-19.251-1.376-26.038.743-.009 1.51.016 2.295.077 19.504 1.531 42.855 24.081 50.989 49.226 3.202 9.985 3.66 19.26 1.347 26.053z" opacity=".6"/>
    <path fill="#000" d="M136.27 368.638a.713.713 0 01-.163.049 26.386 26.386 0 01-2.356-.073c-19.741-1.57-43.362-24.335-51.546-49.717-3.257-10.079-3.738-19.477-1.371-26.457a.652.652 0 01.614-.443c.77-.01 1.567.02 2.352.081 19.735 1.551 43.35 24.296 51.565 49.69 3.263 10.077 3.738 19.477 1.376 26.449a.667.667 0 01-.471.421zm-54.375-75.323c-2.122 6.675-1.58 15.589 1.527 25.186 8.094 24.917 31.163 47.256 50.425 48.777.635.044 1.218.069 1.76.072 2.123-6.668 1.581-15.583-1.521-25.187-8.094-24.917-31.164-47.257-50.421-48.765a26.352 26.352 0 00-1.77-.083z" opacity=".6"/>
  </g>
  <g opacity=".6">
    <path fill="#fff" d="M244.046 211.711l-44.101 30.84a6.48 6.48 0 01-8.481-.9 6.503 6.503 0 01-1.69-5.099 6.488 6.488 0 012.727-4.627l44.101-30.841a6.474 6.474 0 014.409-1.141c1.56.165 3.006.89 4.072 2.041a6.494 6.494 0 01.83 7.709 6.5 6.5 0 01-1.867 2.018z" opacity=".6"/>
    <path fill="#000" d="M198.295 244.109a7.14 7.14 0 01-8.48-3.729 7.145 7.145 0 012.33-8.967l44.101-30.84a7.14 7.14 0 018.182 11.701l-44.102 30.814a7.036 7.036 0 01-2.031 1.021zm40.365-43.268a5.817 5.817 0 00-1.664.802l-44.099 30.848a5.817 5.817 0 00-2.4 3.761 5.84 5.84 0 00.963 4.356 5.83 5.83 0 008.117 1.436l44.101-30.841a5.83 5.83 0 00-1-10.111 5.831 5.831 0 00-4.018-.251z" opacity=".6"/>
  </g>
</svg>
