<svg xmlns="http://www.w3.org/2000/svg" width="1820.52" height="900" viewBox="0 0 1820.52 900"><g style="isolation:isolate"><path d="M1241.75,643.25c-27.32,26.93-120.71,40.86-186.28,33.11-49.71-5.88-67.11-23-49-39.21,17.87-16,69.78-30.64,127.37-33.47C1209.16,600,1268.45,616.92,1241.75,643.25Z"/><path d="M1600.05,793c-24.86,21.63-142.29,43.74-198.1,33.59-42.31-7.7-56.31-23.31-39.91-36.24,16.17-12.75-35.51-94.5,14-93.84C1440.84,697.37,1624.36,771.87,1600.05,793Z"/><path d="M1017.41,723.19C990.1,750.12,896.7,764.05,831.13,756.3c-49.71-5.88-67.1-23-49-39.21,17.86-16,69.77-30.64,127.37-33.47C984.83,679.91,1044.11,696.86,1017.41,723.19Z"/><g opacity="0.6"><path d="M958.51,162c.38,15.73-2.63,29.26-8,39.76-5.49,10.77-13.46,18.35-22.8,21.89h0C882,237.33,658.5,312.53,644.27,317.2c-8.07,2.65-17.28,2.35-27.11-1.44-33.32-12.83-61.23-60.82-62.34-107.18-.83-34.77,13.64-58.76,35-63.16,5-1,228.1-76.4,277.79-91.62l.06,0,4.1-1.25.1,0c7.37-1.72,15.62-1.09,24.31,2.26A58.07,58.07,0,0,1,903,57.92C933.22,74.22,957.48,118.78,958.51,162Z" fill="#6ac5d9"/><path d="M633.24,319.92a45.74,45.74,0,0,1-16.44-3.23c-33.61-12.94-61.87-61.43-63-108.09-.82-34.32,13.23-59.51,35.79-64.16,2-.4,41.53-13.61,87.36-28.9C748.59,91.64,837.73,61.9,867.3,52.85l0,0h0l2.89-.88,1.2-.37.17,0c7.82-1.83,16.2-1.06,24.9,2.3A60.59,60.59,0,0,1,903.47,57c30.91,16.67,55,61.77,56,104.89h0c.36,15.21-2.43,29.13-8.09,40.23s-13.66,18.71-23.34,22.38l-.14,0c-36.87,11.08-188.88,62-253.82,83.7-16.11,5.39-26.75,9-29.54,9.87A36.31,36.31,0,0,1,633.24,319.92ZM867.92,54.75h0c-29.54,9-118.67,38.78-190.29,62.68C628,134,592.09,146,590,146.4c-21.57,4.44-35,28.84-34.19,62.16,1.1,45.92,28.77,93.59,61.7,106.27,9.39,3.62,18.28,4.1,26.44,1.42,2.78-.91,13.42-4.48,29.53-9.87,65-21.75,217.16-72.69,253.94-83.74h0c9.18-3.5,16.85-10.89,22.2-21.38,5.5-10.82,8.23-24.4,7.87-39.28h0c-1-42.45-24.66-86.81-55-103.17a58.18,58.18,0,0,0-6.7-3.11c-8.32-3.2-16.3-3.95-23.73-2.22l-1.23.38-2.9.89ZM927.73,223.6h0Z"/></g><g opacity="0.6"><path d="M944.56,169v0c-.16.86-.35,1.72-.54,2.57-4,17.78-13.79,32.44-27.69,40.1l-1.15.63s0,0,0,0c-4.18,1.3-9.16,2.87-14.81,4.68-71.29,22.82-248.06,82.35-260.59,86.46a20.84,20.84,0,0,1-6.55,1,30.18,30.18,0,0,1-10.87-2.22c-27.83-10.71-52.15-53.79-53.11-94.07-.63-26.09,8.81-45.66,23.49-48.69,3.91-.8,30.46-8.87,103.3-31.19,10.79-3.3,117.63-40.9,160.63-55.75,5.38-1.86,9.75-3.36,12.82-4.4a47.07,47.07,0,0,1,5.65-.68h0a48.32,48.32,0,0,1,10.12.5c1.12.18,2.23.4,3.34.65a54.33,54.33,0,0,1,11.08,3.78c.53.24,1.06.5,1.59.77s1.27.63,1.9,1c10.44,5.63,19.94,14.58,27.36,26l0,0a95.94,95.94,0,0,1,11.87,26.45A92.63,92.63,0,0,1,944.56,169Z" fill="#6ac5d9"/><path d="M633.22,305.52A31.15,31.15,0,0,1,622,303.23c-28.16-10.84-52.78-54.34-53.74-95-.65-26.59,9.11-46.56,24.28-49.69,3.83-.78,30.37-8.85,103.21-31.17,6.72-2,50.87-17.47,93.57-32.39,26.16-9.14,50.87-17.77,67-23.35,5.38-1.86,9.75-3.36,12.82-4.4l.15,0a48.48,48.48,0,0,1,5.77-.69h.11a48.64,48.64,0,0,1,10.27.51c1.09.17,2.21.39,3.41.66a55.52,55.52,0,0,1,11.28,3.85c.53.24,1.08.51,1.62.79s1.27.63,1.92,1c10.67,5.75,20.26,14.84,27.72,26.29l0,0h0a96.7,96.7,0,0,1,12,26.73,93.68,93.68,0,0,1,2.13,42.76.49.49,0,0,1,0,.12c-.16.87-.36,1.74-.55,2.61-4.22,18.59-14.23,33.07-28.18,40.75l-1.15.63a.82.82,0,0,1-.26.1c-4.17,1.3-9.12,2.86-14.74,4.66C845.34,235.7,727,275.33,670.19,294.38c-16.44,5.51-27.3,9.14-30.11,10.07A21.85,21.85,0,0,1,633.22,305.52ZM869.73,69.17c-3.07,1-7.41,2.53-12.75,4.37-16.15,5.58-40.86,14.21-67,23.35-42.72,14.92-86.89,30.35-93.64,32.41-74.13,22.72-99.46,30.41-103.39,31.22-14.19,2.92-23.31,22.09-22.69,47.68,1,39.92,25,82.58,52.46,93.16,6.13,2.38,11.87,2.8,16.75,1.19,2.81-.92,13.67-4.56,30.1-10.07,56.86-19.05,175.17-58.68,230.5-76.4,5.62-1.8,10.58-3.36,14.74-4.65h0l1-.57c13.44-7.41,23.1-21.42,27.2-39.45.18-.81.37-1.64.52-2.46,0,0,0-.08,0-.11a91.61,91.61,0,0,0-2.08-41.93,94.59,94.59,0,0,0-11.73-26.16l0,0c-7.28-11.17-16.61-20-27-25.62-.61-.33-1.23-.66-1.85-.95s-1.06-.53-1.58-.76a54.07,54.07,0,0,0-10.88-3.72c-1.16-.26-2.23-.47-3.28-.64a47,47,0,0,0-9.91-.48h-.1A45.84,45.84,0,0,0,869.73,69.17Zm74.83,99.89h0Z" fill="#fff"/></g><g opacity="0.6"><path d="M944.56,169v0c-.16.86-.35,1.72-.54,2.57-4,17.78-13.79,32.44-27.69,40.1l-1.15.63s0,0,0,0a45.34,45.34,0,0,1-8.67,3.42l-1.62.42a44.3,44.3,0,0,1-4.52.84c-29.49,4.05-60.3-20.9-70.9-58.76-10.23-36.51,1.86-72.54,27.2-85.68a46,46,0,0,1,8.58-3.4l.19,0,.16-.05c1.3-.36,2.59-.66,3.89-.9a47.07,47.07,0,0,1,5.65-.68h0a48.32,48.32,0,0,1,10.12.5c1.12.18,2.23.4,3.34.65a54.33,54.33,0,0,1,11.08,3.78c.53.24,1.06.5,1.59.77s1.27.63,1.9,1c10.44,5.63,19.94,14.58,27.36,26l0,0a95.94,95.94,0,0,1,11.87,26.45A92.63,92.63,0,0,1,944.56,169Z" fill="#6ac5d9"/><path d="M894,218.47c-28.18,0-55.57-24.57-65.47-59.92-5-17.73-4.87-36.26.28-52.18s14.85-28.14,27.43-34.66A48,48,0,0,1,865,68.23l.13,0,.3-.08c1.28-.36,2.58-.66,3.9-.91a48.89,48.89,0,0,1,5.78-.69h.11a48.67,48.67,0,0,1,10.27.51c1.09.17,2.21.39,3.41.66a55.52,55.52,0,0,1,11.28,3.85c.53.24,1.08.51,1.62.79s1.27.63,1.92,1c10.67,5.75,20.26,14.84,27.72,26.29l0,0h0a96.7,96.7,0,0,1,12,26.73,93.68,93.68,0,0,1,2.13,42.76.49.49,0,0,1,0,.12c-.16.87-.36,1.74-.55,2.61-4.22,18.59-14.23,33.07-28.18,40.75l-1.15.63-.11.05a46.44,46.44,0,0,1-8.78,3.46c-.57.15-1.11.3-1.66.43-1.52.36-3.07.65-4.62.86A47.86,47.86,0,0,1,894,218.47Zm-16.1-150c-.88,0-1.75,0-2.63.08h-.1a45.37,45.37,0,0,0-5.48.66c-1.26.23-2.5.52-3.8.88a.88.88,0,0,1-.15,0l-.13,0a44.75,44.75,0,0,0-8.46,3.35C845,79.76,835.61,91.66,830.67,107c-5,15.56-5.11,33.68-.25,51,10.39,37.12,40.39,62.06,69.8,58a43.58,43.58,0,0,0,4.42-.83c.53-.12,1.05-.26,1.59-.41a43.87,43.87,0,0,0,8.41-3.31l.14-.07h0l1-.57c13.44-7.41,23.1-21.42,27.2-39.45.18-.81.37-1.63.52-2.46,0,0,0-.08,0-.11a91.61,91.61,0,0,0-2.08-41.93,94.59,94.59,0,0,0-11.73-26.16l0,0c-7.28-11.17-16.61-20-27-25.62-.61-.33-1.23-.66-1.85-.95s-1.06-.53-1.58-.76a54.07,54.07,0,0,0-10.88-3.72c-1.16-.26-2.23-.47-3.28-.64A48,48,0,0,0,877.86,68.44Zm66.7,100.62h0Z" fill="#fff"/></g><g opacity="0.6"><ellipse cx="615.15" cy="231.81" rx="55.63" ry="90.2" transform="translate(-42.04 216.02) rotate(-19.27)" fill="#fff"/><path d="M633.28,320a45.76,45.76,0,0,1-16.48-3.28c-33.61-12.94-61.87-61.43-63-108.09-.64-26.59,7.52-47.85,22.39-58.32,10.63-7.49,23.53-8.65,37.29-3.34,33.61,12.94,61.87,61.43,63,108.09.64,26.59-7.52,47.85-22.39,58.32A35.56,35.56,0,0,1,633.28,320ZM597,145.67a33.64,33.64,0,0,0-19.68,6.24c-14.31,10.08-22.16,30.73-21.54,56.65,1.09,45.91,28.77,93.59,61.7,106.27,13.11,5.05,25.36,4,35.42-3.11,14.31-10.08,22.16-30.73,21.54-56.65-1.09-45.91-28.77-93.59-61.7-106.27A43.76,43.76,0,0,0,597,145.67Z"/></g><g opacity="0.6"><path d="M650.17,294.84a30.94,30.94,0,0,1-3.1,3.74,21,21,0,0,1-15.46,6.74,30.22,30.22,0,0,1-10.87-2.22c-27.83-10.71-52.14-53.79-53.11-94.07-.44-18.41,4.07-33.86,12.39-42.37a21,21,0,0,1,15.46-6.75A28,28,0,0,1,603,161c1.09.31,2.19.68,3.31,1.11,27.83,10.71,52.15,53.79,53.12,94.07C659.85,272.18,656.5,285.93,650.17,294.84Z" fill="#6ac5d9"/><path d="M631.61,306.32A31.23,31.23,0,0,1,620.38,304c-28.16-10.83-52.77-54.33-53.75-95-.45-18.68,4.17-34.39,12.67-43.1,6.4-6.56,14.6-8.54,24-5.91,1.15.33,2.29.72,3.4,1.15,28.16,10.83,52.78,54.33,53.76,95,.39,16.15-3,30.09-9.49,39.25h0a31.51,31.51,0,0,1-3.19,3.85A22,22,0,0,1,631.61,306.32ZM595.48,160.91a20,20,0,0,0-14.74,6.44c-8.13,8.33-12.55,23.51-12.11,41.66,1,39.92,25,82.58,52.47,93.16,10,3.87,18.65,2.48,25.26-4.29a31,31,0,0,0,3-3.61h0c6.26-8.81,9.5-22.32,9.12-38-1-39.92-25-82.58-52.48-93.16-1-.41-2.14-.77-3.23-1.08A27,27,0,0,0,595.48,160.91Z"/></g><g opacity="0.6"><path d="M650.17,294.84c-1.09-.3-2.2-.68-3.32-1.1C619,283,594.71,239.94,593.74,199.66c-.39-16,3-29.72,9.3-38.64,1.09.31,2.19.68,3.31,1.11,27.83,10.71,52.15,53.79,53.12,94.07C659.85,272.18,656.5,285.93,650.17,294.84Z" fill="#6ac5d9"/><path d="M650.17,295.84l-.27,0c-1-.29-2.16-.67-3.4-1.14-28.17-10.85-52.79-54.34-53.76-95-.39-16.14,3-30.08,9.48-39.25a1,1,0,0,1,1.09-.38c1.15.32,2.29.71,3.4,1.14,28.16,10.83,52.78,54.33,53.76,95,.39,16.15-3,30.09-9.49,39.25A1,1,0,0,1,650.17,295.84ZM603.45,162.18c-6,8.83-9.08,22.09-8.71,37.46,1,39.91,25,82.58,52.47,93.16.92.35,1.76.64,2.55.88,6-8.82,9.08-22.08,8.71-37.46-1-39.92-25-82.58-52.48-93.16C605.16,162.74,604.3,162.44,603.45,162.18Z"/></g><g opacity="0.6"><path d="M875.79,113.38,798,139.29a9.89,9.89,0,0,1-12-5h0a9.89,9.89,0,0,1,5.75-13.75l77.83-25.91a9.88,9.88,0,0,1,12,5h0A9.87,9.87,0,0,1,875.79,113.38Z" fill="#fff"/><path d="M794.87,140.79a10.88,10.88,0,0,1-3.47-21.21l77.83-25.91a10.89,10.89,0,0,1,6.88,20.66l-77.83,25.91A10.86,10.86,0,0,1,794.87,140.79Zm77.77-45.67a9,9,0,0,0-2.78.45L792,121.48a8.89,8.89,0,1,0,5.62,16.86l77.83-25.91h0a8.88,8.88,0,0,0-2.84-17.31Z"/></g><g opacity="0.6"><g opacity="0.6"><path d="M1343.63,357.66a41.13,41.13,0,0,0,22.8,21.89h0c45.72,13.73,349.22,128.93,363.45,133.6,8.07,2.65,17.28,2.35,27.11-1.44,33.32-12.83,61.23-60.82,62.34-107.18.83-34.77-13.64-58.76-35-63.16-5-1-308.1-116.4-357.79-131.62l-.06,0-4.1-1.25-.1,0c-4.39-1-9-.42-14-.49C1378,207.53,1302.35,266.57,1343.63,357.66Z" fill="#ffb0d8"/><path d="M1740.92,515.88a36,36,0,0,1-11.34-1.78c-4.37-1.43-35.55-13.11-78.71-29.28-94.58-35.43-252.84-94.72-284.66-104.29l-.13,0a42.22,42.22,0,0,1-23.36-22.41c-9.54-21.06-13.49-41.8-11.73-61.65A102.14,102.14,0,0,1,1347.57,249c17.3-26.41,44.15-42,60.35-42h.36c1.46,0,2.91,0,4.32-.05a38.84,38.84,0,0,1,9.93.57l.11,0,1,.32c1,.31,2,.63,3.11.94l.06,0h0c33.28,10.19,178.65,64.71,274.85,100.79,45.32,17,81.11,30.42,82.85,30.8,22.55,4.65,36.6,29.84,35.78,64.17-1.12,46.66-29.37,95.14-63,108.09A45.74,45.74,0,0,1,1740.92,515.88Zm-374.2-137.29h0c31.76,9.53,190.19,68.89,284.85,104.35,43.13,16.16,74.29,27.83,78.62,29.25,8.15,2.68,17,2.2,26.44-1.42,32.93-12.68,60.6-60.35,61.7-106.27.8-33.32-12.62-57.71-34.19-62.16-1.65-.34-29.64-10.82-83.14-30.89-96.18-36.07-241.53-90.58-274.74-100.75l0,0h0l-3.1-.95-1-.3-.11,0a37.49,37.49,0,0,0-9.35-.5c-1.42,0-2.89.07-4.4.05h-.4c-19.84,0-45.31,20.82-58.6,41.12-14.37,21.93-26.84,58.33-4.71,107.17h0A40.19,40.19,0,0,0,1366.72,378.59Z"/></g><g opacity="0.6"><path d="M1349.6,325v0c.16.86.35,1.72.54,2.57,4,17.78,13.79,32.44,27.69,40.1l1.15.63h0c4.18,1.3,9.16,2.87,14.81,4.68,71.29,22.82,328.06,122.35,340.59,126.46a20.84,20.84,0,0,0,6.55,1,30.18,30.18,0,0,0,10.87-2.22c27.83-10.71,52.15-53.79,53.11-94.07.63-26.09-8.81-45.66-23.49-48.69-3.91-.8-300.93-112.09-343.93-126.94-5.38-1.86-9.75-3.36-12.82-4.4a47.07,47.07,0,0,0-5.65-.68h0a48.32,48.32,0,0,0-10.12.5c-1.12.18-2.23.4-3.34.65a54.33,54.33,0,0,0-11.08,3.78c-.53.24-1.06.5-1.59.77s-1.27.63-1.9,1c-10.44,5.63-19.94,14.58-27.36,26l0,0a95.94,95.94,0,0,0-11.87,26.45A92.63,92.63,0,0,0,1349.6,325Z" fill="#ffb0d8"/><path d="M1740.94,501.47a21.85,21.85,0,0,1-6.86-1.07c-3.54-1.16-26.78-10-58.94-22.27-80.53-30.68-230.41-87.79-281.64-104.19-5.62-1.8-10.57-3.36-14.74-4.65a1.17,1.17,0,0,1-.26-.1l-1.15-.63c-13.95-7.69-24-22.17-28.18-40.76-.19-.86-.39-1.74-.55-2.61a.41.41,0,0,1,0-.11,93.73,93.73,0,0,1,2.13-42.77,96.7,96.7,0,0,1,12-26.73v0h0c7.46-11.44,17-20.53,27.72-26.29.64-.35,1.29-.69,2-1,.51-.26,1.06-.52,1.6-.77a55.71,55.71,0,0,1,11.28-3.85c1.19-.27,2.31-.48,3.4-.66a49.72,49.72,0,0,1,10.33-.51,46.19,46.19,0,0,1,5.82.7.58.58,0,0,1,.14,0c3.08,1,7.45,2.54,12.83,4.4,24.46,8.45,132.43,48.59,219.18,80.85,65.77,24.45,122.57,45.57,124.63,46.06,15.16,3.13,24.93,23.1,24.28,49.69-1,40.65-25.58,84.14-53.75,95A31.06,31.06,0,0,1,1740.94,501.47ZM1379.37,367.38c4.17,1.3,9.12,2.86,14.74,4.66,51.28,16.41,201.2,73.53,281.74,104.22,32.14,12.25,55.36,21.09,58.85,22.24,4.9,1.61,10.63,1.19,16.75-1.18,27.49-10.58,51.52-53.25,52.47-93.16.62-25.6-8.5-44.76-22.69-47.69-1.67-.34-48.56-17.76-124.92-46.15-86.74-32.25-194.69-72.38-219.13-80.83-5.34-1.84-9.68-3.33-12.75-4.37a45.42,45.42,0,0,0-5.45-.65,47.38,47.38,0,0,0-10,.49c-1,.17-2.12.37-3.28.64a53.41,53.41,0,0,0-10.88,3.71c-.52.23-1,.49-1.55.75s-1.27.63-1.88,1c-10.38,5.6-19.72,14.46-27,25.63h0l0,0a94.38,94.38,0,0,0-11.74,26.17,91.76,91.76,0,0,0-2.09,41.93.5.5,0,0,1,0,.12c.16.83.34,1.65.52,2.46,4.1,18,13.75,32,27.2,39.44l1,.57Z" fill="#fff"/></g><g opacity="0.6"><path d="M1349.6,325v0c.16.86.35,1.72.54,2.57,4,17.78,13.79,32.44,27.69,40.1l1.15.63h0a45.34,45.34,0,0,0,8.67,3.42l1.62.42a44.3,44.3,0,0,0,4.52.84c29.49,4.05,60.3-20.9,70.9-58.76,10.23-36.51-1.86-72.54-27.2-85.68a46,46,0,0,0-8.58-3.4l-.19-.05-.16,0c-1.3-.36-2.59-.66-3.89-.9a47.07,47.07,0,0,0-5.65-.68h0a48.32,48.32,0,0,0-10.12.5c-1.12.18-2.23.4-3.34.65a54.33,54.33,0,0,0-11.08,3.78c-.53.24-1.06.5-1.59.77s-1.27.63-1.9,1c-10.44,5.63-19.94,14.58-27.36,26l0,0a95.94,95.94,0,0,0-11.87,26.45A92.63,92.63,0,0,0,1349.6,325Z" fill="#ffb0d8"/><path d="M1400.2,374.43a47.66,47.66,0,0,1-6.53-.45,43.6,43.6,0,0,1-4.62-.86c-.55-.13-1.09-.27-1.65-.43a46,46,0,0,1-8.79-3.45l-.11-.05-1.15-.63c-13.95-7.69-24-22.17-28.18-40.76-.19-.86-.39-1.74-.55-2.61a.41.41,0,0,1,0-.11,93.72,93.72,0,0,1,2.13-42.77,96.7,96.7,0,0,1,12-26.73v0h0c7.46-11.44,17-20.53,27.72-26.29.64-.35,1.29-.69,2-1,.51-.26,1.06-.52,1.6-.77a55.71,55.71,0,0,1,11.28-3.85c1.19-.27,2.31-.48,3.4-.66a49.72,49.72,0,0,1,10.33-.51,46.19,46.19,0,0,1,5.82.7c1.33.24,2.63.54,4,.92a.82.82,0,0,1,.2.06l.16,0a47.53,47.53,0,0,1,8.76,3.47c26.33,13.65,38,50.17,27.71,86.84C1455.77,349.85,1428.38,374.42,1400.2,374.43Zm-20.68-7a44.68,44.68,0,0,0,8.41,3.31l1.59.41a44.6,44.6,0,0,0,4.42.82c29.4,4,59.41-20.91,69.8-58,4.86-17.35,4.77-35.47-.25-51-5-15.32-14.34-27.21-26.45-33.49a45,45,0,0,0-8.39-3.33l.17-1-.35.94-.12,0c-1.34-.37-2.59-.65-3.85-.89a46.6,46.6,0,0,0-5.52-.66,47.38,47.38,0,0,0-10,.49c-1,.17-2.12.37-3.28.64a53.41,53.41,0,0,0-10.88,3.71c-.52.24-1,.49-1.55.75s-1.27.63-1.88,1c-10.38,5.6-19.72,14.46-27,25.63h0l0,0a94.38,94.38,0,0,0-11.74,26.17,91.76,91.76,0,0,0-2.09,41.93.5.5,0,0,1,0,.12c.16.83.34,1.65.52,2.46,4.1,18,13.75,32,27.2,39.44l1,.57h0Z" fill="#fff"/></g><g opacity="0.6"><ellipse cx="1759.01" cy="427.77" rx="90.2" ry="55.63" transform="translate(774.65 1947.02) rotate(-70.73)" fill="#fff"/><path d="M1740.88,515.92a35.49,35.49,0,0,1-20.81-6.62c-14.87-10.47-23-31.72-22.39-58.32,1.11-46.66,29.37-95.15,63-108.09,13.76-5.3,26.66-4.15,37.29,3.34,14.87,10.47,23,31.73,22.39,58.32-1.11,46.66-29.37,95.15-63,108.1A46,46,0,0,1,1740.88,515.92Zm36.24-174.3a43.79,43.79,0,0,0-15.74,3.14c-32.93,12.68-60.61,60.35-61.7,106.27-.62,25.92,7.23,46.56,21.54,56.64,10.06,7.08,22.31,8.16,35.42,3.11,32.93-12.68,60.61-60.35,61.7-106.27.62-25.92-7.23-46.57-21.54-56.64A33.58,33.58,0,0,0,1777.12,341.62ZM1698.68,451h0Z"/></g><g opacity="0.6"><path d="M1724,490.8a30.83,30.83,0,0,0,3.1,3.73,21,21,0,0,0,15.46,6.74,30.46,30.46,0,0,0,10.87-2.21c27.83-10.72,52.14-53.8,53.11-94.07.44-18.42-4.08-33.87-12.39-42.38a21,21,0,0,0-15.46-6.75,28,28,0,0,0-7.56,1.11c-1.09.31-2.19.68-3.31,1.11-27.83,10.71-52.15,53.8-53.12,94.07C1714.31,468.13,1717.66,481.88,1724,490.8Z" fill="#ffb0d8"/><path d="M1742.55,502.27a22,22,0,0,1-16.18-7,32.22,32.22,0,0,1-3.19-3.86h0c-6.51-9.16-9.88-23.1-9.49-39.24,1-40.65,25.6-84.14,53.76-95,1.12-.43,2.27-.82,3.4-1.14,9.43-2.65,17.61-.66,24,5.9,8.51,8.71,13.13,24.42,12.68,43.1-1,40.65-25.59,84.14-53.75,95A31.29,31.29,0,0,1,1742.55,502.27Zm36.13-145.41a27.09,27.09,0,0,0-7.29,1.07c-1.07.31-2.15.67-3.22,1.09-27.49,10.57-51.52,53.23-52.48,93.15-.38,15.72,2.86,29.23,9.12,38.05h0a30.81,30.81,0,0,0,3,3.61c6.6,6.77,15.24,8.16,25.26,4.29,27.48-10.58,51.51-53.24,52.47-93.16.44-18.15-4-33.33-12.11-41.65A20,20,0,0,0,1778.68,356.86Z"/></g><g opacity="0.6"><path d="M1724,490.8c1.09-.31,2.2-.69,3.32-1.11,27.83-10.72,52.14-53.8,53.11-94.08.39-16-3-29.72-9.3-38.64-1.09.31-2.19.68-3.31,1.11-27.83,10.71-52.15,53.8-53.12,94.07C1714.31,468.13,1717.66,481.88,1724,490.8Z" fill="#ffb0d8"/><path d="M1724,491.8a1,1,0,0,1-.81-.43c-6.51-9.16-9.88-23.1-9.49-39.24,1-40.65,25.6-84.14,53.76-95,1.12-.43,2.27-.82,3.4-1.14a1,1,0,0,1,1.09.38c6.5,9.17,9.87,23.11,9.48,39.25-1,40.64-25.59,84.14-53.75,95-1.25.48-2.36.85-3.41,1.14A1.26,1.26,0,0,1,1724,491.8Zm46.72-133.67c-.85.26-1.7.56-2.54.89-27.49,10.57-51.52,53.23-52.48,93.15-.37,15.38,2.72,28.64,8.71,37.46.79-.24,1.63-.53,2.55-.88,27.48-10.58,51.51-53.24,52.47-93.16C1779.79,380.22,1776.7,367,1770.71,358.13Z"/></g><path d="M1584,421.12,1661.83,447a9.88,9.88,0,0,0,12-5h0a9.87,9.87,0,0,0-5.74-13.75l-77.83-25.91a9.89,9.89,0,0,0-12,5h0A9.88,9.88,0,0,0,1584,421.12Z" fill="#fff"/><path d="M1664.93,448.53a10.86,10.86,0,0,1-3.41-.55l-77.83-25.91a10.89,10.89,0,0,1,6.88-20.66l77.83,25.91a10.88,10.88,0,0,1-3.47,21.21Zm-77.78-45.67a8.88,8.88,0,0,0-2.83,17.31h0l77.83,25.91a8.88,8.88,0,1,0,5.61-16.86l-77.82-25.91A8.71,8.71,0,0,0,1587.15,402.86Z"/></g><polygon points="1480.47 654.08 1462.52 667.21 1291.3 574.74 1273.35 314.67 1291.3 301.55 1480.47 380.88 1480.47 654.08" fill="#fff0d4"/><path d="M1462.52,668.21a1,1,0,0,1-.47-.12l-171.23-92.47a1,1,0,0,1-.52-.81l-18-260.07a1,1,0,0,1,.41-.87l18-13.13a1,1,0,0,1,1-.12L1480.85,380a1,1,0,0,1,.62.93V654.08a1,1,0,0,1-.41.81l-18,13.13A1,1,0,0,1,1462.52,668.21Zm-170.26-94.08L1462.44,666l17-12.46v-272l-188-78.86-17,12.46Z"/><polygon points="1462.52 667.21 1273.35 587.87 1273.35 314.67 1462.52 394.01 1462.52 667.21" fill="#fff0d4"/><path d="M1462.52,668.21a.84.84,0,0,1-.38-.08L1273,588.79a1,1,0,0,1-.62-.92V314.67a1,1,0,0,1,1.39-.92l189.17,79.34a1,1,0,0,1,.61.92v273.2a1,1,0,0,1-.44.83A1,1,0,0,1,1462.52,668.21Zm-188.17-81,187.17,78.5v-271l-187.17-78.5Z"/><line x1="1424.72" y1="519.45" x2="1295.03" y2="465.05" fill="#fff0d4"/><path d="M1424.72,522a2.5,2.5,0,0,1-1-.2l-129.69-54.39a2.5,2.5,0,0,1,1.93-4.61l129.69,54.39a2.5,2.5,0,0,1-1,4.81Z"/><line x1="1424.72" y1="543.49" x2="1295.03" y2="489.1" fill="#fff0d4"/><path d="M1424.72,546a2.49,2.49,0,0,1-1-.19l-129.69-54.4a2.5,2.5,0,0,1,1.93-4.61l129.69,54.4a2.5,2.5,0,0,1-1,4.8Z"/><line x1="1424.72" y1="567.54" x2="1295.03" y2="513.14" fill="#fff0d4"/><path d="M1424.72,570a2.33,2.33,0,0,1-1-.2l-129.69-54.39a2.5,2.5,0,0,1,1.93-4.61l129.69,54.39a2.5,2.5,0,0,1-1,4.81Z"/><line x1="1349.27" y1="559.94" x2="1295.03" y2="537.19" fill="#fff0d4"/><path d="M1349.27,562.44a2.51,2.51,0,0,1-1-.2l-54.23-22.74a2.5,2.5,0,0,1,1.93-4.62l54.23,22.75a2.5,2.5,0,0,1-1,4.81Z"/><ellipse cx="1378.13" cy="386.24" rx="7.64" ry="13.42"/><rect x="1357.55" y="332.8" width="10.59" height="63.58" rx="5.09" transform="translate(10.29 765.66) rotate(-31.49)" fill="#fff"/><path d="M1376.63,393.56a6.11,6.11,0,0,1-5.21-2.91l-27.89-45.54a6.08,6.08,0,0,1,2-8.37l.35-.22a6.08,6.08,0,0,1,8.37,2l27.9,45.54a6.08,6.08,0,0,1-2,8.37l-.35.22A6,6,0,0,1,1376.63,393.56Zm-27.57-55.94a4.1,4.1,0,0,0-2.13.61l-.35.21a4.1,4.1,0,0,0-1.35,5.63l27.9,45.53a4.09,4.09,0,0,0,5.62,1.36l.36-.22a4.08,4.08,0,0,0,1.35-5.62l-27.9-45.54a4.14,4.14,0,0,0-3.5-2Z"/><path d="M1353.75,352.14c-17.86,11.54-37.85,12.37-44.65,1.85-3.28-5.08-2.88-11.87.42-18.83a2,2,0,0,1-.21-.3c-4.13-6.4,2.71-18.18,15.3-26.3,12.25-7.92,25.41-9.46,29.93-3.65,8.55-.61,15.7,1.79,19.25,7.28C1380.59,322.71,1371.62,340.6,1353.75,352.14Z" fill="#2f73c5"/><path d="M1325.79,362.37c-8.06,0-14.25-2.75-17.53-7.83s-3.24-11.92.11-19.29c-4.32-7,2.53-19,15.69-27.53,12.38-8,25.77-9.62,30.92-3.84,9-.52,16.11,2.3,19.65,7.76s3.23,12.71-.72,20.59c-3.86,7.7-10.83,15.07-19.62,20.75h0c-8.79,5.68-18.37,9-27,9.36Zm19.65-60c-5.74,0-13.24,2.43-20.29,7-11.89,7.68-18.76,19.09-15,24.92.06.1.11.16.15.22l.38.49-.26.55c-3.28,6.93-3.45,13.27-.48,17.87,3.09,4.78,9.22,7.23,17.29,6.89,8.26-.34,17.48-3.55,26-9h0c8.5-5.49,15.22-12.58,18.92-20,3.62-7.21,3.92-13.82.83-18.6-3.2-4.94-9.89-7.42-18.34-6.82l-.54,0-.32-.42C1352.11,303.42,1349.14,302.41,1345.44,302.41Z"/><path d="M1168.66,632.7c.81,20.33-38.2,38.37-87.14,40.3s-89.25-13-90-33.32c-.09-2.37.38-10.29.31-12-.8-20.33,38.22-38.37,87.15-40.3s89.24,13,90,33.32C1169.07,623.11,1168.59,631,1168.66,632.7Z" fill="#666"/><path d="M1073,674.17c-20.59,0-39.81-3-54.87-8.54-17.41-6.44-27.22-15.64-27.62-25.91-.06-1.32,0-4.16.16-6.92.09-2.22.18-4.32.14-5.06-.4-10.26,8.66-20.21,25.51-28,16.57-7.66,38.8-12.4,62.6-13.34s46.33,2,63.46,8.37c17.41,6.45,27.22,15.65,27.62,25.91,0,1.33-.06,4.17-.17,6.92-.09,2.22-.17,4.32-.14,5.06h0c.41,10.26-8.64,20.2-25.49,28-16.58,7.66-38.82,12.4-62.61,13.33C1078.68,674.11,1075.81,674.17,1073,674.17Zm14.48-85.94q-4.2,0-8.48.16c-48.3,1.92-87,19.53-86.19,39.27,0,.81,0,2.86-.14,5.22-.1,2.59-.22,5.52-.17,6.76.37,9.41,9.72,18,26.33,24.11,16.88,6.25,39.15,9.18,62.68,8.25s45.5-5.6,61.85-13.16c16.06-7.43,24.71-16.7,24.33-26.1,0-.82,0-2.86.14-5.22.11-2.59.22-5.51.17-6.76-.37-9.41-9.71-18-26.31-24.11C1126.81,591.16,1107.82,588.23,1087.45,588.23Z"/><ellipse cx="1080.38" cy="624.21" rx="88.67" ry="36.84" transform="translate(-23.75 43.03) rotate(-2.26)" fill="#e6e6e6"/><path d="M1073.3,662.18c-20.59,0-39.83-3-54.89-8.54-17.41-6.44-27.22-15.64-27.63-25.9s8.66-20.21,25.51-28c16.57-7.67,38.81-12.4,62.6-13.34s46.33,2,63.46,8.37c17.41,6.44,27.22,15.64,27.63,25.91s-8.66,20.2-25.51,28c-16.57,7.67-38.81,12.41-62.6,13.34C1079,662.13,1076.13,662.18,1073.3,662.18Zm14.17-73.95c-2.81,0-5.65,0-8.5.17-23.54.92-45.5,5.6-61.84,13.16-16.07,7.43-24.72,16.7-24.35,26.1s9.72,18,26.33,24.11c16.88,6.24,39.14,9.17,62.68,8.25,48.3-1.91,87-19.52,86.19-39.27-.37-9.4-9.72-18-26.32-24.1C1126.82,591.16,1107.83,588.23,1087.47,588.23Z"/><rect x="1068.62" y="531.81" width="18.79" height="91.3" rx="9.03" fill="#666"/><path d="M1078.38,624.11h-.73a10,10,0,0,1-10-10V540.84a10,10,0,0,1,10-10h.73a10,10,0,0,1,10,10v73.25A10,10,0,0,1,1078.38,624.11Zm-.73-91.3a8,8,0,0,0-8,8v73.25a8,8,0,0,0,8,8h.73a8,8,0,0,0,8-8V540.84a8,8,0,0,0-8-8Z"/><path d="M1083.9,543.49a112.86,112.86,0,0,1-43.24-8.93c-34.46-14.25-65.21-45.52-88.93-90.44-21.23-40.2-35.2-88.68-39.34-136.52-8.15-94.16,20.7-182.75,71.8-220.45,18.49-13.64,39.89-20.85,61.88-20.85,35.08,0,70.17,18.08,98.81,50.93,29.55,33.89,51.42,82.31,63.26,140,20.1,98.05,6.11,188.43-37.41,241.79C1147.34,527.7,1116.51,543.49,1083.9,543.49Z" fill="#b3b3b3"/><path d="M1083.9,544.49a113.82,113.82,0,0,1-43.62-9c-34.68-14.33-65.61-45.76-89.43-90.89-21.29-40.32-35.3-88.94-39.46-136.9-8.18-94.5,20.84-183.45,72.2-221.35,18.67-13.77,40.27-21,62.48-21h0c35.37,0,70.73,18.21,99.56,51.27,29.66,34,51.61,82.6,63.48,140.48,20.17,98.34,6.11,189-37.61,242.62C1147.92,528.57,1116.81,544.49,1083.9,544.49ZM1046.07,67.3c-21.78,0-43,7.14-61.29,20.65-50.83,37.5-79.52,125.74-71.39,219.57,4.13,47.7,18.06,96.05,39.22,136.14,23.61,44.71,54.19,75.82,88.43,90a112,112,0,0,0,42.86,8.85c32.3,0,62.86-15.65,86-44.08,43.34-53.13,57.25-143.21,37.21-241-11.8-57.55-33.6-105.82-63-139.57C1115.67,85.26,1080.85,67.3,1046.07,67.3Z"/><path d="M1063.05,553.27a113.09,113.09,0,0,1-43.24-8.93c-34.46-14.25-65.21-45.52-88.93-90.44-21.22-40.2-35.19-88.69-39.34-136.52-8.15-94.17,20.7-182.76,71.8-220.46,18.49-13.64,39.89-20.85,61.88-20.85,35.08,0,70.17,18.09,98.81,50.93,29.55,33.89,51.42,82.31,63.26,140,20.1,98,6.12,188.43-37.41,241.78C1126.5,537.48,1095.66,553.27,1063.05,553.27Z" fill="#e6e6e6"/><path d="M1063.05,554.27a113.86,113.86,0,0,1-43.62-9c-34.68-14.34-65.6-45.77-89.43-90.89-21.29-40.32-35.3-88.94-39.45-136.91C882.36,223,911.38,134,962.75,96.12c18.66-13.77,40.26-21.05,62.47-21.05,35.37,0,70.73,18.21,99.56,51.28,29.67,34,51.62,82.59,63.49,140.48,20.16,98.33,6.1,189-37.61,242.62C1127.08,538.35,1096,554.27,1063.05,554.27Zm-37.83-477.2c-21.77,0-43,7.14-61.28,20.66-50.83,37.5-79.53,125.73-71.4,219.56,4.13,47.7,18.06,96.06,39.23,136.14,23.6,44.71,54.18,75.82,88.43,90a111.83,111.83,0,0,0,42.85,8.86c32.3,0,62.86-15.66,86.06-44.09,43.33-53.12,57.24-143.2,37.2-240.95-11.8-57.55-33.6-105.81-63-139.57C1094.83,95,1060,77.07,1025.22,77.07Z"/><path d="M1166.9,271.21c36,175.65-46,292.38-139.13,253.89C964.72,499,920,405.22,912.28,315.58c-7.18-83,16.73-167.46,63.42-201.91C1040.16,66.11,1135.88,119.92,1166.9,271.21Z" fill="#2fbae6"/><path d="M1063,533.41a92.81,92.81,0,0,1-35.61-7.39c-30.14-12.45-57.45-40.59-79-81.37-20-37.92-33.21-83.72-37.13-129-3.55-41,.55-83.46,11.55-119.53,11.51-37.74,29.58-66.53,52.27-83.27,24.38-18,53.61-21.82,82.3-10.81,24.13,9.26,46.78,28.57,65.51,55.85,20.61,30,35.74,68.08,45,113.1,11,53.64,11.53,105.13,1.55,148.92-9.29,40.74-26.94,72.8-51,92.71C1101.72,526.42,1082.77,533.41,1063,533.41ZM1025.27,97.9c-17.32,0-34.08,5.58-49,16.58C954,131,936.12,159.4,924.74,196.73c-10.92,35.82-15,78-11.46,118.76,3.89,45,17,90.54,36.89,128.22,21.32,40.36,48.28,68.19,78,80.47,31.44,13,63,8.35,89-13.08,23.76-19.62,41.17-51.3,50.36-91.62,9.92-43.5,9.38-94.71-1.56-148.07-17.5-85.34-58.33-148-109.23-167.48A87.45,87.45,0,0,0,1025.27,97.9Z"/><path d="M1175.41,363.18q-.47,15.54-2.3,29.94a249.31,249.31,0,0,1-12.82,54.42c-.26.72-.53,1.44-.8,2.15-1.8,4.75-3.73,9.34-5.79,13.73-23.2,49.52-62.45,75.59-106,67.63a98.77,98.77,0,0,1-19.92-5.94C964.72,499,920,405.22,912.28,315.58a341.25,341.25,0,0,1-1.21-34.82l0-2q.25-10.56,1.14-20.94.82-9.78,2.23-19.33a289.24,289.24,0,0,1,6.43-31.84c1.62-6.24,3.45-12.33,5.47-18.23q2.58-7.55,5.57-14.65a182.2,182.2,0,0,1,14.33-27.59c8.43-13.23,18.28-24.3,29.43-32.54,64.46-47.56,160.17,6.25,191.2,157.55a411.25,411.25,0,0,1,8.62,76Q1175.65,355.31,1175.41,363.18Z" fill="#2fbae6"/><path d="M1063,533.45a85.32,85.32,0,0,1-15.48-1.42,99.91,99.91,0,0,1-20.13-6c-30.13-12.46-57.44-40.6-79-81.38-20-37.92-33.21-83.73-37.13-129a342.48,342.48,0,0,1-1.21-34.93l0-2c.17-7.1.55-14.17,1.14-21,.54-6.43,1.3-12.95,2.24-19.4a292.49,292.49,0,0,1,6.45-31.94c1.61-6.19,3.46-12.35,5.49-18.31,1.7-5,3.58-9.91,5.6-14.71a183.39,183.39,0,0,1,14.41-27.74c8.69-13.64,18.67-24.67,29.68-32.8,24.37-18,53.6-21.82,82.29-10.81,24.13,9.26,46.78,28.57,65.51,55.85,20.61,30,35.74,68.08,45,113.1a413.05,413.05,0,0,1,8.64,76.15c.09,5.26,0,10.66-.11,16h0c-.31,10.31-1.09,20.42-2.31,30a250.45,250.45,0,0,1-12.87,54.64c-.26.72-.53,1.44-.81,2.15-1.83,4.84-3.79,9.49-5.81,13.81C1133.75,508.37,1100.26,533.45,1063,533.45ZM1025.27,97.91c-17.32,0-34.08,5.58-49,16.57-10.8,8-20.62,18.83-29.18,32.26a183.6,183.6,0,0,0-14.25,27.44c-2,4.76-3.86,9.67-5.54,14.59-2,5.91-3.86,12-5.46,18.16a293.89,293.89,0,0,0-6.41,31.73c-.93,6.41-1.68,12.89-2.22,19.28-.58,6.8-1,13.83-1.13,20.87l0,2a338.37,338.37,0,0,0,1.21,34.72c3.89,45,17,90.54,36.9,128.22,21.31,40.37,48.27,68.19,78,80.47a97.44,97.44,0,0,0,19.71,5.88c42.4,7.75,81.63-17.32,104.94-67.06,2-4.28,3.94-8.88,5.75-13.67.27-.7.54-1.42.8-2.13a248.87,248.87,0,0,0,12.77-54.2c1.21-9.56,2-19.6,2.29-29.85.16-5.36.2-10.72.11-16a410.57,410.57,0,0,0-8.6-75.77c-17.5-85.35-58.34-148-109.23-167.49A87.43,87.43,0,0,0,1025.27,97.91Z"/><path d="M1175.41,363.18c-1,31.91-6.34,60.33-15.12,84.36-.26.72-.53,1.44-.8,2.15l-245-211.17c3.4-23.3,9.3-45.33,17.47-64.72a182.2,182.2,0,0,1,14.33-27.59l229.25,201Q1175.65,355.31,1175.41,363.18Z" fill="#fff"/><path d="M1159.49,450.19a.51.51,0,0,1-.33-.13l-245-211.17a.51.51,0,0,1-.17-.45c3.45-23.63,9.34-45.45,17.51-64.84a183.73,183.73,0,0,1,14.37-27.66.47.47,0,0,1,.35-.23.49.49,0,0,1,.4.12l229.25,201a.56.56,0,0,1,.17.37c.09,5.25,0,10.65-.11,16h0c-.93,31.13-6,59.56-15.15,84.51-.26.72-.53,1.44-.81,2.15a.46.46,0,0,1-.34.31ZM915,238.32l244.27,210.52c.19-.49.37-1,.55-1.47,9.08-24.85,14.16-53.18,15.09-84.2.16-5.29.2-10.59.11-15.76L946.38,147a183.13,183.13,0,0,0-14,27C924.3,193.23,918.45,214.87,915,238.32Zm260.41,124.86h0Z"/><g opacity="0.7" style="mix-blend-mode:multiply"><path d="M1173.11,393.12a249.31,249.31,0,0,1-12.82,54.42c-.26.72-.53,1.44-.8,2.15-1.8,4.75-3.73,9.34-5.79,13.73-23.2,49.52-62.45,75.59-106,67.63a98.77,98.77,0,0,1-19.92-5.94C964.72,499,920,405.22,912.28,315.58a341.25,341.25,0,0,1-1.21-34.82c-.37-.59-.35-1.92,0-2,21.52-3.3,45.6-1.4,71.17,6.34q7.11,2.14,14.38,4.91c.83.31,1.65.64,2.49,1a242.88,242.88,0,0,1,31.48,15.13,195.65,195.65,0,0,1,22.38,5.71c3.83,1.22,7.68,2.56,11.58,4a238.07,238.07,0,0,1,22,9.7C1118.77,341.73,1148.35,365.27,1173.11,393.12Z" fill="#ed4e6d"/><path d="M1063,533.45a85.32,85.32,0,0,1-15.48-1.42,99.91,99.91,0,0,1-20.13-6c-30.13-12.46-57.44-40.6-79-81.38-20-37.92-33.21-83.73-37.13-129A343.45,343.45,0,0,1,910.07,281a3.38,3.38,0,0,1-.07-2.44,1.27,1.27,0,0,1,1-.75c22.26-3.41,46.35-1.27,71.59,6.37,4.67,1.41,9.53,3.07,14.44,4.94.84.31,1.67.64,2.51,1A246.45,246.45,0,0,1,1031,305.19a196.56,196.56,0,0,1,22.34,5.71c3.9,1.24,7.81,2.61,11.62,4.07a237.84,237.84,0,0,1,22.11,9.74c31.38,15.73,61.4,39.16,86.82,67.75l.3.34-.06.45a250.45,250.45,0,0,1-12.87,54.64c-.26.72-.53,1.44-.81,2.15-1.83,4.84-3.79,9.49-5.81,13.81C1133.75,508.37,1100.26,533.45,1063,533.45ZM911.8,279.7a1.38,1.38,0,0,0,.12.53l.16.25v.29a338.37,338.37,0,0,0,1.21,34.72c3.89,45,17,90.54,36.9,128.22,21.31,40.37,48.27,68.19,78,80.47a97.44,97.44,0,0,0,19.71,5.88c42.4,7.75,81.63-17.32,104.94-67.06,2-4.28,3.94-8.88,5.75-13.67.27-.7.54-1.42.8-2.13a248,248,0,0,0,12.71-53.75c-25.18-28.25-54.88-51.39-85.92-66.95a236.44,236.44,0,0,0-21.92-9.66c-3.77-1.45-7.65-2.8-11.52-4a193.24,193.24,0,0,0-22.27-5.69l-.16,0-.15-.08a244.2,244.2,0,0,0-31.35-15.07l-2.47-1c-4.87-1.86-9.69-3.5-14.32-4.89C957.23,278.6,933.63,276.45,911.8,279.7Zm-.52.08h0Z"/><path d="M1153.7,463.42c-23.2,49.52-62.45,75.59-106,67.63-.16-1.81-.23-3.63-.23-5.44C1047.46,481,1094.57,453.78,1153.7,463.42Z" fill="#fff0d4"/><path d="M1063,533.45a85.32,85.32,0,0,1-15.48-1.42l-.76-.14-.06-.76c-.16-1.78-.23-3.64-.23-5.53,0-17.73,7.26-33.28,21-45,20.26-17.23,51.75-23.87,86.4-18.21l1.31.21-.56,1.2C1133.75,508.37,1100.26,533.45,1063,533.45Zm-14.37-3.25c41.77,7.25,80.38-17.35,103.61-66-33.55-5.18-63.92,1.34-83.48,18-13.27,11.29-20.29,26.31-20.29,43.43C1048.46,527.16,1048.51,528.71,1048.62,530.2Z"/><path d="M1033,375.61s-2.59-.86-7.09-2.68c-20.27-8.18-79.34-35.83-114.82-92.17-.37-.59.57-16,1.17-22.91q.82-9.78,2.23-19.33a289.24,289.24,0,0,1,6.43-31.84c1.62-6.24,3.45-12.33,5.47-18.23a250.22,250.22,0,0,1,73.44,79.11c-3.1,6.09-3.2,15-.67,23.45a42,42,0,0,0,2.78,7c5.09,8.5,12.34,16.19,20.14,20.51a264.93,264.93,0,0,1,7.55,31.27h0c1.37,7.69,2.45,15.67,3.19,23.95,0,.2,0,.4.07.6C1032.91,374.8,1033,375.19,1033,375.61Z" fill="#80ca7a"/><path d="M1034.09,377l-1.42-.47c-.11,0-2.68-.89-7.15-2.7-23-9.27-80.21-36.85-115.29-92.57-.79-1.25,1-23.3,1-23.52.54-6.43,1.3-12.95,2.24-19.4a292.49,292.49,0,0,1,6.45-31.94c1.61-6.19,3.46-12.35,5.49-18.31l.43-1.25,1.09.76c21.11,14.69,51,40.4,73.74,79.43l.27.47-.25.49c-2.91,5.72-3.14,14.21-.61,22.7a43.78,43.78,0,0,0,2.72,6.88c5.22,8.69,12.43,16,19.74,20.07l.35.2.12.38a267,267,0,0,1,7.57,31.39l0,.1c1.4,7.85,2.47,15.9,3.19,23.95l.07.7c0,.38.08.75.11,1.14ZM912,280.37c34.78,55.13,91.48,82.44,114.26,91.64,2.47,1,4.37,1.71,5.57,2.14l0-.28c-.72-8-1.79-16.05-3.19-23.86v-.1a263.52,263.52,0,0,0-7.39-30.69c-7.48-4.24-14.81-11.75-20.16-20.66a43.9,43.9,0,0,1-2.88-7.26c-2.61-8.74-2.41-17.55.5-23.7-22.1-37.79-51-62.93-71.79-77.57-1.85,5.51-3.54,11.19-5,16.9a293.89,293.89,0,0,0-6.41,31.73c-.93,6.41-1.68,12.89-2.22,19.28C912.59,265.43,911.83,278.65,912,280.37Z"/><path d="M1033,375.61s-2.59-.86-7.09-2.68c-20.27-8.18-79.34-35.83-114.82-92.17-.37-.59.57-16,1.17-22.91q.82-9.78,2.23-19.33a289.24,289.24,0,0,1,6.43-31.84c22.54,23.86,42.71,50,61.37,78.45A871.42,871.42,0,0,1,1027,362.34c1.16,2.26,2.33,4.53,3.49,6.81.71,1.37,1.6,2.65,2.21,4l.06.62c0,.2,0,.4.07.6C1032.91,374.8,1033,375.19,1033,375.61Z" fill="#80ca7a"/><path d="M1034.09,377l-1.42-.47c-.11,0-2.68-.89-7.15-2.7-23-9.27-80.21-36.85-115.29-92.57-.79-1.25,1-23.3,1-23.52.54-6.43,1.3-12.95,2.24-19.4a292.49,292.49,0,0,1,6.45-31.94l.46-1.74,1.23,1.3c21.86,23.14,42,48.85,61.48,78.59a867,867,0,0,1,44.83,77.3l3.5,6.81c.28.56.6,1.1.92,1.64.45.78.92,1.58,1.3,2.42l.07.15.15,1.49c0,.38.08.75.11,1.14ZM912,280.37c34.78,55.13,91.48,82.44,114.26,91.64,2.47,1,4.37,1.71,5.57,2.14l-.08-.72c-.32-.69-.72-1.37-1.14-2.09-.33-.57-.67-1.14-1-1.74-1.17-2.28-2.33-4.54-3.5-6.8a862.94,862.94,0,0,0-44.72-77.12c-19.08-29.08-38.72-54.29-60-77a295.27,295.27,0,0,0-6,30c-.93,6.41-1.68,12.89-2.22,19.28C912.59,265.43,911.83,278.65,912,280.37Z"/><path d="M1090.5,293.36c-3-6.38-11.42-12.72-16.75-10.77-29.87,10.93-43.85,39.38-45,76.25-.21,6.52.25,12.33,6.59,14.74,7,2.65,6.38-3.18,6.59-9.73.87-27.15,21.68-47.18,44.21-55.42C1091.4,306.5,1094.1,300.89,1090.5,293.36Z" fill="#a57f6a"/><path d="M1038.24,375.24a9.44,9.44,0,0,1-3.29-.72c-7-2.69-7.44-9.24-7.23-15.72,1.28-40,17.08-66.68,45.69-77.15,4.86-1.77,14,2.86,18,11.28h0c1.92,4,2.26,7.78,1,10.9a9.94,9.94,0,0,1-5.94,5.54c-19.51,7.14-42.63,25.7-43.55,54.52,0,.59,0,1.17,0,1.74-.09,4-.17,7.5-2.34,9A4,4,0,0,1,1038.24,375.24Zm37.68-92a5.23,5.23,0,0,0-1.82.3c-27.78,10.16-43.12,36.21-44.38,75.34-.24,7.38.64,11.76,6,13.78,1.76.67,3,.77,3.73.29,1.32-.89,1.38-4,1.46-7.36,0-.57,0-1.16,0-1.76a56.74,56.74,0,0,1,14.22-35.42,75,75,0,0,1,30.64-20.91,7.85,7.85,0,0,0,4.78-4.41c1-2.59.73-5.8-.94-9.29C1087.08,288.53,1080.67,283.23,1075.92,283.23Z"/></g><path d="M1339.58,331.73c-12.58,8.13-26.14,9.54-30.27,3.13-3.48-5.38-4.09-19.77-6.53-23.53-3.24-5,2.14-14.28,12-20.68s20.56-7.5,23.81-2.47c2.56,4,13,12.12,16.27,17.23C1359,311.81,1352.17,323.59,1339.58,331.73Z" fill="#2f73c5"/><path d="M1318.78,339.88c-4.81,0-8.42-1.55-10.31-4.47-2-3.1-3-8.63-4-14-.77-4.11-1.49-8-2.5-9.54-3.6-5.58,1.82-15.27,12.33-22.07s21.58-7.75,25.19-2.17c1.14,1.76,4,4.5,7.09,7.41,3.62,3.45,7.36,7,9.18,9.82,4.5,7-2.36,19.14-15.61,27.7h0c-6.21,4-12.87,6.56-18.74,7.17C1320.48,339.83,1319.61,339.88,1318.78,339.88ZM1331.2,286c-4.46,0-10.33,1.89-15.84,5.44-9.26,6-14.63,14.83-11.74,19.31,1.22,1.88,2,5.77,2.78,10.27.92,4.92,2,10.5,3.75,13.26s5.69,4,11,3.43c5.57-.57,11.91-3,17.87-6.86,11.9-7.69,18.77-19.11,15-24.94-1.69-2.61-5.35-6.09-8.88-9.45-3.15-3-6.12-5.82-7.39-7.78S1334.23,286,1331.2,286Z"/><path d="M1333,285.16c-4.85-.62-11.69,1.28-18.21,5.49-9.89,6.4-15.27,15.66-12,20.68,1.36,2.1,2.15,7.48,3.18,12.77C1324.82,322.09,1335.39,304,1333,285.16Z"/><path d="M1325,306.92c-10,6.43-20.65,7.54-23.92,2.48-1.34-2.07-18.18-5.69-21.5-10.84-4.87-7.53,3.2-21.39,18-31s30.76-11.22,35.63-3.69c3.06,4.74,2.35,19.9,3.86,22.24C1340.3,291.2,1334.89,300.5,1325,306.92Z" fill="#2f73c5"/><path d="M1308.52,313.57c-3.87,0-6.79-1.26-8.32-3.63-.46-.56-3.74-1.75-6.38-2.71-5.75-2.09-12.91-4.69-15.13-8.12-5.24-8.12,2.8-22.33,18.3-32.36s31.77-11.5,37-3.39c1.94,3,2.43,9.32,2.86,14.89.24,3.09.52,6.59,1,7.35,1.8,2.77,1.42,6.65-1.06,10.92a35.18,35.18,0,0,1-11.32,11.24h0a35.06,35.06,0,0,1-14.9,5.7A18.68,18.68,0,0,1,1308.52,313.57Zm13.5-53.44c-6.73,0-15.52,2.86-23.94,8.3-14.32,9.26-22.27,22.54-17.71,29.59,1.85,2.87,9,5.45,14.14,7.33,4.5,1.63,6.69,2.47,7.36,3.5,1.37,2.12,4.4,3,8.51,2.62a33.09,33.09,0,0,0,14-5.39h0a33.29,33.29,0,0,0,10.67-10.56c2.08-3.59,2.48-6.72,1.11-8.84-.72-1.12-1-3.74-1.31-8.27-.4-5.08-.89-11.39-2.55-14C1330.45,261.54,1326.74,260.13,1322,260.13Z"/><ellipse cx="1306.35" cy="281.24" rx="31.93" ry="16.24" transform="translate(56.51 754.03) rotate(-32.87)" fill="#2f73c5"/><path d="M1290.68,304.29c-5.6,0-9.8-1.79-12-5.18-2.57-4-2-9.57,1.6-15.77,3.48-6,9.41-11.87,16.7-16.58s15.11-7.7,22-8.42c7.13-.73,12.46,1.05,15,5s2,9.58-1.6,15.77c-3.48,6-9.41,11.87-16.71,16.58s-15.1,7.7-22,8.42A29.25,29.25,0,0,1,1290.68,304.29ZM1322,260.18a28.39,28.39,0,0,0-2.85.15c-6.58.68-14.08,3.56-21.11,8.11s-12.74,10.19-16.06,15.91c-3.2,5.51-3.79,10.36-1.65,13.67s6.8,4.77,13.14,4.12c6.58-.68,14.07-3.56,21.11-8.11s12.74-10.19,16.06-15.91c3.2-5.51,3.79-10.36,1.65-13.67h0C1330.53,261.66,1326.92,260.18,1322,260.18Z"/><path d="M1295.51,437.56l6.7-28.71,4.52,1.85c3.69,21.7,4.33,26.28,4.47,27.92l0,0c.67-3.87,1.78-8.88,2.87-13.55l2.42-10.36,3.48,1.43-6.7,28.71-4.29-1.76c-3.75-22.63-4.36-27.26-4.52-28.87l0,0c-.63,3.67-1.72,9-2.93,14.14L1299,439Z"/><path d="M1340,441.39c-1.91,8.05-5.36,12.7-11.64,10.11-8-3.27-8.37-11.85-6.44-20,1.64-7,5.1-12.9,11.66-10.21C1341.23,424.39,1342.09,432.6,1340,441.39Zm-14.37-7.92c-1.51,6.63-1.75,12.91,3,14.85,3.86,1.58,6-1.89,7.67-8.83,1.57-6.39,2.21-12.92-2.91-15C1329.25,422.78,1327,427.43,1325.64,433.47Z"/><path d="M1350.4,431.93l-6.77-2.78.73-3,17.26,7.09-.73,3-6.76-2.77-6,25.72-3.74-1.54Z"/><path d="M1375.76,455.48l-10.33-4.25L1363,462l12.09,5-1.24,2.78-15.25-6.26,6.7-28.71,14.52,6-.75,3-10.83-4.44-2,9,10.34,4.24Z"/><path d="M1382,464.78c0,3.13,1.31,6.16,4.71,7.55,2.53,1,4.32.28,4.86-2.22s-.23-5.24-4-9.8c-4.47-5.36-6.19-8.87-5.39-12.77.69-3.39,3.39-5,7.87-3.12,6.79,2.79,7.93,8.56,7.59,11.53l-3.58-1.47a6.78,6.78,0,0,0-4.2-7c-2.37-1-3.72-.14-4.1,1.86-.45,2.37.36,4.38,4.09,8.83,5.31,6.36,6.41,10,5.42,14-.88,3.61-3.75,5.28-8.61,3.28-7-2.88-8.49-8.29-8.24-12.13Z"/><path d="M1389.35,505.51a1.5,1.5,0,0,0,0-3,1.5,1.5,0,0,0,0,3Z"/><path d="M714.33,675c-24.23,16.59-129.66,46.44-208.74,61.36-58.1-.31-80.88-17.5-62.7-38.2,17.93-20.41,75.21-43.67,141-54.24C669.83,630,740.74,641.69,714.33,675Z"/><path d="M715.69,599.9,564,527c-21.17-10.18-55.8-11.16-77-2.19L226.07,635.38c-21.16,9-21.36,25-.42,35.65L377,747.91c20.93,10.63,55.28,11.78,76.33,2.54L715.9,635.2C736.94,626,736.85,610.08,715.69,599.9Z" fill="#666"/><path d="M418.94,757.7c-15.23,0-30.81-3-42.4-8.9L225.2,671.92c-10.65-5.41-16.37-12.39-16.12-19.65.24-7,6.14-13.38,16.6-17.81L486.61,523.85c21.45-9.09,56.35-8.1,77.79,2.21L716.12,599h0c10.76,5.18,16.62,12,16.5,19.19-.12,7-5.92,13.36-16.32,17.92L453.72,751.37C444,755.62,431.61,757.7,418.94,757.7ZM522.05,519.61c-12.63,0-25,2-34.66,6.08L226.46,636.3c-9.7,4.11-15.17,9.81-15.38,16-.22,6.44,5.11,12.76,15,17.8L377.44,747c20.76,10.54,54.62,11.67,75.47,2.52L715.5,634.28c9.64-4.23,15-10,15.12-16.12s-5.49-12.61-15.37-17.35L563.53,527.86C552.17,522.4,537,519.61,522.05,519.61Z"/><path d="M715.69,591.78,564,518.84c-21.17-10.18-55.8-11.16-77-2.19L226.07,627.25c-21.16,9-21.36,25-.42,35.66L377,739.79c20.93,10.63,55.28,11.78,76.33,2.54L715.9,627.08C736.94,617.84,736.85,602,715.69,591.78Z" fill="#2fbae6"/><path d="M418.94,749.58c-15.23,0-30.82-3-42.4-8.9L225.2,663.8c-10.65-5.41-16.37-12.39-16.12-19.65.24-7,6.14-13.38,16.6-17.82l260.93-110.6c21.45-9.09,56.35-8.11,77.79,2.2l151.72,73c10.76,5.18,16.62,12,16.5,19.19-.12,7-5.92,13.36-16.32,17.92L453.72,743.25C444,747.5,431.61,749.58,418.94,749.58Zm103.12-238.1c-12.63,0-25,2-34.67,6.09L226.46,628.18c-9.7,4.11-15.17,9.81-15.38,16-.22,6.44,5.11,12.76,15,17.79l151.34,76.88c20.76,10.55,54.61,11.68,75.47,2.52L715.5,626.16c9.64-4.23,15-10,15.12-16.13s-5.49-12.6-15.37-17.35L563.53,519.74C552.17,514.27,537,511.48,522.06,511.48Z"/><path d="M690.14,593.33,549.65,525.79c-19.59-9.42-51.66-10.33-71.26-2L236.79,626.18c-19.6,8.3-19.78,23.16-.39,33l140.13,71.18c19.38,9.85,51.19,10.91,70.67,2.36L690.34,626C709.82,617.46,709.73,602.75,690.14,593.33Z" fill="#fff0d4"/><path d="M415.38,739.51c-14.12,0-28.57-2.79-39.31-8.25L236,660.08c-9.89-5-15.2-11.51-15-18.26.23-6.56,5.7-12.45,15.42-16.56L478,522.84c19.88-8.42,52.22-7.51,72.09,2l140.48,67.54c10,4.81,15.44,11.14,15.32,17.84-.11,6.5-5.49,12.42-15.15,16.66L447.6,733.64C438.63,737.58,427.11,739.51,415.38,739.51Zm95.47-220.46c-11.68,0-23.16,1.86-32.07,5.64L237.18,627.1c-9,3.79-14,9-14.2,14.79s4.85,11.82,13.87,16.41L377,729.48c19.2,9.76,50.52,10.8,69.82,2.33L689.93,625.1c8.91-3.91,13.86-9.19,14-14.87s-5.07-11.61-14.19-16L549.22,526.69C538.71,521.64,524.63,519.05,510.85,519.05Z"/><path d="M715.69,565.11,564,492.16C542.8,482,508.17,481,487,490L226.07,600.58c-21.16,9-21.36,25-.42,35.65L377,713.11c20.93,10.64,55.28,11.78,76.33,2.54L715.9,600.4C736.94,591.16,736.85,575.28,715.69,565.11Z" fill="#666"/><path d="M418.94,722.9c-15.23,0-30.81-3-42.4-8.9L225.2,637.12c-10.65-5.41-16.37-12.38-16.12-19.64.24-7.06,6.14-13.39,16.6-17.82L486.61,489.05C508.06,480,543,481,564.4,491.26l151.72,73c10.76,5.17,16.62,12,16.5,19.18-.12,7-5.92,13.36-16.32,17.93L453.72,716.57C444,720.82,431.61,722.9,418.94,722.9ZM522.05,484.81c-12.63,0-25,2-34.66,6.09L226.46,601.5c-9.7,4.11-15.17,9.81-15.38,16-.22,6.43,5.11,12.75,15,17.79l151.34,76.88c20.76,10.54,54.61,11.67,75.47,2.52L715.5,599.48c9.64-4.23,15-10,15.12-16.12s-5.49-12.6-15.37-17.35L563.53,493.06C552.17,487.6,537,484.81,522.05,484.81Z"/><path d="M715.69,557,564,484c-21.17-10.18-55.8-11.16-77-2.19L226.07,592.46c-21.16,9-21.36,25-.42,35.65L377,705c20.93,10.63,55.28,11.78,76.33,2.54L715.9,592.28C736.94,583,736.85,567.16,715.69,557Z" fill="#2fbae6"/><path d="M418.94,714.78c-15.23,0-30.81-3-42.4-8.9L225.2,629c-10.65-5.41-16.37-12.38-16.12-19.65.24-7.05,6.14-13.38,16.6-17.81L486.61,480.93c21.45-9.09,56.35-8.1,77.79,2.21l151.72,72.94c10.76,5.18,16.62,12,16.5,19.19-.12,7-5.92,13.36-16.32,17.92L453.72,708.45C444,712.7,431.61,714.78,418.94,714.78ZM522.05,476.69c-12.63,0-25,2-34.66,6.08L226.46,593.38c-9.7,4.11-15.17,9.81-15.38,16-.22,6.44,5.11,12.76,15,17.8L377.44,704.1c20.76,10.54,54.62,11.67,75.47,2.52L715.5,591.36c9.64-4.23,15-10,15.12-16.12s-5.49-12.61-15.37-17.35L563.53,484.94C552.17,479.48,537,476.69,522.05,476.69Z"/><path d="M293.36,611.38l-23.63,11.29c-3.29,1.58-.47,5.85,6.27,9.49l83.06,44.91c6.74,3.65,15.17,5.4,18.72,3.91l25.73-10.82c3.56-1.49.85-5.71-6-9.37l-85.66-45.62C305,611.51,296.66,609.81,293.36,611.38Z" fill="#f2f2f2"/><path d="M374.4,682.51c-4.38,0-10.51-1.69-15.81-4.56L275.52,633c-5.18-2.8-8.23-6-8.16-8.53a3.1,3.1,0,0,1,1.94-2.74l23.63-11.29h0c3.62-1.73,12.13-.05,19.38,3.81L398,659.91c5.19,2.77,8.22,5.91,8.11,8.41a3.15,3.15,0,0,1-2.18,2.77L378.17,681.9A10,10,0,0,1,374.4,682.51Zm-80.61-70.22-23.62,11.28c-.8.38-.81.82-.81,1,0,1.37,2.17,4.05,7.11,6.72l83.07,44.91c6.41,3.47,14.59,5.24,17.86,3.87l25.72-10.82c.93-.39.95-.84,1-1,.06-1.32-2.12-3.93-7.05-6.55l-85.66-45.63c-7.2-3.83-14.9-5-17.58-3.76Z"/><ellipse cx="433.49" cy="646.24" rx="48.84" ry="68.43" transform="translate(-225.75 1059.69) rotate(-88.24)" fill="#ffdc49"/><path d="M434.93,696.1h-.05c-38.26,0-70-22.39-70.79-49.87-.3-10.53,3.91-20.59,12.18-29.09,12.64-13,33.49-20.76,55.78-20.76h.05c38.25,0,70,22.39,70.79,49.87h0c.3,10.53-3.92,20.59-12.19,29.09C478.06,688.34,457.21,696.1,434.93,696.1Zm-2.88-97.72c-21.76,0-42.07,7.53-54.34,20.15-7.89,8.11-11.91,17.67-11.62,27.64.75,26.41,31.61,47.91,68.79,47.93h.05c21.76,0,42.07-7.53,54.34-20.15,7.88-8.11,11.9-17.67,11.62-27.64-.75-26.41-31.61-47.91-68.79-47.93Z"/><path d="M470.46,648.53c-5.58,10.44-19.68,17.8-36.4,17.79-16.48,0-30.81-7.17-37.14-17.37" fill="#ffdc49"/><path d="M434.09,667.32h0c-16.36,0-31.27-7-38-17.84l1.7-1.06c6.36,10.26,20.61,16.89,36.29,16.9h0c16,0,29.88-6.77,35.49-17.26l1.77.94C465.39,660.13,450.77,667.32,434.09,667.32Z"/><path d="M479.57,648.53s-11.11,3.53-13.13-5.94" fill="#ffdc49"/><path d="M475.08,650.18a11,11,0,0,1-5.53-1.33,8.73,8.73,0,0,1-4.09-6.05l2-.42a6.84,6.84,0,0,0,3.14,4.74c3.53,2,8.67.48,8.72.46l.6,1.91A17.61,17.61,0,0,1,475.08,650.18Z"/><path d="M386.93,648.48s11.31,3.54,12.79-5.93" fill="#ffdc49"/><path d="M391.47,650.13a18.19,18.19,0,0,1-4.84-.69l.59-1.91c.06,0,5.36,1.62,8.76-.5a6.27,6.27,0,0,0,2.75-4.64l2,.31a8.19,8.19,0,0,1-3.68,6A10.57,10.57,0,0,1,391.47,650.13Z"/><ellipse cx="408.92" cy="628.02" rx="7.79" ry="6.81" transform="translate(-320.4 455.62) rotate(-43.63)"/><path d="M407.93,636.31a7.39,7.39,0,0,1-5.06-1.91,7.26,7.26,0,0,1-2.29-5.14,9.15,9.15,0,0,1,2.61-6.55c3.33-3.51,8.62-4,11.78-1.07a7.24,7.24,0,0,1,2.29,5.13,9.21,9.21,0,0,1-2.61,6.56A9.38,9.38,0,0,1,407.93,636.31Zm2-14.59a7.37,7.37,0,0,0-5.27,2.37,7.16,7.16,0,0,0-2.06,5.11,5.24,5.24,0,0,0,1.65,3.73c2.36,2.18,6.39,1.74,9-1h0a7.18,7.18,0,0,0,2.06-5.11,5.22,5.22,0,0,0-1.65-3.73A5.36,5.36,0,0,0,409.91,621.72Z" fill="#ffdc49"/><ellipse cx="457.39" cy="628.04" rx="7.79" ry="6.81" transform="translate(-307.03 489.08) rotate(-43.63)"/><path d="M456.4,636.33a7.37,7.37,0,0,1-5-1.9,7.25,7.25,0,0,1-2.3-5.14,9.23,9.23,0,0,1,2.61-6.55c3.33-3.51,8.62-4,11.78-1.08a7.24,7.24,0,0,1,2.29,5.14,9.18,9.18,0,0,1-2.6,6.55h0A9.36,9.36,0,0,1,456.4,636.33Zm2-14.58a7.4,7.4,0,0,0-5.27,2.36,7.18,7.18,0,0,0-2.06,5.11A5.3,5.3,0,0,0,452.7,633c2.36,2.18,6.39,1.74,9-1h0a7.21,7.21,0,0,0,2.05-5.11,5.24,5.24,0,0,0-1.65-3.74A5.38,5.38,0,0,0,458.38,621.75Z" fill="#ffdc49"/><path d="M306.34,602.28h-12c0-12.19-10.65-26.92-23.26-32.17-5.7-2.37-10.93-2.43-14.34-.16-3.56,2.38-4.31,6.7-4.31,9.9a24.61,24.61,0,0,0,.71,5.69l-11.67,2.8a36.56,36.56,0,0,1-1-8.49c0-8.67,3.43-15.73,9.66-19.88,6.79-4.54,16.13-4.88,25.6-.94C292.88,566.18,306.34,585.18,306.34,602.28Z"/><path d="M301,607.28c-4.72-.22-8.41-2.79-8.78-6.11a4.69,4.69,0,0,1,1.3-3.8,8.71,8.71,0,0,1,6.66-2.28h.25c4.71.22,8.41,2.79,8.78,6.1a4.73,4.73,0,0,1-1.31,3.8,8.69,8.69,0,0,1-6.65,2.29Z"/><ellipse cx="300.72" cy="601.19" rx="3.06" ry="5.5" transform="translate(-332.07 827.98) rotate(-83.14)"/><path d="M352,583.09H340c0-12.19-10.66-26.92-23.27-32.17-5.7-2.37-10.93-2.43-14.33-.16-3.57,2.38-4.32,6.7-4.32,9.9a24.54,24.54,0,0,0,.71,5.69l-11.67,2.8a36.56,36.56,0,0,1-1-8.49c0-8.67,3.43-15.73,9.66-19.88,6.8-4.54,16.13-4.88,25.6-.94C338.51,547,352,566,352,583.09Z"/><path d="M346.64,588.09c-4.72-.22-8.41-2.79-8.78-6.11a4.73,4.73,0,0,1,1.3-3.8,8.71,8.71,0,0,1,6.66-2.28h.25c4.72.22,8.41,2.79,8.78,6.1a4.79,4.79,0,0,1-1.3,3.81,8.73,8.73,0,0,1-6.66,2.28Z"/><ellipse cx="346.35" cy="582" rx="3.06" ry="5.5" transform="translate(-272.83 856.39) rotate(-83.14)"/><path d="M415.59,554.35h-12c0-12.78-11.16-28.21-24.36-33.7-6-2.51-11.54-2.56-15.15-.15-3.81,2.54-4.6,7.11-4.6,10.51a26.07,26.07,0,0,0,.74,6l-11.67,2.8a38.09,38.09,0,0,1-1.07-8.78c0-8.94,3.53-16.21,9.94-20.49,7-4.67,16.63-5,26.42-.95C401.64,517,415.59,536.64,415.59,554.35Z"/><path d="M410.28,559.55c-4.91-.23-8.76-2.9-9.14-6.35a5,5,0,0,1,1.35-4,9.07,9.07,0,0,1,6.94-2.37h.25c4.91.23,8.76,2.9,9.14,6.35a5,5,0,0,1-1.35,4,9.09,9.09,0,0,1-6.93,2.37Z"/><ellipse cx="409.98" cy="553.21" rx="3.18" ry="5.72" transform="translate(-188.22 894.22) rotate(-83.14)"/><path d="M463.08,534.38h-12c0-12.78-11.16-28.21-24.36-33.7-6-2.51-11.54-2.56-15.15-.15-3.81,2.54-4.61,7.12-4.61,10.51a26.1,26.1,0,0,0,.75,6L396,519.82A38.12,38.12,0,0,1,395,511c0-8.94,3.53-16.21,10-20.49,7-4.67,16.63-5,26.41-.95C449.13,497,463.08,516.67,463.08,534.38Z"/><path d="M457.76,539.58c-4.9-.23-8.75-2.9-9.13-6.35a5,5,0,0,1,1.35-4,9.06,9.06,0,0,1,6.93-2.37h.26c4.91.23,8.75,2.9,9.14,6.35a4.93,4.93,0,0,1-1.36,4,9,9,0,0,1-6.93,2.37Z"/><ellipse cx="457.47" cy="533.25" rx="3.18" ry="5.72" transform="translate(-126.58 923.78) rotate(-83.14)"/><path d="M510.56,514.41h-12c0-12.77-11.15-28.21-24.36-33.7-6-2.5-11.53-2.56-15.15-.14-3.8,2.53-4.6,7.11-4.6,10.5a25.56,25.56,0,0,0,.75,6l-11.67,2.8a38.12,38.12,0,0,1-1.08-8.78c0-8.93,3.53-16.21,9.94-20.49,7-4.67,16.64-5,26.42-.95C496.62,477,510.56,496.71,510.56,514.41Z"/><path d="M505.25,519.62c-4.91-.24-8.75-2.91-9.13-6.36a5,5,0,0,1,1.35-4,9.09,9.09,0,0,1,6.93-2.37h.26c4.91.23,8.75,2.9,9.14,6.35a4.93,4.93,0,0,1-1.36,4,9.08,9.08,0,0,1-6.93,2.38Z"/><ellipse cx="504.96" cy="513.28" rx="3.18" ry="5.72" transform="translate(-64.93 953.34) rotate(-83.14)"/><path d="M612.69,615.49a2.61,2.61,0,0,1-1.08-.24l-112.39-54a2.5,2.5,0,1,1,2.17-4.51l112.38,54a2.5,2.5,0,0,1-1.08,4.75Z"/><path d="M592,626.09a2.61,2.61,0,0,1-1.08-.24l-112.39-54a2.5,2.5,0,1,1,2.17-4.51l112.39,54a2.5,2.5,0,0,1-1.09,4.75Z"/><path d="M571.22,636.69a2.57,2.57,0,0,1-1.08-.24l-112.39-54a2.5,2.5,0,0,1,2.17-4.51l112.38,54a2.5,2.5,0,0,1-1.08,4.75Z"/><path d="M1006.1,601.77a32.25,32.25,0,0,0,16.24,5.61A190,190,0,0,1,1007,632.53l-.17.25c-2.13,3-5.61,8.28-10,15-3.26,5-7,10.83-11.14,17-17.82,26.9-41.62,61.09-56,70.07a88.65,88.65,0,0,1-47.2,13.51c-21.55,0-41.36-3.22-58.11-11.82C809,745,790.53,748.39,769,748.39a88.86,88.86,0,0,1-59.58-22.82c-11.53-10.37-64.25-66.36-79.17-84.84A191.21,191.21,0,0,1,587.67,520.2c0-106,86-192,192-192a192.15,192.15,0,0,1,35.82,3.34,192.23,192.23,0,0,1,217,125.13c.48,1.37,1,2.75,1.4,4.14-42.43,4.84-63.71,37.24-44.8,77.21,0,1.05,0,2.1.07,3.15v.14C976,561.85,988,589.94,1006.1,601.77Z" fill="#ed4e6d"/><path d="M882.45,749.39c-23.55,0-42.56-3.83-58.1-11.69-14.62,7.86-32.75,11.69-55.39,11.69a90,90,0,0,1-60.24-23.08c-12.09-10.86-64.7-66.89-79.29-84.95A193.51,193.51,0,0,1,586.67,520.2c0-106.4,86.57-193,193-193a193.61,193.61,0,0,1,35.82,3.32,193.25,193.25,0,0,1,218,125.82c.49,1.38,1,2.76,1.41,4.17l.37,1.16-1.21.14c-21.21,2.42-37.33,11.73-45.39,26.22-7.69,13.82-7.2,31.42,1.39,49.56l.09.21v.22c0,1,0,2.08.07,3.11v.47l-.16.25c-12.48,19.38-1.51,47.16,16.65,59.05h0a31.26,31.26,0,0,0,15.74,5.44l1.55.07-.7,1.39a193,193,0,0,1-15.47,25.27l-.19.27c-2,2.81-5.26,7.76-10,15l-.56.87c-3.15,4.83-6.72,10.31-10.59,16.14-17.07,25.77-41.47,61.11-56.28,70.37A89.9,89.9,0,0,1,882.45,749.39Zm-58.12-14,.47.25c15.33,7.88,34.19,11.71,57.65,11.71A87.83,87.83,0,0,0,929.12,734c14.48-9,38.71-44.16,55.67-69.77,3.87-5.83,7.44-11.3,10.58-16.13l.57-.87c4.72-7.24,8-12.2,10-15.07a1,1,0,0,0,.14-.19,192.56,192.56,0,0,0,14.65-23.73,34,34,0,0,1-15.21-5.66c-9.24-6.05-16.94-16.33-20.6-27.49-4-12.32-2.9-24.4,3.2-34,0-.9,0-1.84-.06-2.78-8.77-18.68-9.21-36.85-1.23-51.19,8.23-14.79,24.43-24.39,45.7-27.09-.33-1-.67-2-1-3a191.25,191.25,0,0,0-215.9-124.48l-.19,0-.18,0a191.68,191.68,0,0,0-35.64-3.32c-105.3,0-191,85.66-191,191A191.46,191.46,0,0,0,631,640.1c14.55,18,67,73.89,79.06,84.72A88,88,0,0,0,769,747.39c22.54,0,40.49-3.83,54.9-11.7Z"/><path d="M1006.1,601.77a171.85,171.85,0,0,1-55.46,20.6c-24.92,4.58-48,3-67-3.37-30.44-10.24-50.37-32.92-50.37-62.75,0-48.44,52.56-97.39,117.41-109.31,31.84-5.86,82.8,12.52,83.25,13.91-42.43,4.84-63.71,37.24-44.8,77.21.45,1,.07,2.09.07,3.15v.14C976,561.85,988,589.94,1006.1,601.77Z" fill="#fff0d4"/><path d="M922.43,626a122.48,122.48,0,0,1-39.15-6.07c-32-10.75-51-34.56-51-63.69,0-48.82,53-98.31,118.23-110.3,16.93-3.11,38.6.59,53.81,4.25,11.89,2.86,30,8.47,30.57,10.35l.37,1.16-1.21.14c-21.21,2.42-37.33,11.73-45.39,26.22-7.69,13.82-7.2,31.42,1.39,49.56a4.79,4.79,0,0,1,.23,2.67,7.11,7.11,0,0,0-.07.91v.43l-.16.25c-12.48,19.38-1.51,47.16,16.65,59.05l1.35.88-1.4.82a173.91,173.91,0,0,1-55.78,20.71A157.09,157.09,0,0,1,922.43,626Zm42.34-179.24a77.86,77.86,0,0,0-13.95,1.15c-64.29,11.83-116.59,60.42-116.59,108.33,0,28.23,18.57,51.33,49.69,61.8,19.53,6.59,42.54,7.75,66.54,3.34a172.14,172.14,0,0,0,53.76-19.69A54,54,0,0,1,985,575.12c-4-12.32-2.9-24.41,3.21-34.06,0-.33,0-.65.08-1a3.29,3.29,0,0,0,0-1.59c-8.87-18.74-9.34-37-1.33-51.39s23.4-23.77,43.68-26.82C1021.38,456.58,990.67,446.77,964.77,446.77Zm68.39,14.75Z"/><path d="M1022.34,607.38A190,190,0,0,1,1007,632.53l-.17.25c-1.7,2.44-4.92,8.45-10,15-6.41,8.29-15.78,17.49-28.8,21.64-45.19,14.41-84.47-12.72-84.47-47.56,0-1,0-1.92.1-2.88,2-33.9,39-67.41,84.37-75.76a112.23,112.23,0,0,1,21.19-1.89c-13.21,20.5-1.13,48.59,16.94,60.42A32.25,32.25,0,0,0,1022.34,607.38Z" fill="#fff0d4"/><path d="M943.18,674.42c-14.49,0-28.11-4.18-39.28-12.34-13.6-9.94-21.4-24.59-21.4-40.2,0-1,0-2,.1-3,2-34.57,39.46-68.25,85.19-76.67a112.71,112.71,0,0,1,21.37-1.91l1.82,0-1,1.52c-12.48,19.38-1.51,47.16,16.65,59.05a31.26,31.26,0,0,0,15.74,5.44l1.55.07-.7,1.39a193,193,0,0,1-15.47,25.27l-.19.27c-.47.68-1.1,1.71-1.9,3a124.15,124.15,0,0,1-8.12,12c-8.61,11.13-18.46,18.52-29.29,22A82.52,82.52,0,0,1,943.18,674.42Zm44.2-132.07a111.37,111.37,0,0,0-19.23,1.88c-44.87,8.25-81.57,41.12-83.55,74.83-.07.94-.1,1.89-.1,2.82,0,15,7.51,29,20.58,38.59,16.95,12.38,39.76,15.3,62.58,8,10.44-3.33,20-10.49,28.32-21.3a125.51,125.51,0,0,0,8-11.84c.81-1.33,1.46-2.38,2-3.14a1.44,1.44,0,0,0,.15-.21,192.56,192.56,0,0,0,14.65-23.73,34,34,0,0,1-15.21-5.66c-9.24-6.05-16.94-16.33-20.6-27.49C981.09,563.34,982,551.78,987.38,542.35Z"/><path d="M805.41,319c-8.24-1.42-15.88-6.62-21.25-13.53-5.4-8.76-6.41-21.46-2.22-31.29C745.21,225,690.75,215,669.08,212.94a9.13,9.13,0,0,0-10,8.7c-6.83,161.3,157.79,153.11,157.79,153.11A231,231,0,0,0,805.41,319Z" fill="#80ca7a"/><path d="M813.47,375.81c-15.3,0-77.43-2.61-118.13-43-26.69-26.49-39.21-63.9-37.21-111.19a10.14,10.14,0,0,1,11-9.66c21.84,2,76.62,12.12,113.57,61.59l.34.46-.22.53c-4,9.33-3.11,21.8,2.12,30.33,5.48,7,13,11.8,20.6,13.12l.58.1.19.55a232.9,232.9,0,0,1,11.56,56l.09,1-1,.05C816.87,375.75,815.64,375.81,813.47,375.81ZM668.22,213.9a8.13,8.13,0,0,0-8.09,7.79c-2,46.7,10.34,83.6,36.62,109.68,42.87,42.56,109.92,42.61,119.07,42.41a230.26,230.26,0,0,0-11.17-53.95c-7.91-1.54-15.64-6.54-21.28-13.79l-.06-.09c-5.56-9-6.55-21.69-2.51-31.68-36.47-48.43-90.31-58.33-111.81-60.33A6.74,6.74,0,0,0,668.22,213.9Z"/><path d="M814.34,368.91c-41.48-65.48-87-115.88-148.82-146.74a33.92,33.92,0,0,0-5.75-3.5,8.86,8.86,0,0,0-.64,3c-6.83,161.3,157.79,153.11,157.79,153.11-.08-.84-.17-1.66-.25-2.49C816,371.07,815.08,370.08,814.34,368.91Z" fill="#80ca7a"/><path d="M813.47,375.81c-15.3,0-77.43-2.61-118.13-43-26.69-26.49-39.21-63.9-37.21-111.19a10.27,10.27,0,0,1,.71-3.3l.39-1,1,.46a34.4,34.4,0,0,1,5.85,3.54c56.63,28.3,102.64,73.67,149.13,147.06h0c.3.47.63.91,1,1.38a16.74,16.74,0,0,1,1.37,2l.1.18.13,1.22c.05.49.1,1,.14,1.48l.09,1-1,.05C816.87,375.75,815.64,375.81,813.47,375.81ZM660.36,220.08a8,8,0,0,0-.23,1.61c-2,46.69,10.34,83.59,36.61,109.67C739.58,373.9,806.63,374,815.82,373.78c0-.13,0-.26,0-.4l-.09-.81a17.47,17.47,0,0,0-1.12-1.62c-.36-.48-.74-1-1.08-1.51h0c-46.31-73.11-92.09-118.25-148.42-146.38l-.15-.09A32.85,32.85,0,0,0,660.36,220.08Z"/><path d="M893.48,349.15c-13.24-12.2-33.21-3.68-47.21,2.4C831,358.18,817.46,367.33,809,382.1c-4.3,7.53.84,17.32,13.85,12.72s29.31-11.13,41.93-14.83c7.58-2.22,21.45-1.07,28-5.67C902,367.81,901.41,356.46,893.48,349.15Z"/><path d="M706.33,396c8.24,4.43,5,14.28.16,18.57-37.11,28-50.23,67.42-56.29,110.85-1.51,10.86-19.18.76-20.45-9.34-1-47.46,16.4-98.47,58-121.84C694.49,392.22,701.39,392.63,706.33,396Z" fill="#fff"/><path d="M645.21,530.55h-.05c-6,0-15-7.19-15.9-14.45-.93-42.84,13.89-97.43,58.24-122.35l.1,0c7.21-2.11,14.13-1.44,19,1.81a9.38,9.38,0,0,1,5.2,7.3c.57,4.74-2.18,9.58-5,12.07a127.58,127.58,0,0,0-39.67,49.49c-7.76,16.81-13,36.21-16.45,61.06C650.24,528.74,648.29,530.55,645.21,530.55Zm42.73-135.9C644,419.37,629.34,473.55,630.25,516c.83,6.64,9.38,13.5,14.91,13.53h.05c2.56,0,4.11-1.46,4.5-4.25,3.48-24.95,8.73-44.44,16.54-61.34a128.23,128.23,0,0,1,39.94-49.84c2.57-2.3,5.13-6.8,4.61-11.18a8.34,8.34,0,0,0-4.7-6.55l0,0C701.45,393.27,694.85,392.65,687.94,394.65Z"/><ellipse cx="648.29" cy="562.95" rx="8.56" ry="13.5" transform="translate(-134.29 209.74) rotate(-16.68)" fill="#fff"/><path d="M650.56,576.62A8.17,8.17,0,0,1,646,575c-5-3.47-8.15-11.67-7-18.27.6-3.46,2.33-6,4.72-7,2.13-.89,4.59-.49,6.94,1.13,5,3.47,8.14,11.67,7,18.28h0c-.61,3.45-2.33,6-4.72,7A6,6,0,0,1,650.56,576.62ZM646,550.28a5.16,5.16,0,0,0-1.94.38c-2.07.87-3.57,3.15-4.12,6.26-1.1,6.26,1.85,14,6.57,17.28,2.05,1.42,4.18,1.79,6,1,2.07-.86,3.58-3.14,4.13-6.26,1.1-6.25-1.85-14-6.57-17.27A7.19,7.19,0,0,0,646,550.28Zm11.11,18.78h0Z"/><path d="M875.36,284.54c-3.21-5.49-12-8.82-17.66-4.63-31.5,23.52-46.24,59.13-47.49,98.49-.22,7,.27,12.91,6.95,12.91,7.33,0,6.73-5.92,7-12.91.92-29,22.86-58.46,46.62-76.2C876.31,298,879.16,291,875.36,284.54Z" fill="#a57f6a"/><path d="M817.16,392.31a7.25,7.25,0,0,1-5.45-2c-2.57-2.65-2.63-7.54-2.49-11.92,1.34-42.55,17.9-76.88,47.88-99.26a11.48,11.48,0,0,1,9.29-1.81,15.1,15.1,0,0,1,9.84,6.74h0c4.3,7.36.64,14.83-4.9,19-20.71,15.46-45.24,44.49-46.22,75.43,0,.63,0,1.25,0,1.85C824.93,386.47,824.81,392.31,817.16,392.31ZM863.68,279a8.93,8.93,0,0,0-5.38,1.69c-29.48,22-45.76,55.8-47.09,97.72-.15,4.93.12,8.59,1.93,10.47a5.31,5.31,0,0,0,4,1.41c5.45,0,5.76-3.27,5.91-10.07,0-.61,0-1.24,0-1.87.44-13.66,5.59-28.47,14.91-42.83a136.51,136.51,0,0,1,32.11-34.14c4.83-3.6,8-10.06,4.37-16.35a13.2,13.2,0,0,0-8.51-5.79A11.62,11.62,0,0,0,863.68,279Z"/><polygon points="1521.38 798.23 1416.97 838.37 1416.97 787.8 1521.38 747.66 1521.38 798.23" fill="#e6e6e6"/><path d="M1417,839.37a1,1,0,0,1-1-1V787.8a1,1,0,0,1,.64-.93L1521,746.72a1.06,1.06,0,0,1,.93.11,1,1,0,0,1,.43.83v50.57a1,1,0,0,1-.64.93L1417.32,839.3A.84.84,0,0,1,1417,839.37Zm1-50.88v48.42l102.41-39.37V749.11Zm103.41,9.74h0Z"/><polygon points="1378.18 677.65 1302.08 640.45 1197.66 680.59 1273.35 717.59 1378.18 677.65" fill="#e6e6e6"/><path d="M1273.35,718.59a1,1,0,0,1-.44-.1l-75.69-37a1,1,0,0,1-.56-1,1,1,0,0,1,.65-.89l104.41-40.14a1.06,1.06,0,0,1,.8,0l76.09,37.2a1,1,0,0,1,.56.94,1,1,0,0,1-.64.89l-104.82,39.94A.92.92,0,0,1,1273.35,718.59Zm-73.19-37.89,73.24,35.8,102.27-39-73.64-36Z"/><polygon points="1378.18 677.65 1273.35 717.59 1416.97 787.8 1521.38 747.66 1378.18 677.65" fill="#2fbae6"/><path d="M1416.92,788.89l-146.08-71.41,107.39-40.92,145.65,71.21ZM1275.86,717.7l141.15,69,101.87-39.16-140.75-68.81Z"/><polygon points="1480.47 751.67 1446.22 734.93 1386 757.87 1420.48 774.73 1480.47 751.67" fill="#fff"/><path d="M1420.48,775.73a1,1,0,0,1-.44-.1l-34.48-16.86a1,1,0,0,1-.56-.94,1,1,0,0,1,.64-.89l60.22-23a1,1,0,0,1,.8,0l34.25,16.74a1,1,0,0,1,.56.94,1,1,0,0,1-.65.89l-60,23.06A.92.92,0,0,1,1420.48,775.73Zm-32-17.74,32,15.65L1478,751.56,1446.17,736Z"/><polygon points="1273.35 717.59 1273.35 768.44 1416.97 838.37 1416.97 787.8 1273.35 717.59 1273.35 717.59" fill="#2f73c5"/><path d="M1418,840l-145.62-70.9V716l1.44.7L1418,787.18Zm-143.62-72.15L1416,836.77V788.42l-141.62-69.23Z"/><polygon points="1273.35 717.59 1197.66 680.59 1197.98 731.75 1273.35 768.44 1273.35 717.59 1273.35 717.59" fill="#e6e6e6"/><path d="M1273.35,769.44a1,1,0,0,1-.44-.1l-75.36-36.7a1,1,0,0,1-.56-.89l-.33-51.16a1,1,0,0,1,.47-.85,1,1,0,0,1,1,0l75.69,37a1,1,0,0,1,.56.9v50.85a1,1,0,0,1-.47.85A1,1,0,0,1,1273.35,769.44ZM1199,731.12l73.37,35.72V718.21l-73.68-36Z"/><g opacity="0.6"><path d="M517.68,169.19c-46.19,15.3-119.66,40.2-164.46,55.42a110.13,110.13,0,0,1-76.72-2.19C228,202.8,97.6,150,97.6,150-5.29,144.71-31.75,293.68,41.9,325.38q65.26,26.44,130.4,53.2c9.32,3.82,39.1,15.5,68.62,27a213,213,0,0,0,140.52,5.08c24.95-7.73,49.16-15.3,58.83-18.53,35.61-11.91,139.15-50,152.68-57C651.16,304.9,623.87,142.17,517.68,169.19Z" fill="#ffb0d8"/><path d="M318.5,421.18a214.29,214.29,0,0,1-77.95-14.63c-37.69-14.73-60.78-23.83-68.63-27-38.37-15.73-83.87-34.35-130.4-53.2-17.34-7.46-30.14-21.68-37.06-41.13-6.33-17.81-7.19-38.91-2.42-59.4,5.11-21.92,16.32-41.48,31.58-55.08,17.36-15.47,39.49-23,64-21.74A1.3,1.3,0,0,1,98,149s130.42,52.85,178.89,72.46a109.1,109.1,0,0,0,76,2.17c41.17-14,117.29-39.79,164.47-55.42l.06,0c23.6-6,44.63-3.2,62.51,8.34,15.38,9.93,27.63,26,35.44,46.49,15.6,40.94,10.49,96.11-22,113-13.55,7-116,44.78-152.83,57.1-8.28,2.77-28.08,9-58.85,18.53A213.89,213.89,0,0,1,318.5,421.18ZM93.08,150.85c-34,0-76.07,19.47-89.09,75.38-8.33,35.79.1,81.79,38.3,98.24,46.51,18.84,92,37.46,130.39,53.18,7.84,3.22,30.92,12.31,68.6,27a212.78,212.78,0,0,0,139.86,5.05C411.9,400.22,431.68,394,440,391.22c35.83-12,139.38-50.14,152.54-57,25.44-13.22,40-60.77,21-110.49-17-44.47-52.67-64.51-95.55-53.61-47.17,15.63-123.26,41.42-164.42,55.4a111.12,111.12,0,0,1-77.42-2.21C228.63,204.12,102.43,153,97.38,151,96,150.88,94.53,150.85,93.08,150.85Z"/></g><g opacity="0.6"><path d="M561.85,327.42c-35.68,13.79-100.33,37.9-127.53,47-8.07,2.69-28.27,9.06-58.42,18.4a194.28,194.28,0,0,1-128.18-4.64C210.67,373.7,187,364.39,179.4,361.25,141,345.54,95.57,326.93,49.12,308.11,21.4,296.05,15,260.59,20.71,232.69c6.1-29.59,28.51-64.15,71.62-64.15h1.31c20,8.09,131.76,53.39,175.83,71.21a128.88,128.88,0,0,0,89.77,2.57c50.14-17,119.11-40.38,163.66-55.15.35-.09.72-.18,1.07-.25-29.71,8.45-45,46.51-34.2,85.13C500.42,310.11,532.43,334.51,561.85,327.42Z" fill="#ffb0d8"/><path d="M318.44,402.51a194.41,194.41,0,0,1-71.08-13.4c-37.83-14.78-60.83-23.85-68.34-26.93C138,345.39,94.22,327.46,48.75,309c-28.26-12.3-34.85-48.3-29-76.55,6.17-30,28.89-65,72.59-65h1.34a1.05,1.05,0,0,1,.35.08c24,9.72,133,53.9,175.83,71.21a128,128,0,0,0,89.07,2.55c50.16-17,119.28-40.44,163.67-55.16.43-.11.82-.21,1.19-.28a1,1,0,0,1,.47,1.94c-29.12,8.29-44.15,45.92-33.51,83.9,5.08,18.17,15.26,33.83,28.64,44.09s28.29,13.93,42.24,10.57a1,1,0,0,1,1.19.67,1,1,0,0,1-.59,1.23c-34.87,13.48-100.26,37.88-127.58,47-8.29,2.77-29.05,9.3-58.44,18.41A195.57,195.57,0,0,1,318.44,402.51Zm-226.11-233c-42.5,0-64.61,34.13-70.64,63.35-5.67,27.49.62,62.47,27.83,74.31C95,325.61,138.8,343.54,179.78,360.33c7.5,3.08,30.48,12.14,68.31,26.92a193.34,193.34,0,0,0,127.52,4.62c29.38-9.1,50.12-15.64,58.4-18.4,25.29-8.46,83.28-30,119.37-43.86-11.92.5-24.15-3.67-35.21-12.15-13.73-10.52-24.16-26.54-29.36-45.13-9.14-32.63.29-65,21.26-79.83-44,14.68-105,35.34-150.5,50.78a129.93,129.93,0,0,1-90.47-2.59c-42.7-17.27-151.32-61.28-175.66-71.14Z" fill="#fff"/></g><g opacity="0.6"><path d="M318.84,304.9a168.78,168.78,0,0,1-64.63-12.81l-34.79-14.42a15.6,15.6,0,0,1,12-28.82l34.79,14.42a137.86,137.86,0,0,0,90.06,5.26L396.85,257a15.6,15.6,0,0,1,8.52,30l-40.64,11.52A168.12,168.12,0,0,1,318.84,304.9Z" fill="#fff"/><path d="M318.84,305.9a168.88,168.88,0,0,1-65-12.88L219,278.6a16.63,16.63,0,0,1-9-21.69,16.62,16.62,0,0,1,21.7-9l34.78,14.42A136.89,136.89,0,0,0,356,267.57l40.63-11.52A16.6,16.6,0,0,1,405.64,288L365,299.51A169.2,169.2,0,0,1,318.84,305.9ZM225.4,248.65a14.72,14.72,0,0,0-5.59,1.12,14.6,14.6,0,0,0,0,27l34.78,14.42a168.32,168.32,0,0,0,109.87,6.42l40.63-11.53a14.6,14.6,0,0,0-8-28.09L356.49,269.5a138.93,138.93,0,0,1-90.72-5.3L231,249.78A14.54,14.54,0,0,0,225.4,248.65Z"/></g><g opacity="0.6"><circle cx="451.79" cy="254.93" r="15.35" fill="#fff"/><path d="M451.79,271.28a16.35,16.35,0,1,1,16.35-16.35A16.37,16.37,0,0,1,451.79,271.28Zm0-30.7a14.35,14.35,0,1,0,14.35,14.35A14.37,14.37,0,0,0,451.79,240.58Z"/></g><g opacity="0.6"><path d="M599.77,282.33v0c-.15.82-.33,1.64-.52,2.45-3.85,17-13.17,31-26.45,38.33-3.21,1.27-6.9,2.7-10.95,4.27-29.42,7.09-61.43-17.31-72.08-55.36-10.82-38.62,4.49-76.68,34.2-85.13l.27-.06.16,0a72.3,72.3,0,0,1,9.07-1.5,45.44,45.44,0,0,1,9.67.48c1.07.16,2.13.37,3.19.61A52,52,0,0,1,556.92,190c.51.23,1,.48,1.52.73s1.21.6,1.82.93,1.24.68,1.86,1.05a74.39,74.39,0,0,1,24.28,23.76s0,0,0,0a91.52,91.52,0,0,1,11.35,25.28A88.45,88.45,0,0,1,599.77,282.33Z" fill="#ffb0d8"/><path d="M551.47,329.65c-11.31,0-22.83-4.16-33.3-12.19-13.73-10.52-24.16-26.54-29.36-45.13-10.94-39,4.72-77.78,34.89-86.36l.32-.07.19-.05a73,73,0,0,1,9.17-1.51,46.62,46.62,0,0,1,9.92.48c1,.15,2.06.36,3.25.63a53.45,53.45,0,0,1,10.8,3.69c.51.23,1,.48,1.54.74s1.23.6,1.85.94,1.27.7,1.9,1.07A75.61,75.61,0,0,1,587.24,216h0v0a92.41,92.41,0,0,1,11.48,25.55,89.7,89.7,0,0,1,2,40.89.37.37,0,0,1,0,.11c-.15.84-.34,1.68-.53,2.5-4,17.78-13.6,31.62-26.94,39l-.12.05c-3.21,1.27-6.9,2.7-10.95,4.27l-.13,0A44.83,44.83,0,0,1,551.47,329.65ZM536,186.26c-.84,0-1.68,0-2.51.07a70.86,70.86,0,0,0-8.9,1.48l-.19,0-.24.06c-29.07,8.27-44.1,45.9-33.46,83.88,5.08,18.17,15.26,33.83,28.64,44.09s28.25,13.92,42.18,10.59l10.82-4.22c12.81-7.09,22-20.46,25.9-37.65.18-.78.35-1.56.5-2.34,0-.05,0-.09,0-.12a87.45,87.45,0,0,0-2-40,90.15,90.15,0,0,0-11.22-25l0,0h0a73.42,73.42,0,0,0-24-23.44c-.62-.37-1.23-.71-1.84-1s-1.17-.62-1.76-.9-1-.5-1.51-.73a51.47,51.47,0,0,0-10.39-3.55c-1.15-.26-2.17-.46-3.12-.6A45.62,45.62,0,0,0,536,186.26Zm63.74,96.11Z" fill="#fff"/></g><g opacity="0.6"><path d="M533.41,185.33h.06a72.3,72.3,0,0,0-9.07,1.5l-.16,0-.27.06.18-.05.15,0A43.66,43.66,0,0,1,533.41,185.33Z" fill="#ffb0d8"/><path d="M524,187.93a1,1,0,0,1-.32-1.94l.17-.05.14,0,.14,0a44.89,44.89,0,0,1,9.26-1.53h.11a1,1,0,0,1,.1,2,70.26,70.26,0,0,0-8.94,1.48l-.19,0-.24.06A.9.9,0,0,1,524,187.93Z" fill="#fff"/></g><g opacity="0.6"><path d="M572.8,323.15a43.55,43.55,0,0,1-9.4,3.87c-.52.14-1,.28-1.55.4C565.9,325.85,569.59,324.42,572.8,323.15Z" fill="#ffb0d8"/><path d="M561.85,328.42a1,1,0,0,1-.36-1.93c4-1.57,7.74-3,11-4.27a1,1,0,0,1,.85,1.81,45.56,45.56,0,0,1-9.61,4l-.23.06-1.37.35Z" fill="#fff"/></g></g></svg>