<svg xmlns="http://www.w3.org/2000/svg" width="612" height="395" fill="none" viewBox="0 0 612 395">
  <path stroke="url(#paint0_linear_201_884)" stroke-width="2" d="M-250-48h-56V8m56-56V8m0-56h55m-55 56h-56m56 0v56m0-56h55m-111 0v56m0 112h56m-56 0v56m0-56v-56m56 56v56m0-56v-56m0 56h55m-55 56h-56m56 0v56m0-56h55m-111 0v56m0-224h56m-56 0v56m56-56v56m0-56h55m-55 56h-56m56 0h55m-111 168h56m-56 0v56m56-56v56m0-56h55m-55 56h-56m56 0v56m0-56h55m-111 0v56m56 0h-56m56 0h55m-55 0v56m-56-56v56m111-504V8m0-56h56m-56 56v56m0-56h56m-56 168v56m0-56v-56m0 56h56m-56 56v56m0-56h56m-56-168v56m0-56h56m-56 56h56m-56 168v56m0-56h56m-56 56v56m0-56h56m-56 56h56m-56 0v56m56-504V8m0-56h56m-56 56v56m0-56h56m-56 168v56m0-56v-56m0 56h56m-56 56v56m0-56h56m-56-168v56m0-56h56m-56 56h56m-56 168v56m0-56h56m-56 56v56m0-56h56m-56 56h56m-56 0v56m56-504V8m0-56h55M-83 8v56m0-56h55m-55 168v56m0-56v-56m0 56h55m-55 56v56m0-56h55M-83 64v56m0-56h55m-55 56h55m-55 168v56m0-56h55m-55 56v56m0-56h55m-55 56h55m-55 0v56m55-504V8m0-56h56M-28 8v56m0-56h56m-56 168v56m0-56v-56m0 56h56m-56 56v56m0-56h56M-28 64v56m0-56h56m-56 56h56m-56 168v56m0-56h56m-56 56v56m0-56h56m-56 56h56m-56 0v56M28-48V8m0-56h55M28 8v56m0-56h55M28 176v56m0-56v-56m0 56h55m-55 56v56m0-56h55M28 64v56m0-56h55m-55 56h55M28 288v56m0-56h55m-55 56v56m0-56h55m-55 56h55m-55 0v56M83-48V8m0-56h56M83 8v56m0-56h56M83 176v56m0-56v-56m0 56h56m-56 56v56m0-56h56M83 64v56m0-56h56m-56 56h56M83 288v56m0-56h56m-56 56v56m0-56h56m-56 56h56m-56 0v56m56-504V8m0-56h56M139 8v56m0-56h56m-56 168v56m0-56v-56m0 56h56m-56 56v56m0-56h56M139 64v56m0-56h56m-56 56h56m-56 168v56m0-56h56m-56 56v56m0-56h56m-56 56h56m-56 0v56m56-504V8m0-56h55M195 8v56m0-56h55m-55 168v56m0-56v-56m0 56h55m-55 56v56m0-56h55M195 64v56m0-56h55m-55 56h55m-55 168v56m0-56h55m-55 56v56m0-56h55m-55 56h55m-55 0v56m55-504V8m0-56h56M250 8v56m0-56h56m-56 168v56m0-56v-56m0 56h56m-56 56v56m0-56h56M250 64v56m0-56h56m-56 56h56m-56 168v56m0-56h56m-56 56v56m0-56h56m-56 56h56m-56 0v56m56-504V8m0-56h56M306 8v56m0-56h56m-56 168v56m0-56v-56m0 56h56m-56 56v56m0-56h56M306 64v56m0-56h56m-56 56h56m-56 168v56m0-56h56m-56 56v56m0-56h56m-56 56h56m-56 0v56m56-504V8m0-56h55M362 8v56m0-56h55m-55 168v56m0-56v-56m0 56h55m-55 56v56m0-56h55M362 64v56m0-56h55m-55 56h55m-55 168v56m0-56h55m-55 56v56m0-56h55m-55 56h55m-55 0v56m55-504V8m0-56h56M417 8v56m0-56h56m-56 168v56m0-56v-56m0 56h56m-56 56v56m0-56h56M417 64v56m0-56h56m-56 56h56m-56 168v56m0-56h56m-56 56v56m0-56h56m-56 56h56m-56 0v56m56-504V8m0-56h56M473 8v56m0-56h56m-56 168v56m0-56v-56m0 56h56m-56 56v56m0-56h56M473 64v56m0-56h56m-56 56h56m-56 168v56m0-56h56m-56 56v56m0-56h56m-56 56h56m-56 0v56m56-504V8m0-56h55M529 8v56m0-56h55m-55 168v56m0-56v-56m0 56h55m-55 56v56m0-56h55M529 64v56m0-56h55m-55 56h55m-55 168v56m0-56h55m-55 56v56m0-56h55m-55 56h55m-55 0v56m55-504V8m0-56h56M584 8v56m0-56h56m-56 168v56m0-56v-56m0 56h56m-56 56v56m0-56h56M584 64v56m0-56h56m-56 56h56m-56 168v56m0-56h56m-56 56v56m0-56h56m-56 56h56m-56 0v56m56-504V8m0-56h55M640 8v56m0-56h55m-55 168v56m0-56v-56m0 56h55m-55 56v56m0-56h55M640 64v56m0-56h55m-55 56h55m-55 168v56m0-56h55m-55 56v56m0-56h55m-55 56h55m-55 0v56m55-504V8m0-56h56M695 8v56m0-56h56m-56 168v56m0-56v-56m0 56h56m-56 56v56m0-56h56M695 64v56m0-56h56m-56 56h56m-56 168v56m0-56h56m-56 56v56m0-56h56m-56 56h56m-56 0v56m56-504V8m0-56h56M751 8v56m0-56h56m-56 168v56m0-56v-56m0 56h56m-56 56v56m0-56h56M751 64v56m0-56h56m-56 56h56m-56 168v56m0-56h56m-56 56v56m0-56h56m-56 56h56m-56 0v56m56-504V8m0-56h55M807 8v56m0-56h55m-55 168v56m0-56v-56m0 56h55m-55 56v56m0-56h55M807 64v56m0-56h55m-55 56h55m-55 168v56m0-56h55m-55 56v56m0-56h55m-55 56h55m-55 0v56m55-504V8m0-56h56V8m-56 0v56m0-56h56m-56 168v56m0-56v-56m0 56h56m-56 56v56m0-56h56M862 64v56m0-56h56m-56 56h56m-56 168v56m0-56h56m-56 56v56m0-56h56m-56 56h56m-56 0v56M918 8v56m0 112v56m0-56v-56m0 112v56m0-224v56m0 168v56m0 0v56m0 0v56m-1168 0h-56m56 0v56m0-56h55m-111 0v56m0 112h56m-56 0v56m0-56v-56m56 56v56m0-56v-56m0 56h55m-55 56h-56m56 0v56m0-56h55m-111 0v56m0-224h56m-56 0v56m56-56v56m0-56h55m-55 56h-56m56 0h55m-111 168h56m-56 0v56m56-56v56m0-56h55m-55 56h-56m56 0v56m0-56h55m-111 0v56h56m0 0h55m0-392v56m0-56h56m-56 168v56m0-56v-56m0 56h56m-56 56v56m0-56h56m-56-168v56m0-56h56m-56 56h56m-56 168v56m0-56h56m-56 56v56m0-56h56m-56 56h56m0-392v56m0-56h56m-56 168v56m0-56v-56m0 56h56m-56 56v56m0-56h56m-56-168v56m0-56h56m-56 56h56m-56 168v56m0-56h56m-56 56v56m0-56h56m-56 56h56m0-392v56m0-56h55m-55 168v56m0-56v-56m0 56h55m-55 56v56m0-56h55m-55-168v56m0-56h55m-55 56h55m-55 168v56m0-56h55m-55 56v56m0-56h55m-55 56h55m0-392v56m0-56h56m-56 168v56m0-56v-56m0 56h56m-56 56v56m0-56h56m-56-168v56m0-56h56m-56 56h56m-56 168v56m0-56h56m-56 56v56m0-56h56m-56 56h56m0-392v56m0-56h55M28 624v56m0-56v-56m0 56h55m-55 56v56m0-56h55M28 512v56m0-56h55m-55 56h55M28 736v56m0-56h55m-55 56v56m0-56h55m-55 56h55m0-392v56m0-56h56M83 624v56m0-56v-56m0 56h56m-56 56v56m0-56h56M83 512v56m0-56h56m-56 56h56M83 736v56m0-56h56m-56 56v56m0-56h56m-56 56h56m0-392v56m0-56h56m-56 168v56m0-56v-56m0 56h56m-56 56v56m0-56h56m-56-168v56m0-56h56m-56 56h56m-56 168v56m0-56h56m-56 56v56m0-56h56m-56 56h56m0-392v56m0-56h55m-55 168v56m0-56v-56m0 56h55m-55 56v56m0-56h55m-55-168v56m0-56h55m-55 56h55m-55 168v56m0-56h55m-55 56v56m0-56h55m-55 56h55m0-392v56m0-56h56m-56 168v56m0-56v-56m0 56h56m-56 56v56m0-56h56m-56-168v56m0-56h56m-56 56h56m-56 168v56m0-56h56m-56 56v56m0-56h56m-56 56h56m0-392v56m0-56h56m-56 168v56m0-56v-56m0 56h56m-56 56v56m0-56h56m-56-168v56m0-56h56m-56 56h56m-56 168v56m0-56h56m-56 56v56m0-56h56m-56 56h56m0-392v56m0-56h55m-55 168v56m0-56v-56m0 56h55m-55 56v56m0-56h55m-55-168v56m0-56h55m-55 56h55m-55 168v56m0-56h55m-55 56v56m0-56h55m-55 56h55m0-392v56m0-56h56m-56 168v56m0-56v-56m0 56h56m-56 56v56m0-56h56m-56-168v56m0-56h56m-56 56h56m-56 168v56m0-56h56m-56 56v56m0-56h56m-56 56h56m0-392v56m0-56h56m-56 168v56m0-56v-56m0 56h56m-56 56v56m0-56h56m-56-168v56m0-56h56m-56 56h56m-56 168v56m0-56h56m-56 56v56m0-56h56m-56 56h56m0-392v56m0-56h55m-55 168v56m0-56v-56m0 56h55m-55 56v56m0-56h55m-55-168v56m0-56h55m-55 56h55m-55 168v56m0-56h55m-55 56v56m0-56h55m-55 56h55m0-392v56m0-56h56m-56 168v56m0-56v-56m0 56h56m-56 56v56m0-56h56m-56-168v56m0-56h56m-56 56h56m-56 168v56m0-56h56m-56 56v56m0-56h56m-56 56h56m0-392v56m0-56h55m-55 168v56m0-56v-56m0 56h55m-55 56v56m0-56h55m-55-168v56m0-56h55m-55 56h55m-55 168v56m0-56h55m-55 56v56m0-56h55m-55 56h55m0-392v56m0-56h56m-56 168v56m0-56v-56m0 56h56m-56 56v56m0-56h56m-56-168v56m0-56h56m-56 56h56m-56 168v56m0-56h56m-56 56v56m0-56h56m-56 56h56m0-392v56m0-56h56m-56 168v56m0-56v-56m0 56h56m-56 56v56m0-56h56m-56-168v56m0-56h56m-56 56h56m-56 168v56m0-56h56m-56 56v56m0-56h56m-56 56h56m0-392v56m0-56h55m-55 168v56m0-56v-56m0 56h55m-55 56v56m0-56h55m-55-168v56m0-56h55m-55 56h55m-55 168v56m0-56h55m-55 56v56m0-56h55m-55 56h55m0-392v56m0-56h56m-56 168v56m0-56v-56m0 56h56m-56 56v56m0-56h56m-56-168v56m0-56h56m-56 56h56m-56 168v56m0-56h56m-56 56v56m0-56h56m-56 56h56v-56m0-336v56m0 112v56m0-56v-56m0 112v56m0-224v56m0 168v56"/>
  <defs>
    <linearGradient id="paint0_linear_201_884" x1="306" x2="306" y1="-22.5" y2="320" gradientUnits="userSpaceOnUse">
      <stop stop-color="#323437" stop-opacity="0"/>
      <stop offset="1" stop-color="#525559"/>
    </linearGradient>
  </defs>
</svg>
