<svg width="79" height="78" viewBox="0 0 79 78" fill="none" xmlns="http://www.w3.org/2000/svg">
<path d="M61.0097 31.6412L61.8507 33.5387L68.1713 27.4312L67.227 25.3008L58.4619 25.8935L59.2539 27.68L60.8843 27.5547L62.1975 30.5173L61.0097 31.6412ZM64.9798 27.2395L65.9374 27.0938L65.1814 27.6945L63.346 29.4241L62.4655 27.438L64.9798 27.2395Z" fill="#191A1B"/>
<path d="M62.2126 37.2158L62.1143 39.1552L65.2659 39.3152L65.0881 42.8184L66.6275 42.8965L66.8053 39.3933L68.8175 39.4955L68.6157 43.4714L70.1552 43.5495L70.4554 37.6342L62.2126 37.2158Z" fill="#191A1B"/>
<path d="M60.9802 46.9033L60.0426 48.6039L65.0423 51.2499L63.579 51.1638L58.5247 51.3568L57.5342 53.1529L64.7617 57.1382L65.6993 55.4376L60.7102 52.7974L62.1628 52.8777L67.2172 52.6847L68.2077 50.8885L60.9802 46.9033Z" fill="#191A1B"/>
<path d="M54.6281 55.9404L53.1396 57.1878L58.4408 63.5135L59.9293 62.2662L54.6281 55.9404Z" fill="#191A1B"/>
<path d="M50.1335 59.376L44.04 61.6195L44.5894 63.1116L48.5872 61.6396L46.3423 67.8724L46.8917 69.3646L52.9852 67.1209L52.4359 65.6289L48.438 67.1009L50.6829 60.868L50.1335 59.376Z" fill="#191A1B"/>
<path d="M34.3714 61.4938L32.3105 61.248L34.334 69.8012L36.6479 70.0771L40.6143 62.2383L38.6739 62.007L37.949 63.4728L34.7312 63.089L34.3714 61.4938ZM36.1287 67.155L35.7649 68.0528L35.6345 67.096L35.0846 64.6347L37.2419 64.892L36.1287 67.155Z" fill="#191A1B"/>
<path d="M28.8462 59.7355L27.2554 58.6218L25.5011 61.1273L24.4473 60.3894C23.8706 59.9857 23.7523 59.7102 24.0476 59.0133L24.909 56.9789L23.2485 55.8164L22.3076 58.2395C22.0789 58.8201 22.0312 59.2905 22.1792 59.735C21.4197 59.6772 20.7494 59.9785 20.2273 60.7241C19.3502 61.977 19.7677 63.4545 21.3486 64.5614L24.1126 66.4966L28.8462 59.7355ZM22.2626 63.3195C21.6461 62.888 21.5616 62.3102 21.9305 61.7833C22.2995 61.2562 22.8682 61.1211 23.5344 61.5876L24.638 62.3603L23.4059 64.12L22.2626 63.3195Z" fill="#191A1B"/>
<path d="M16.1761 42.2607L11.9178 43.6082L12.9539 46.883L14.3542 46.44L13.8782 44.9356C14.983 44.7261 15.6692 45.2855 15.9366 46.1302C16.3211 47.3452 15.5876 48.3666 13.9559 48.883C12.3243 49.3992 11.1247 49.0276 10.7476 47.8358C10.4986 47.0489 10.7394 46.3616 11.4452 45.8964L10.83 43.9524C9.14255 44.8556 8.68244 46.5797 9.21702 48.2691C9.96763 50.6414 12.0106 51.5862 14.5564 50.7807C17.1022 49.9751 18.2067 48.0344 17.5073 45.8241C17.2107 44.8869 16.6147 44.2098 15.7471 43.9624L16.5753 43.5222L16.1761 42.2607Z" fill="#191A1B"/>
<path d="M16.016 37.9865L16.3967 36.0823L13.0285 35.4089L13.6663 32.2192L17.0345 32.8927L17.4153 30.9884L9.32216 29.3701L8.94146 31.2744L12.1191 31.9098L11.4813 35.0994L8.30355 34.464L7.92285 36.3682L16.016 37.9865Z" fill="#191A1B"/>
<path d="M19.3574 27.4605L20.4058 25.8258L13.4587 21.3701L12.4102 23.0047L19.3574 27.4605Z" fill="#191A1B"/>
<path d="M22.7997 22.7166L24.3327 21.5245L22.3956 19.0334L25.1646 16.8802L24.2184 15.6634L21.4494 17.8165L20.2127 16.226L23.3553 13.7823L22.4091 12.5654L17.7334 16.2013L22.7997 22.7166Z" fill="#191A1B"/>
<path d="M35.6538 16.2543L37.6669 15.7492L32.7271 8.47949L30.4667 9.04657L29.5557 17.7843L31.4511 17.3088L31.6056 15.6808L34.7489 14.8921L35.6538 16.2543ZM31.9937 11.5916L32.0135 10.6232L32.4763 11.4705L33.8676 13.5741L31.7603 14.1029L31.9937 11.5916Z" fill="#191A1B"/>
<path d="M41.4102 15.9313L43.2944 16.4009L44.0341 13.4331L45.2825 13.7443C45.9655 13.9146 46.1746 14.1293 46.1488 14.8859L46.0738 17.0936L48.0406 17.5839L48.0504 14.9845C48.0559 14.3605 47.9319 13.9043 47.6344 13.5424C48.3642 13.3241 48.882 12.8026 49.1022 11.9195C49.472 10.4355 48.5527 9.2057 46.6801 8.73896L43.4062 7.92285L41.4102 15.9313ZM46.272 10.2259C47.0022 10.4078 47.2881 10.9168 47.1326 11.5411C46.977 12.1652 46.4944 12.4952 45.7053 12.2986L44.3982 11.9727L44.9177 9.8882L46.272 10.2259Z" fill="#191A1B"/>
<path d="M51.0352 19.361L52.6523 20.4362L57.2222 13.5636L55.6051 12.4883L51.0352 19.361Z" fill="#191A1B"/>
<path d="M53.4698 38.6241C53.4698 46.2762 47.2665 52.4796 39.6143 52.4796C31.9621 52.4796 25.7588 46.2762 25.7588 38.6241C25.7588 30.9719 31.9621 24.7686 39.6143 24.7686C47.2665 24.7686 53.4698 30.9719 53.4698 38.6241Z" stroke="#191A1B" stroke-width="2"/>
<rect x="1" y="1" width="76.3787" height="76" rx="38" stroke="#191A1B" stroke-width="2"/>
</svg>
