<svg xmlns="http://www.w3.org/2000/svg" width="24" height="24" fill="none" viewBox="0 0 24 24">
  <path fill="#191A1B" d="M18 9a3.75 3.75 0 0 0-2.25-6.75H9A3.75 3.75 0 0 0 6.75 9a3.75 3.75 0 0 0 .128 6.094 4.125 4.125 0 1 0 6.622 3.281V15A3.75 3.75 0 1 0 18 9Zm0-3a2.25 2.25 0 0 1-2.25 2.25H13.5v-4.5h2.25A2.25 2.25 0 0 1 18 6ZM6.75 6A2.25 2.25 0 0 1 9 3.75h3v4.5H9A2.25 2.25 0 0 1 6.75 6ZM9 14.25a2.25 2.25 0 0 1 0-4.5h3v4.5H9Zm3 4.125a2.625 2.625 0 1 1-2.625-2.625H12v2.625Zm3.75-4.125a2.25 2.25 0 1 1 0-4.5 2.25 2.25 0 0 1 0 4.5Z"/>
</svg>
